<svg xmlns="http://www.w3.org/2000/svg" viewBox="0 0 2581.96 66.92"><defs><style>.cls-1{fill:#f9c;}.cls-1,.cls-4{stroke:#dd992a;stroke-miterlimit:10;}.cls-2,.cls-4{fill:#dd992a;}.cls-3{fill:#bc8028;}.cls-5{fill:#050502;}.cls-6{fill:#070706;}</style></defs><title>angry_cat</title><g id="Layer_2" data-name="Layer 2"><g id="backgrounds"><g id="_8_copy" data-name="8 copy"><path class="cls-1" d="M2559.46,30.92h7s-4-6-4-7S2558.46,30.92,2559.46,30.92Z"/><path class="cls-2" d="M2570.46,55.42h-37a11.53,11.53,0,0,1-11.5-11.5v-2c0-6.32-1.5,6.5,11.5-11.5s28,6,37,0c8,2,11.5,5.18,11.5,11.5v2A11.53,11.53,0,0,1,2570.46,55.42Z"/><rect class="cls-3" x="2536.96" y="55.42" width="8" height="4" rx="2" ry="2" transform="translate(2598.38 -2483.54) rotate(90)"/><rect class="cls-4" x="2558.96" y="56.42" width="8" height="4" rx="2" ry="2" transform="translate(2621.38 -2504.54) rotate(90)"/><rect class="cls-3" x="2568.96" y="55.42" width="8" height="4" rx="2" ry="2" transform="translate(2525.41 -2515.74) rotate(87.66)"/><rect class="cls-4" x="2527.96" y="55.42" width="8" height="4" rx="2" ry="2" transform="translate(2589.38 -2474.54) rotate(90)"/><path class="cls-2" d="M2522.47,39.05a20.45,20.45,0,0,0-3.64-1.63,13.14,13.14,0,0,1-2-.66,6.07,6.07,0,0,1-1.54-1.18,6.21,6.21,0,0,1-1.5-2.13,14,14,0,0,1-.52-2.58,20.36,20.36,0,0,1-.68-3.68,21.79,21.79,0,0,1,.48-3,8,8,0,0,0-1.83-6.41,6.89,6.89,0,0,0-6.19-2.26,6.1,6.1,0,0,0-4.82,4.38,10.22,10.22,0,0,0-.23,1.75c-.09,1.28-.13,2.57-.12,3.85a13.47,13.47,0,0,0,.33,3.41c.68,2.69,2.67,4.82,4.52,6.89a6.26,6.26,0,0,1,.72.91c.16.29.28.59.43.88a8.65,8.65,0,0,0,2.45,2.63,9.51,9.51,0,0,0,2.36,1.52,8.58,8.58,0,0,0,2.75.51c3,.17,6-.2,8.87.4"/><path class="cls-2" d="M2523.23,37.75c-1.49-.77-3-1.26-4.5-1.92-2.79-1.21-3.47-3.19-4.13-6-.84-3.54.78-7-.64-10.49-2.19-5.36-9.6-7.46-13.61-2.77-4.42,5.17-1.95,14,2,18.68,2.09,2.48,3.55,5.35,6.42,7.08,3.93,2.36,8.87,1.1,13.21,1.74,1.88.27,2.7-2.62.79-2.9-2.8-.41-5.56-.17-8.37-.42-4.29-.4-5.48-2.11-7.82-5.13-1.76-2.26-4.09-4.27-4.86-7.14-.24-.92-.69-5.67-.15-6.86l5.87-4.55q3.46,1,3.84,4.13c.72,2.5-.29,4.84,0,7.39a21.1,21.1,0,0,0,1.25,5.59c1.81,4,5.72,4.33,9.21,6.13,1.71.89,3.23-1.7,1.51-2.59Z"/><path class="cls-1" d="M2569.05,31.47l5.94.86s-2.25-5.38-1.11-6.22S2568.21,30.33,2569.05,31.47Z"/><circle class="cls-5" cx="2563.96" cy="36.42" r="1"/><circle class="cls-6" cx="2573.96" cy="36.42" r="1"/><polygon class="cls-5" points="2568.96 41.42 2569.96 39.42 2570.96 41.42 2568.96 41.42"/></g><g id="_7_copy" data-name="7 copy"><path class="cls-1" d="M2203.46,32.92h7s-4-6-4-7S2202.46,32.92,2203.46,32.92Z"/><path class="cls-2" d="M2214.46,57.42h-37a11.53,11.53,0,0,1-11.5-11.5v-2c0-6.32-1.5,6.5,11.5-11.5s28,6,37,0c8,2,11.5,5.18,11.5,11.5v2A11.53,11.53,0,0,1,2214.46,57.42Z"/><rect class="cls-3" x="2180.96" y="57.42" width="8" height="4" rx="2" ry="2" transform="translate(2244.38 -2125.54) rotate(90)"/><rect class="cls-4" x="2202.96" y="58.42" width="8" height="4" rx="2" ry="2" transform="translate(2267.38 -2146.54) rotate(90)"/><rect class="cls-3" x="2212.96" y="57.42" width="8" height="4" rx="2" ry="2" transform="translate(2185.92 -2158.12) rotate(87.66)"/><rect class="cls-4" x="2171.96" y="57.42" width="8" height="4" rx="2" ry="2" transform="translate(2235.38 -2116.54) rotate(90)"/><path class="cls-2" d="M2166.47,41.05a20.45,20.45,0,0,0-3.64-1.63,13.14,13.14,0,0,1-2-.66,6.07,6.07,0,0,1-1.54-1.18,6.21,6.21,0,0,1-1.5-2.13,14,14,0,0,1-.52-2.58,20.36,20.36,0,0,1-.68-3.68,21.79,21.79,0,0,1,.48-3,8,8,0,0,0-1.83-6.41,6.89,6.89,0,0,0-6.19-2.26,6.1,6.1,0,0,0-4.82,4.38,10.22,10.22,0,0,0-.23,1.75c-.09,1.28-.13,2.57-.12,3.85a13.47,13.47,0,0,0,.33,3.41c.68,2.69,2.67,4.82,4.52,6.89a6.26,6.26,0,0,1,.72.91c.16.29.28.59.43.88a8.65,8.65,0,0,0,2.45,2.63,9.51,9.51,0,0,0,2.36,1.52,8.58,8.58,0,0,0,2.75.51c3,.17,6-.2,8.87.4"/><path class="cls-2" d="M2167.23,39.75c-1.49-.77-3-1.26-4.5-1.92-2.79-1.21-3.47-3.19-4.13-6-.84-3.54.78-7-.64-10.49-2.19-5.36-9.6-7.46-13.61-2.77-4.42,5.17-1.95,14,2,18.68,2.09,2.48,3.55,5.35,6.42,7.08,3.93,2.36,8.87,1.1,13.21,1.74,1.88.27,2.7-2.62.79-2.9-2.8-.41-5.56-.17-8.37-.42-4.29-.4-5.48-2.11-7.82-5.13-1.76-2.26-4.09-4.27-4.86-7.14-.24-.92-.69-5.67-.15-6.86l5.87-4.55q3.46,1,3.84,4.13c.72,2.5-.29,4.84,0,7.39a21.1,21.1,0,0,0,1.25,5.59c1.81,4,5.72,4.33,9.21,6.13,1.71.89,3.23-1.7,1.51-2.59Z"/><path class="cls-1" d="M2213.05,33.47l5.94.86s-2.25-5.38-1.11-6.22S2212.21,32.33,2213.05,33.47Z"/><circle class="cls-5" cx="2207.96" cy="38.42" r="1"/><circle class="cls-6" cx="2217.96" cy="38.42" r="1"/><polygon class="cls-5" points="2212.96 43.42 2213.96 41.42 2214.96 43.42 2212.96 43.42"/></g><g id="_6_copy" data-name="6 copy"><path class="cls-1" d="M1846.46,34.92h7s-4-6-4-7S1845.46,34.92,1846.46,34.92Z"/><path class="cls-2" d="M1857.46,59.42h-37a11.53,11.53,0,0,1-11.5-11.5v-2c0-6.32-1.5,6.5,11.5-11.5s28,6,37,0c8,2,11.5,5.18,11.5,11.5v2A11.53,11.53,0,0,1,1857.46,59.42Z"/><rect class="cls-3" x="1823.96" y="59.42" width="8" height="4" rx="2" ry="2" transform="translate(1889.38 -1766.54) rotate(90)"/><rect class="cls-4" x="1845.96" y="60.42" width="8" height="4" rx="2" ry="2" transform="translate(1912.38 -1787.54) rotate(90)"/><rect class="cls-3" x="1855.96" y="59.42" width="8" height="4" rx="2" ry="2" transform="translate(1845.48 -1799.5) rotate(87.66)"/><rect class="cls-4" x="1814.96" y="59.42" width="8" height="4" rx="2" ry="2" transform="translate(1880.38 -1757.54) rotate(90)"/><path class="cls-2" d="M1809.47,43.05a20.45,20.45,0,0,0-3.64-1.63,13.14,13.14,0,0,1-2-.66,6.07,6.07,0,0,1-1.54-1.18,6.21,6.21,0,0,1-1.5-2.13,14,14,0,0,1-.52-2.58,20.36,20.36,0,0,1-.68-3.68,21.79,21.79,0,0,1,.48-3,8,8,0,0,0-1.83-6.41,6.89,6.89,0,0,0-6.19-2.26,6.1,6.1,0,0,0-4.82,4.38,10.22,10.22,0,0,0-.23,1.75c-.09,1.28-.13,2.57-.12,3.85a13.47,13.47,0,0,0,.33,3.41c.68,2.69,2.67,4.82,4.52,6.89a6.26,6.26,0,0,1,.72.91c.16.29.28.59.43.88a8.65,8.65,0,0,0,2.45,2.63,9.51,9.51,0,0,0,2.36,1.52,8.58,8.58,0,0,0,2.75.51c3,.17,6-.2,8.87.4"/><path class="cls-2" d="M1810.23,41.75c-1.49-.77-3-1.26-4.5-1.92-2.79-1.21-3.47-3.19-4.13-6-.84-3.54.78-7-.64-10.49-2.19-5.36-9.6-7.46-13.61-2.77-4.42,5.17-1.95,14,2,18.68,2.09,2.48,3.55,5.35,6.42,7.08,3.93,2.36,8.87,1.1,13.21,1.74,1.88.27,2.7-2.62.79-2.9-2.8-.41-5.56-.17-8.37-.42-4.29-.4-5.48-2.11-7.82-5.13-1.76-2.26-4.09-4.27-4.86-7.14-.24-.92-.69-5.67-.15-6.86l5.87-4.55q3.46,1,3.84,4.13c.72,2.5-.29,4.84,0,7.39a21.1,21.1,0,0,0,1.25,5.59c1.81,4,5.72,4.33,9.21,6.13,1.71.89,3.23-1.7,1.51-2.59Z"/><path class="cls-1" d="M1856.05,35.47l5.94.86s-2.25-5.38-1.11-6.22S1855.21,34.33,1856.05,35.47Z"/><circle class="cls-5" cx="1850.96" cy="40.42" r="1"/><circle class="cls-6" cx="1860.96" cy="40.42" r="1"/><polygon class="cls-5" points="1855.96 45.42 1856.96 43.42 1857.96 45.42 1855.96 45.42"/></g><g id="_5_copy" data-name="5 copy"><path class="cls-1" d="M1484.46,20.92h7s-4-6-4-7S1483.46,20.92,1484.46,20.92Z"/><path class="cls-2" d="M1495.46,45.42h-37a11.53,11.53,0,0,1-11.5-11.5v-2c0-6.32-1.5,6.5,11.5-11.5s28,6,37,0c8,2,11.5,5.18,11.5,11.5v2A11.53,11.53,0,0,1,1495.46,45.42Z"/><rect class="cls-3" x="1461.96" y="45.42" width="8" height="4" rx="2" ry="2" transform="translate(1513.38 -1418.54) rotate(90)"/><rect class="cls-4" x="1483.96" y="46.42" width="8" height="4" rx="2" ry="2" transform="translate(1536.38 -1439.54) rotate(90)"/><rect class="cls-3" x="1493.96" y="45.42" width="8" height="4" rx="2" ry="2" transform="translate(1484.26 -1451.23) rotate(87.66)"/><rect class="cls-4" x="1452.96" y="45.42" width="8" height="4" rx="2" ry="2" transform="translate(1504.38 -1409.54) rotate(90)"/><path class="cls-2" d="M1447.47,29.05a20.45,20.45,0,0,0-3.64-1.63,13.14,13.14,0,0,1-2-.66,6.07,6.07,0,0,1-1.54-1.18,6.21,6.21,0,0,1-1.5-2.13,14,14,0,0,1-.52-2.58,20.36,20.36,0,0,1-.68-3.68,21.79,21.79,0,0,1,.48-3,8,8,0,0,0-1.83-6.41,6.89,6.89,0,0,0-6.19-2.26,6.1,6.1,0,0,0-4.82,4.38,10.22,10.22,0,0,0-.23,1.75c-.09,1.28-.13,2.57-.12,3.85a13.47,13.47,0,0,0,.33,3.41c.68,2.69,2.67,4.82,4.52,6.89a6.26,6.26,0,0,1,.72.91c.16.29.28.59.43.88a8.65,8.65,0,0,0,2.45,2.63,9.51,9.51,0,0,0,2.36,1.52,8.58,8.58,0,0,0,2.75.51c3,.17,6-.2,8.87.4"/><path class="cls-2" d="M1448.23,27.75c-1.49-.77-3-1.26-4.5-1.92-2.79-1.21-3.47-3.19-4.13-6-.84-3.54.78-7-.64-10.49-2.19-5.36-9.6-7.46-13.61-2.77-4.42,5.17-1.95,14.05,2,18.68,2.09,2.48,3.55,5.35,6.42,7.08,3.93,2.36,8.87,1.1,13.21,1.74,1.88.27,2.7-2.62.79-2.9-2.8-.41-5.56-.17-8.37-.42-4.29-.4-5.48-2.11-7.82-5.13-1.76-2.26-4.09-4.27-4.86-7.14-.24-.92-.69-5.67-.15-6.86l5.87-4.55q3.46,1,3.84,4.13c.72,2.5-.29,4.84,0,7.39a21.1,21.1,0,0,0,1.25,5.59c1.81,4,5.72,4.33,9.21,6.13,1.71.89,3.23-1.7,1.51-2.59Z"/><path class="cls-1" d="M1494.05,21.47l5.94.86s-2.25-5.38-1.11-6.22S1493.21,20.33,1494.05,21.47Z"/><circle class="cls-5" cx="1488.96" cy="26.42" r="1"/><circle class="cls-6" cx="1498.96" cy="26.42" r="1"/><polygon class="cls-5" points="1493.96 31.42 1494.96 29.42 1495.96 31.42 1493.96 31.42"/></g><g id="_4_copy" data-name="4 copy"><path class="cls-1" d="M1144.46,26.92h7s-4-6-4-7S1143.46,26.92,1144.46,26.92Z"/><path class="cls-2" d="M1155.46,51.42h-37a11.53,11.53,0,0,1-11.5-11.5v-2c0-6.32-1.5,6.5,11.5-11.5s28,6,37,0c8,2,11.5,5.18,11.5,11.5v2A11.53,11.53,0,0,1,1155.46,51.42Z"/><rect class="cls-3" x="1121.96" y="51.42" width="8" height="4" rx="2" ry="2" transform="translate(1179.38 -1072.54) rotate(90)"/><rect class="cls-4" x="1143.96" y="52.42" width="8" height="4" rx="2" ry="2" transform="translate(1202.38 -1093.54) rotate(90)"/><rect class="cls-3" x="1153.96" y="51.42" width="8" height="4" rx="2" ry="2" transform="translate(1164.12 -1105.75) rotate(87.66)"/><rect class="cls-4" x="1112.96" y="51.42" width="8" height="4" rx="2" ry="2" transform="translate(1170.38 -1063.54) rotate(90)"/><path class="cls-2" d="M1107.47,35.05a20.45,20.45,0,0,0-3.64-1.63,13.14,13.14,0,0,1-2-.66,6.07,6.07,0,0,1-1.54-1.18,6.21,6.21,0,0,1-1.5-2.13,14,14,0,0,1-.52-2.58,20.36,20.36,0,0,1-.68-3.68,21.79,21.79,0,0,1,.48-3,8,8,0,0,0-1.83-6.41,6.89,6.89,0,0,0-6.19-2.26,6.1,6.1,0,0,0-4.82,4.38,10.22,10.22,0,0,0-.23,1.75c-.09,1.28-.13,2.57-.12,3.85a13.47,13.47,0,0,0,.33,3.41c.68,2.69,2.67,4.82,4.52,6.89a6.26,6.26,0,0,1,.72.91c.16.29.28.59.43.88a8.65,8.65,0,0,0,2.45,2.63,9.51,9.51,0,0,0,2.36,1.52,8.58,8.58,0,0,0,2.75.51c3,.17,6-.2,8.87.4"/><path class="cls-2" d="M1108.23,33.75c-1.49-.77-3-1.26-4.5-1.92-2.79-1.21-3.47-3.19-4.13-6-.84-3.54.78-7-.64-10.49-2.19-5.36-9.6-7.46-13.61-2.77-4.42,5.17-1.95,14.05,2,18.68,2.09,2.48,3.55,5.35,6.42,7.08,3.93,2.36,8.87,1.1,13.21,1.74,1.88.27,2.7-2.62.79-2.9-2.8-.41-5.56-.17-8.37-.42-4.29-.4-5.48-2.11-7.82-5.13-1.76-2.26-4.09-4.27-4.86-7.14-.24-.92-.69-5.67-.15-6.86l5.87-4.55q3.46,1,3.84,4.13c.72,2.5-.29,4.84,0,7.39a21.1,21.1,0,0,0,1.25,5.59c1.81,4,5.72,4.33,9.21,6.13,1.71.89,3.23-1.7,1.51-2.59Z"/><path class="cls-1" d="M1154.05,27.47l5.94.86s-2.25-5.38-1.11-6.22S1153.21,26.33,1154.05,27.47Z"/><circle class="cls-5" cx="1148.96" cy="32.42" r="1"/><circle class="cls-6" cx="1158.96" cy="32.42" r="1"/><polygon class="cls-5" points="1153.96 37.42 1154.96 35.42 1155.96 37.42 1153.96 37.42"/></g><g id="_3_copy" data-name="3 copy"><path class="cls-1" d="M803.46,20.92h7s-4-6-4-7S802.46,20.92,803.46,20.92Z"/><path class="cls-2" d="M814.46,45.42h-37A11.53,11.53,0,0,1,766,33.92v-2c0-6.32-1.5,6.5,11.5-11.5s28,6,37,0c8,2,11.5,5.18,11.5,11.5v2A11.53,11.53,0,0,1,814.46,45.42Z"/><rect class="cls-3" x="780.96" y="45.42" width="8" height="4" rx="2" ry="2" transform="translate(832.38 -737.54) rotate(90)"/><rect class="cls-4" x="802.96" y="46.42" width="8" height="4" rx="2" ry="2" transform="translate(855.38 -758.54) rotate(90)"/><rect class="cls-3" x="812.96" y="45.42" width="8" height="4" rx="2" ry="2" transform="translate(831.03 -770.79) rotate(87.66)"/><rect class="cls-4" x="771.96" y="45.42" width="8" height="4" rx="2" ry="2" transform="translate(823.38 -728.54) rotate(90)"/><path class="cls-2" d="M766.47,29.05a20.45,20.45,0,0,0-3.64-1.63,13.14,13.14,0,0,1-2-.66,6.07,6.07,0,0,1-1.54-1.18,6.21,6.21,0,0,1-1.5-2.13,14,14,0,0,1-.52-2.58,20.36,20.36,0,0,1-.68-3.68,21.79,21.79,0,0,1,.48-3,8,8,0,0,0-1.83-6.41,6.89,6.89,0,0,0-6.19-2.26,6.1,6.1,0,0,0-4.82,4.38,10.22,10.22,0,0,0-.23,1.75c-.09,1.28-.13,2.57-.12,3.85a13.47,13.47,0,0,0,.33,3.41c.68,2.69,2.67,4.82,4.52,6.89a6.26,6.26,0,0,1,.72.91c.16.29.28.59.43.88a8.65,8.65,0,0,0,2.45,2.63,9.51,9.51,0,0,0,2.36,1.52,8.58,8.58,0,0,0,2.75.51c3,.17,6-.2,8.87.4"/><path class="cls-2" d="M767.23,27.75c-1.49-.77-3-1.26-4.5-1.92-2.79-1.21-3.47-3.19-4.13-6-.84-3.54.78-7-.64-10.49-2.19-5.36-9.6-7.46-13.61-2.77-4.42,5.17-2,14.05,1.95,18.68,2.09,2.48,3.55,5.35,6.42,7.08,3.93,2.36,8.87,1.1,13.21,1.74,1.88.27,2.7-2.62.79-2.9-2.8-.41-5.56-.17-8.37-.42-4.29-.4-5.48-2.11-7.82-5.13-1.76-2.26-4.09-4.27-4.86-7.14-.24-.92-.69-5.67-.15-6.86l5.87-4.55q3.47,1,3.84,4.13c.72,2.5-.29,4.84,0,7.39a21.1,21.1,0,0,0,1.25,5.59c1.81,4,5.72,4.33,9.21,6.13,1.71.89,3.23-1.7,1.51-2.59Z"/><path class="cls-1" d="M813.05,21.47l5.94.86s-2.25-5.38-1.11-6.22S812.21,20.33,813.05,21.47Z"/><circle class="cls-5" cx="807.96" cy="26.42" r="1"/><circle class="cls-6" cx="817.96" cy="26.42" r="1"/><polygon class="cls-5" points="812.96 31.42 813.96 29.42 814.96 31.42 812.96 31.42"/></g><g id="_2_copy" data-name="2 copy"><path class="cls-1" d="M409.46,16.92h7s-4-6-4-7S408.46,16.92,409.46,16.92Z"/><path class="cls-2" d="M420.46,41.42h-37A11.53,11.53,0,0,1,372,29.92v-2c0-6.32-1.5,6.5,11.5-11.5s28,6,37,0c8,2,11.5,5.18,11.5,11.5v2A11.53,11.53,0,0,1,420.46,41.42Z"/><rect class="cls-3" x="386.96" y="41.42" width="8" height="4" rx="2" ry="2" transform="translate(434.38 -347.54) rotate(90)"/><rect class="cls-4" x="408.96" y="42.42" width="8" height="4" rx="2" ry="2" transform="translate(457.38 -368.54) rotate(90)"/><rect class="cls-3" x="418.96" y="41.42" width="8" height="4" rx="2" ry="2" transform="translate(449.1 -380.96) rotate(87.66)"/><rect class="cls-4" x="377.96" y="41.42" width="8" height="4" rx="2" ry="2" transform="translate(425.38 -338.54) rotate(90)"/><path class="cls-2" d="M372.47,25.05a20.45,20.45,0,0,0-3.64-1.63,13.14,13.14,0,0,1-2-.66,6.07,6.07,0,0,1-1.54-1.18,6.21,6.21,0,0,1-1.5-2.13,14,14,0,0,1-.52-2.58,20.36,20.36,0,0,1-.68-3.68,21.79,21.79,0,0,1,.48-3,8,8,0,0,0-1.83-6.41,6.89,6.89,0,0,0-6.19-2.26,6.1,6.1,0,0,0-4.82,4.38A10.22,10.22,0,0,0,350,7.65c-.09,1.28-.13,2.57-.12,3.85a13.47,13.47,0,0,0,.33,3.41c.68,2.69,2.67,4.82,4.52,6.89a6.26,6.26,0,0,1,.72.91c.16.29.28.59.43.88a8.65,8.65,0,0,0,2.45,2.63,9.51,9.51,0,0,0,2.36,1.52,8.58,8.58,0,0,0,2.75.51c3,.17,6-.2,8.87.4"/><path class="cls-2" d="M373.23,23.75c-1.49-.77-3-1.26-4.5-1.92-2.79-1.21-3.47-3.19-4.13-6-.84-3.54.78-7-.64-10.49-2.19-5.36-9.6-7.46-13.61-2.77-4.42,5.17-2,14.05,1.95,18.68,2.09,2.48,3.55,5.35,6.42,7.08,3.93,2.36,8.87,1.1,13.21,1.74,1.88.27,2.7-2.62.79-2.9-2.8-.41-5.56-.17-8.37-.42-4.29-.4-5.48-2.11-7.82-5.13-1.76-2.26-4.09-4.27-4.86-7.14-.24-.92-.69-5.67-.15-6.86l5.87-4.55q3.47,1,3.84,4.13c.72,2.5-.29,4.84,0,7.39a21.1,21.1,0,0,0,1.25,5.59c1.81,4,5.72,4.33,9.21,6.13,1.71.89,3.23-1.7,1.51-2.59Z"/><path class="cls-1" d="M419.05,17.47l5.94.86s-2.25-5.38-1.11-6.22S418.21,16.33,419.05,17.47Z"/><circle class="cls-5" cx="413.96" cy="22.42" r="1"/><circle class="cls-6" cx="423.96" cy="22.42" r="1"/><polygon class="cls-5" points="418.96 27.42 419.96 25.42 420.96 27.42 418.96 27.42"/></g><g id="_1from_left_copy" data-name="1from left copy"><path class="cls-1" d="M61.46,23.92h7s-4-6-4-7S60.46,23.92,61.46,23.92Z"/><path class="cls-2" d="M72.46,48.42h-37A11.53,11.53,0,0,1,24,36.92v-2c0-6.32-1.5,6.5,11.5-11.5s28,6,37,0c8,2,11.5,5.18,11.5,11.5v2A11.53,11.53,0,0,1,72.46,48.42Z"/><rect class="cls-3" x="38.96" y="48.42" width="8" height="4" rx="2" ry="2" transform="translate(93.38 7.46) rotate(90)"/><rect class="cls-4" x="60.96" y="49.42" width="8" height="4" rx="2" ry="2" transform="translate(116.38 -13.54) rotate(90)"/><rect class="cls-3" x="70.96" y="48.42" width="8" height="4" rx="2" ry="2" transform="translate(122.29 -26.53) rotate(87.66)"/><rect class="cls-4" x="29.96" y="48.42" width="8" height="4" rx="2" ry="2" transform="translate(84.38 16.46) rotate(90)"/><path class="cls-2" d="M24.47,32.05a20.45,20.45,0,0,0-3.64-1.63,13.14,13.14,0,0,1-2-.66,6.07,6.07,0,0,1-1.54-1.18,6.21,6.21,0,0,1-1.5-2.13,14,14,0,0,1-.52-2.58,20.36,20.36,0,0,1-.68-3.68,21.79,21.79,0,0,1,.48-3,8,8,0,0,0-1.83-6.41A6.89,6.89,0,0,0,7.07,8.52,6.1,6.1,0,0,0,2.25,12.9,10.22,10.22,0,0,0,2,14.65c-.09,1.28-.13,2.57-.12,3.85a13.47,13.47,0,0,0,.33,3.41c.68,2.69,2.67,4.82,4.52,6.89a6.26,6.26,0,0,1,.72.91c.16.29.28.59.43.88a8.65,8.65,0,0,0,2.45,2.63,9.51,9.51,0,0,0,2.36,1.52,8.58,8.58,0,0,0,2.75.51c3,.17,6-.2,8.87.4"/><path class="cls-2" d="M25.23,30.75c-1.49-.77-3-1.26-4.5-1.92-2.79-1.21-3.47-3.19-4.13-6-.84-3.54.78-7-.64-10.49C13.77,7,6.36,4.91,2.35,9.6-2.07,14.77.4,23.65,4.3,28.28c2.09,2.48,3.55,5.35,6.42,7.08,3.93,2.36,8.87,1.1,13.21,1.74,1.88.27,2.7-2.62.79-2.9-2.8-.41-5.56-.17-8.37-.42-4.29-.4-5.48-2.11-7.82-5.13-1.76-2.26-4.09-4.27-4.86-7.14-.24-.92-.69-5.67-.15-6.86L9.39,10.1q3.46,1,3.84,4.13c.72,2.5-.29,4.84,0,7.39a21.1,21.1,0,0,0,1.25,5.59c1.81,4,5.72,4.33,9.21,6.13,1.71.89,3.23-1.7,1.51-2.59Z"/><path class="cls-1" d="M71.05,24.47l5.94.86S74.74,20,75.88,19.11,70.21,23.33,71.05,24.47Z"/><circle class="cls-5" cx="65.96" cy="29.42" r="1"/><circle class="cls-6" cx="75.96" cy="29.42" r="1"/><polygon class="cls-5" points="70.96 34.42 71.96 32.42 72.96 34.42 70.96 34.42"/></g></g></g></svg>
