<svg xmlns="http://www.w3.org/2000/svg" xmlns:xlink="http://www.w3.org/1999/xlink" viewBox="0 0 1602 628"><defs><style>.cls-1{fill:none;}.cls-2{fill:#7eb329;}.cls-3{fill:#6a7ebc;}.cls-4{fill:#808ac3;}.cls-5{fill:#8396cc;}.cls-6{fill:#e9bd00;}.cls-7{fill:#fdd557;}.cls-8{fill:#ded8c1;}.cls-9{fill:#faf6e8;}.cls-10{fill:#fff;}.cls-11{fill:#c19955;}.cls-12{fill:#f8c46f;}.cls-13{fill:#69ae2b;}.cls-14{fill:#009635;}.cls-15{fill:#007d2b;}.cls-16{fill:#006a2c;}.cls-17{fill:#158b2f;}.cls-18{fill:#85bb25;}.cls-19{fill:#13a438;}.cls-20{stroke:#000;stroke-miterlimit:10;fill:url(#Summer_2);}.cls-21{fill:#61b445;}.cls-22{fill:#9ed9e1;}.cls-23{fill:#6b8b8d;}.cls-24{fill:#bee4e7;}</style><radialGradient id="Summer_2" cx="887" cy="296.5" fx="963.7854835912696" fy="179.01210652967643" r="607.54" gradientTransform="matrix(0.93, 0.32, -0.18, 0.52, 107.05, -144.2)" gradientUnits="userSpaceOnUse"><stop offset="0" stop-color="#fff"/><stop offset="0.09" stop-color="#ffecd8"/><stop offset="0.21" stop-color="#ffd5a7"/><stop offset="0.33" stop-color="#ffc07d"/><stop offset="0.46" stop-color="#ffaf5b"/><stop offset="0.59" stop-color="#ffa340"/><stop offset="0.72" stop-color="#ff992d"/><stop offset="0.86" stop-color="#ff9422"/><stop offset="1" stop-color="#ff921e"/></radialGradient><symbol id="Grass_1" data-name="Grass 1" viewBox="0 0 28.9 44.07"><path class="cls-13" d="M13.49,40.74S18.23,25.17,11.39,0C23.73,22.34,15.9,36,13.49,40.74Z"/><path class="cls-14" d="M11.13,37.63S12.47,26,0,17.15c10.77,11.43,9,21,10.32,26.92Z"/><path class="cls-15" d="M19.72,39.82s-2.42-11.58,5.65-17A81.72,81.72,0,0,0,19.72,39.82Z"/><path class="cls-16" d="M22.13,40.11s-.16-7.89,4.92-9.73C28.07,29.56,25.57,35,22.13,40.11Z"/><path class="cls-15" d="M10.72,29s3.83-7.92-7.07-21.66C6.38,13.39,9.63,21.24,10.72,29Z"/><path class="cls-14" d="M19.62,25.76S20.15,6.4,28.9,3.48C23.87,11.7,22.54,16.21,19.62,25.76Z"/></symbol><symbol id="Grass_3" data-name="Grass 3" viewBox="0 0 35 60.43"><path class="cls-1" d="M9.66,0c3.32,4.71,7.2,9.14,10,14.41,7.21,13,5.82,27.43,2.22,41.56"/><path class="cls-17" d="M9.65,0c2.86,4.05,5.28,8.13,7.88,12.36S22.53,21,23.44,26c1.82,9.84-1,22.74-3.52,32.29-.3,1.13,2.51-.82,2.78-2,.93-3.85,4.41-16.82,1.76-29.65C22.31,16.27,15.69,8.36,9.67,0c0,0,0,0,0,0Z"/><path class="cls-1" d="M14.12,55.54C19.39,31,.61,43.82.27,17.58"/><path class="cls-18" d="M15.29,55.65c1.44-7,1.65-13.72-4.21-18.55C8.9,35.3,6.42,34.27,4.6,32,1.39,28,.71,22.55.53,17.6.38,13.24,0,13.18,0,17.55s.46,8.94,2.38,13a25,25,0,0,0,5.26,6.63c1.79,1.79,4,3.11,5.15,5.42,2,3.84,1,8.86.17,12.86-.31,1.48.35,3.38,2.33.22Z"/><path class="cls-1" d="M10.74,56.86c-2.23-13.94-5.28-34.41.65-47.1"/><path class="cls-19" d="M11.34,55c-1.24-7.7-2.16-13.69-2.8-21.47s-.26-16.38,3-23.73c.07-.17-.19-.26-.26-.1C7.93,16.91,7.55,25,7.52,32.79,7.5,40.92,8.79,49,10.07,57c.14.87,2.11.74,2-.13Z"/><path class="cls-1" d="M28.08,56.17c-5.91-16.34,4.34-24,6.78-29.21"/><path class="cls-19" d="M28.69,55.87c-2.13-6.12-2.47-12.81.19-18.83,1.59-3.62,4.44-6.48,6.11-10,.07-.16-.19-.25-.26-.09-1.94,3.83-5.06,6.92-6.95,10.83a21.25,21.25,0,0,0-1,17.68c.29.83,2.17,1.27,1.88.44Z"/><path class="cls-1" d="M17,58.78c-2.19-13.71,8.43-18,1.39-41"/><path class="cls-19" d="M18.51,58.11c-.91-6.1.34-10.7,1.64-16.52,1.79-8.05.36-18.3-2.06-26.11a21.39,21.39,0,0,0,.12,2.3c2.36,8.22,3.05,16.19.45,24.4C16.93,47.67,16.1,52.45,17,58.25c.13.87.42,2.84.28,2Z"/></symbol><symbol id="Daisy" data-name="Daisy" viewBox="0 0 47.36 47.37"><rect class="cls-1" x="2.26" y="2.08" width="43.01" height="43.1"/><path class="cls-8" d="M46,20.88c-3.74-2.09-14.34,1-18.07,2.18a6,6,0,0,1,.07.74,5.56,5.56,0,0,1-.08.82c12.77,3.57,18,.22,18,.22C49.16,22.92,46,20.88,46,20.88Z"/><path class="cls-9" d="M44,21.26c-3.32-1.73-12.74.82-16.06,1.8a4.07,4.07,0,0,1,.06.61,3.73,3.73,0,0,1-.07.68c11.36,3,16,.19,16,.19C46.8,23,44,21.26,44,21.26Z"/><path class="cls-10" d="M43.3,22.48c-3.19-.86-12.23.4-15.41.89a1.07,1.07,0,0,1,.06.3,1,1,0,0,1-.07.34c10.89,1.46,15.37.09,15.37.09C46,23.31,43.3,22.48,43.3,22.48Z"/><path class="cls-8" d="M37.49,6C33.37,7.14,28,16.8,26.23,20.28a6.06,6.06,0,0,1,.56.47,5.29,5.29,0,0,1,.53.64C38.89,14.9,40.24,8.83,40.24,8.83,41.2,5.17,37.49,6,37.49,6Z"/><path class="cls-9" d="M36.34,7.66c-3.58,1.12-8.46,9.58-10.11,12.62a4.22,4.22,0,0,1,.47.39,3.69,3.69,0,0,1,.43.53C37.26,15.28,38.61,10,38.61,10,39.54,6.85,36.34,7.66,36.34,7.66Z"/><path class="cls-10" d="M36.73,9c-2.86,1.64-8.37,8.91-10.29,11.5a1.2,1.2,0,0,1,.26.18,1.07,1.07,0,0,1,.19.28c8.75-6.65,11-10.78,11-10.78C39.25,7.66,36.73,9,36.73,9Z"/><path class="cls-8" d="M21,1.39c-2.11,3.74.93,14.35,2.1,18.09a4.42,4.42,0,0,1,.74-.07,5.56,5.56,0,0,1,.82.08c3.62-12.76.3-18,.3-18C23-1.79,21,1.39,21,1.39Z"/><path class="cls-9" d="M21.34,3.4c-1.74,3.32.77,12.75,1.74,16.08a4.07,4.07,0,0,1,.61-.06,3.73,3.73,0,0,1,.68.07c3-11.34.25-16,.25-16C23,.57,21.34,3.4,21.34,3.4Z"/><path class="cls-10" d="M22.56,4.06c-.87,3.19.35,12.23.83,15.42a1.07,1.07,0,0,1,.3-.06,1,1,0,0,1,.34.07c1.51-10.89.15-15.37.15-15.37C23.41,1.34,22.56,4.06,22.56,4.06Z"/><path class="cls-8" d="M6,9.8c1.14,4.13,10.78,9.51,14.25,11.33a5.08,5.08,0,0,1,.47-.57A7.67,7.67,0,0,1,21.4,20C15,8.44,8.9,7.06,8.9,7.06,5.24,6.09,6,9.8,6,9.8Z"/><path class="cls-9" d="M7.72,11c1.1,3.59,9.54,8.5,12.57,10.17a4.31,4.31,0,0,1,.39-.48,5.13,5.13,0,0,1,.53-.42C15.34,10.07,10.09,8.7,10.09,8.7,6.92,7.76,7.72,11,7.72,11Z"/><path class="cls-10" d="M9,10.57c1.63,2.88,8.88,8.42,11.47,10.34a1.45,1.45,0,0,1,.17-.26,1,1,0,0,1,.29-.18c-6.62-8.78-10.74-11-10.74-11C7.72,8.05,9,10.57,9,10.57Z"/><path class="cls-8" d="M1.38,26.3c3.73,2.12,14.35-.87,18.1-2a4.63,4.63,0,0,1-.07-.74,5.56,5.56,0,0,1,.09-.82c-12.75-3.68-18-.37-18-.37C-1.79,24.23,1.38,26.3,1.38,26.3Z"/><path class="cls-9" d="M3.4,25.94c3.31,1.76,12.75-.72,16.08-1.67a4.07,4.07,0,0,1-.06-.61A3.72,3.72,0,0,1,19.5,23c-11.34-3.05-16-.32-16-.32C.57,24.23,3.4,25.94,3.4,25.94Z"/><path class="cls-10" d="M4.06,24.72c3.18.89,12.23-.3,15.42-.76a1.07,1.07,0,0,1-.06-.3,1,1,0,0,1,.07-.34C8.61,21.77,4.12,23.1,4.12,23.1,1.34,23.87,4.06,24.72,4.06,24.72Z"/><path class="cls-8" d="M9.73,41.27c4.14-1.12,9.55-10.74,11.39-14.21a4.18,4.18,0,0,1-.57-.47A6.32,6.32,0,0,1,20,26C8.41,32.34,7,38.4,7,38.4,6,42.05,9.73,41.27,9.73,41.27Z"/><path class="cls-9" d="M10.9,39.6c3.59-1.09,8.53-9.51,10.22-12.54a3,3,0,0,1-.47-.39,3.12,3.12,0,0,1-.43-.53C10,32,8.64,37.22,8.64,37.22,7.69,40.38,10.9,39.6,10.9,39.6Z"/><path class="cls-10" d="M10.52,38.27C13.39,36.65,19,29.42,20.9,26.85a.88.88,0,0,1-.25-.18.87.87,0,0,1-.19-.28c-8.81,6.57-11,10.68-11,10.68C8,39.58,10.52,38.27,10.52,38.27Z"/><path class="cls-8" d="M26.21,46c2.14-3.71-.81-14.35-2-18.1a5.83,5.83,0,0,1-.73.06,5.3,5.3,0,0,1-.82-.08c-3.73,12.72-.45,18-.45,18C24.13,49.16,26.21,46,26.21,46Z"/><path class="cls-9" d="M25.86,44c1.77-3.3-.66-12.76-1.61-16.09a4.07,4.07,0,0,1-.61.06,5.05,5.05,0,0,1-.68-.08c-3.1,11.32-.38,16-.38,16C24.13,46.8,25.86,44,25.86,44Z"/><path class="cls-10" d="M24.65,43.31c.89-3.18-.26-12.23-.71-15.42a1.07,1.07,0,0,1-.3.06,1.94,1.94,0,0,1-.33-.07C21.71,38.75,23,43.24,23,43.24,23.78,46,24.65,43.31,24.65,43.31Z"/><path class="cls-8" d="M41.22,37.71c-1.11-4.14-10.71-9.6-14.16-11.44a6.2,6.2,0,0,1-.48.56,4.56,4.56,0,0,1-.65.51C32.27,39,38.33,40.43,38.33,40.43,42,41.42,41.22,37.71,41.22,37.71Z"/><path class="cls-9" d="M39.55,36.53C38.47,32.94,30.08,28,27.06,26.27a4.4,4.4,0,0,1-.4.46,3.64,3.64,0,0,1-.54.43c5.8,10.21,11,11.62,11,11.62C40.32,39.75,39.55,36.53,39.55,36.53Z"/><path class="cls-10" d="M38.22,36.91C36.61,34,29.41,28.43,26.84,26.48a.88.88,0,0,1-.18.25,1,1,0,0,1-.29.19C32.91,35.75,37,38,37,38,39.52,39.45,38.22,36.91,38.22,36.91Z"/><path class="cls-8" d="M44.24,32.48c-2.17-3.7-12.87-6.4-16.69-7.26a5.72,5.72,0,0,1-.32.66,4.76,4.76,0,0,1-.48.67C36,36.1,42.19,35.86,42.19,35.86,46,35.85,44.24,32.48,44.24,32.48Z"/><path class="cls-9" d="M42.32,31.78c-2-3.17-11.41-5.74-14.77-6.56a4.55,4.55,0,0,1-.26.55,5.66,5.66,0,0,1-.4.56c8.3,8.29,13.73,8.26,13.73,8.26C43.92,34.68,42.32,31.78,42.32,31.78Z"/><path class="cls-10" d="M41.14,32.5c-2.32-2.35-10.75-5.83-13.74-7a1.45,1.45,0,0,1-.11.29,1.13,1.13,0,0,1-.23.26c8.66,6.77,13.22,7.85,13.22,7.85C43.07,34.61,41.14,32.5,41.14,32.5Z"/><path class="cls-10" d="M41.14,32.5c-2.32-2.35-10.75-5.83-13.74-7a1.45,1.45,0,0,1-.11.29,1.13,1.13,0,0,1-.23.26c8.66,6.77,13.22,7.85,13.22,7.85C43.07,34.61,41.14,32.5,41.14,32.5Z"/><path class="cls-8" d="M42.88,11.8c-4.28-.3-12.56,7-15.43,9.66a5.07,5.07,0,0,1,.37.64,4.45,4.45,0,0,1,.28.77c13.08-2.2,16.41-7.46,16.41-7.46C46.64,12.28,42.88,11.8,42.88,11.8Z"/><path class="cls-9" d="M41.22,13c-3.75-.15-11.19,6.17-13.77,8.47a4.6,4.6,0,0,1,.31.53,3.77,3.77,0,0,1,.23.64C39.53,20.48,42.57,16,42.57,16,44.51,13.31,41.22,13,41.22,13Z"/><path class="cls-10" d="M41.15,14.37c-3.25.58-10.9,5.57-13.57,7.37a.88.88,0,0,1,.18.25,1.15,1.15,0,0,1,.09.33C38.33,19,41.79,15.86,41.79,15.86,44,14,41.15,14.37,41.15,14.37Z"/><path class="cls-8" d="M25.06,1.15c-2.71,3.32-1.54,14.29-1,18.18a3.66,3.66,0,0,1,.73.06,4.82,4.82,0,0,1,.79.22C31.33,7.65,29,1.9,29,1.9,27.63-1.64,25.06,1.15,25.06,1.15Z"/><path class="cls-9" d="M25.08,3.19c-2.29,3-1.42,12.69-1,16.14a4.26,4.26,0,0,1,.61,0,4.45,4.45,0,0,1,.65.19c4.9-10.66,3-15.74,3-15.74C27.24.69,25.08,3.19,25.08,3.19Z"/><path class="cls-10" d="M26.17,4.05c-1.41,3-1.75,12.11-1.82,15.33a1.58,1.58,0,0,1,.31,0,1.08,1.08,0,0,1,.32.13C28.32,9,27.76,4.38,27.76,4.38,27.47,1.51,26.17,4.05,26.17,4.05Z"/><path class="cls-8" d="M11.24,5.22c-.16,4.28,7.43,12.31,10.2,15.08a3.84,3.84,0,0,1,.62-.39,4.49,4.49,0,0,1,.76-.31c-2.66-13-8-16.14-8-16.14C11.59,1.45,11.24,5.22,11.24,5.22Z"/><path class="cls-9" d="M12.49,6.83c0,3.75,6.55,11,9,13.47A3,3,0,0,1,22,20a3.86,3.86,0,0,1,.64-.25C20,8.27,15.43,5.38,15.43,5.38,12.69,3.53,12.49,6.83,12.49,6.83Z"/><path class="cls-10" d="M13.87,6.86c.69,3.23,6,10.69,7.84,13.3A1.12,1.12,0,0,1,22,20a1.15,1.15,0,0,1,.33-.1C18.6,9.52,15.34,6.16,15.34,6.16,13.37,4.05,13.87,6.86,13.87,6.86Z"/><path class="cls-8" d="M3.42,16.24c2.41,3.55,13.27,5.54,17.14,6.14a4.37,4.37,0,0,1,.27-.68,5.46,5.46,0,0,1,.43-.7c-9.82-8.92-16-8.27-16-8.27C1.48,13,3.42,16.24,3.42,16.24Z"/><path class="cls-9" d="M5.39,16.8c2.19,3,11.76,5,15.17,5.58a3.34,3.34,0,0,1,.22-.57,3.47,3.47,0,0,1,.37-.57C12.31,13.51,6.9,13.9,6.9,13.9,3.6,14,5.39,16.8,5.39,16.8Z"/><path class="cls-10" d="M6.52,16c2.46,2.2,11.11,5.11,14.17,6.1a1.14,1.14,0,0,1,.09-.3,1,1,0,0,1,.21-.27c-9.09-6.18-13.7-7-13.7-7C4.45,14,6.52,16,6.52,16Z"/><path class="cls-8" d="M5.45,35c4.27.45,12.8-6.54,15.77-9.11a4.48,4.48,0,0,1-.35-.65,4.42,4.42,0,0,1-.25-.78C7.46,26.2,4,31.34,4,31.34,1.72,34.39,5.45,35,5.45,35Z"/><path class="cls-9" d="M7.15,33.87c3.74.29,11.4-5.76,14.07-8a4.54,4.54,0,0,1-.3-.53,4.15,4.15,0,0,1-.2-.66C9.12,26.45,5.91,30.84,5.91,30.84,3.88,33.44,7.15,33.87,7.15,33.87Z"/><path class="cls-10" d="M7.28,32.49c3.27-.46,11.08-5.17,13.81-6.87a1.38,1.38,0,0,1-.17-.25,1.28,1.28,0,0,1-.07-.34C10.26,28,6.69,31,6.69,31,4.44,32.79,7.28,32.49,7.28,32.49Z"/><path class="cls-8" d="M36.18,41.65c.15-4.29-7.45-12.29-10.22-15.07a4.09,4.09,0,0,1-.62.4,4.59,4.59,0,0,1-.77.31c2.69,13,8.07,16.12,8.07,16.12C35.84,45.42,36.18,41.65,36.18,41.65Z"/><path class="cls-9" d="M34.93,40c0-3.74-6.57-11-9-13.45a3.89,3.89,0,0,1-.52.34,4.86,4.86,0,0,1-.63.25C27.39,38.62,32,41.49,32,41.49,34.73,43.33,34.93,40,34.93,40Z"/><path class="cls-10" d="M33.55,40c-.7-3.23-6-10.68-7.86-13.28a1.18,1.18,0,0,1-.25.19.9.9,0,0,1-.32.09c3.69,10.36,7,13.7,7,13.7C34.05,42.82,33.55,40,33.55,40Z"/><path class="cls-10" d="M36.73,8.7c-2.85,1.68-8.28,9-10.16,11.63a1,1,0,0,1,.26.17,1.42,1.42,0,0,1,.2.28C35.7,14,37.85,9.87,37.85,9.87,39.23,7.34,36.73,8.7,36.73,8.7Z"/><path class="cls-10" d="M8.83,11.79c1.94,2.68,9.76,7.38,12.54,9a1.15,1.15,0,0,1,.14-.27,1.13,1.13,0,0,1,.27-.22c-7.55-8-11.89-9.75-11.89-9.75C7.24,9.43,8.83,11.79,8.83,11.79Z"/><path class="cls-10" d="M5.32,26.88c3.3.25,11.94-2.67,15-3.75a1,1,0,0,1-.12-.28,1.37,1.37,0,0,1,0-.35c-11,.6-15.11,2.78-15.11,2.78C2.49,26.57,5.32,26.88,5.32,26.88Z"/><path class="cls-10" d="M12.27,37.82c2.67-2,7.36-9.77,9-12.56a1.15,1.15,0,0,1-.27-.14,1.09,1.09,0,0,1-.22-.26c-8,7.55-9.73,11.9-9.73,11.9C9.9,39.41,12.27,37.82,12.27,37.82Z"/><path class="cls-10" d="M26.08,42.74c.61-3.25-1.34-12.16-2.07-15.3a.84.84,0,0,1-.63,0c-.63,11,1.07,15.33,1.07,15.33C25.45,45.52,26.08,42.74,26.08,42.74Z"/><polygon class="cls-11" points="28.46 22.98 27.43 21.13 26.55 19.71 24.32 18.94 23.62 19.33 22.79 19.1 20.83 20.03 19.5 20.89 18.61 23.08 18.81 23.66 18.91 24.62 20.06 26.36 20.82 27.58 23.09 28.43 23.62 28.41 24.6 27.87 26.67 27.49 27.5 26.23 28.51 24.43 28.48 23.66 28.46 22.98"/><polygon class="cls-12" points="27.83 23.08 26.52 21.84 26.39 20.06 24.34 19.51 23.72 20.78 23.04 19.94 21.58 20.91 20.03 21.16 19.19 23.14 19.89 23.66 19.95 24.42 21.24 25.49 21.3 27.05 23.25 27.94 23.72 27.78 24.39 26.44 26.46 27.13 26.7 25.6 28 24.34 27.74 23.66 27.83 23.08"/><path class="cls-11" d="M25.92,25a.68.68,0,0,1-1.35,0,.68.68,0,0,1,1.35,0Z"/><path class="cls-11" d="M26.6,24.52a.68.68,0,1,1-.68-.64A.66.66,0,0,1,26.6,24.52Z"/><path class="cls-11" d="M26.6,23.24a.68.68,0,1,1-.68-.64A.65.65,0,0,1,26.6,23.24Z"/><path class="cls-11" d="M25.7,21.32a.68.68,0,1,1-.68-.64A.66.66,0,0,1,25.7,21.32Z"/><path class="cls-11" d="M24.34,22.39a.68.68,0,0,1-1.36,0,.68.68,0,0,1,1.36,0Z"/><path class="cls-11" d="M24.34,24.1a.68.68,0,0,1-1.36,0,.68.68,0,0,1,1.36,0Z"/><path class="cls-11" d="M23.66,26a.68.68,0,1,1-.68-.64A.66.66,0,0,1,23.66,26Z"/><path class="cls-11" d="M22.31,24.54a.68.68,0,1,1-.68-.64A.67.67,0,0,1,22.31,24.54Z"/><path class="cls-11" d="M21.73,23.2a.68.68,0,0,1-1.36,0,.68.68,0,0,1,1.36,0Z"/><path class="cls-11" d="M22.83,21a.68.68,0,0,1-1.36,0,.68.68,0,0,1,1.36,0Z"/></symbol><symbol id="Aster" data-name="Aster" viewBox="0 0 32.25 28.82"><rect class="cls-1" width="32.25" height="28.82"/><path class="cls-2" d="M17.29,15.42l.05-.05a2.8,2.8,0,0,1,0-.4S17.3,15.13,17.29,15.42Z"/><path class="cls-3" d="M18.18,11.58c-.35.58-.54.94-.54.94a55.44,55.44,0,0,1,7.1-5.71,33.74,33.74,0,0,0,2.39-4.09,11.88,11.88,0,0,0-2.55,1.43C23.64,6.09,21.49,9.81,18.18,11.58Z"/><path class="cls-4" d="M17.64,12.52a32,32,0,0,1,7.92-3.28,29.14,29.14,0,0,0,4-4.45,10.72,10.72,0,0,0-4.85,2A55.44,55.44,0,0,0,17.64,12.52Z"/><path class="cls-5" d="M17.64,12.52a3,3,0,0,0,.61.23c.61-.05,2.67-.2,5.05-.24a47.47,47.47,0,0,0,8.05-2.77c-1.48-1-3.63-1-5.79-.5A32,32,0,0,0,17.64,12.52Z"/><path class="cls-3" d="M18.25,12.75h-.19a2,2,0,0,0,.72,1,68.83,68.83,0,0,1,7.45,1,54,54,0,0,0,6-.79c-.87-1.29-5.27-1.5-8.95-1.44C20.92,12.55,18.86,12.7,18.25,12.75Z"/><path class="cls-4" d="M18.78,13.72l-.39,0a2.39,2.39,0,0,0,.39.74c1,.36,3.35,1.24,5.67,2.32a42.41,42.41,0,0,0,7.4.32c-.64-1.05-3-1.8-5.62-2.33A68.83,68.83,0,0,0,18.78,13.72Z"/><path class="cls-3" d="M18.78,14.43l-.49-.18.16.32a65.06,65.06,0,0,1,6.49,4.51A45.35,45.35,0,0,0,30.3,21c-.3-1.32-3.05-2.91-5.85-4.21C22.13,15.67,19.78,14.79,18.78,14.43Z"/><path class="cls-5" d="M18.45,14.57l-.52-.33a3.11,3.11,0,0,0,.17.94c.12.19.35.53.64,1,1.33,1.14,3.34,2.93,5,4.66a41.41,41.41,0,0,0,4.36,2.46c.34-1-1.19-2.61-3.15-4.21A65.06,65.06,0,0,0,18.45,14.57Z"/><path class="cls-4" d="M17.92,15.71c0-.08,0-.15,0-.23l-.09-.08C17.86,15.48,17.88,15.58,17.92,15.71Z"/><path class="cls-4" d="M17.34,15.37l.08-.09s0,.12,0,.32l.21-.35L17.31,15A2.8,2.8,0,0,0,17.34,15.37Z"/><path class="cls-3" d="M18.74,16.17A63.74,63.74,0,0,1,22,21.79a40.54,40.54,0,0,0,4.53,3.38c.24-.84-1.08-2.56-2.78-4.34S20.07,17.31,18.74,16.17Z"/><path class="cls-4" d="M18.74,16.17c-.29-.46-.52-.8-.64-1L18,15c0,.15-.05.3-.07.45s0,.15,0,.23c.26,1,.82,3.17,1.32,5.46a28.66,28.66,0,0,0,4.23,6.14c.46-1-.36-3.24-1.49-5.52A63.74,63.74,0,0,0,18.74,16.17Z"/><path class="cls-4" d="M17.92,15.71c0-.13-.06-.23-.08-.31a2.74,2.74,0,0,1-.08-.3,1.3,1.3,0,0,0-.1.15l-.21.35a59.5,59.5,0,0,1,.37,8.14A33.8,33.8,0,0,0,20,28.82c.66-.48,0-4.2-.74-7.65C18.74,18.88,18.18,16.72,17.92,15.71Z"/><path class="cls-3" d="M17.45,15.6c0-.2,0-.32,0-.32l-.08.09-.05.05A93.4,93.4,0,0,1,16,26.23c.24,1,.46,1.61.46,1.61.87-.18,1.23-1.94,1.33-4.1A59.5,59.5,0,0,0,17.45,15.6Z"/><path class="cls-5" d="M17.29,15.42c0-.29,0-.45,0-.45a5.15,5.15,0,0,0-.86.76c-.26,1.27-1.12,5.19-2.14,8.35a28.12,28.12,0,0,0,.57,4.64c.44,0,.82-1,1.15-2.49A93.4,93.4,0,0,0,17.29,15.42Z"/><path class="cls-4" d="M16.45,15.73c.06-.27.09-.43.09-.43a55.57,55.57,0,0,1-4.32,9.27,23.34,23.34,0,0,0-.32,3.87c.77,0,1.64-2,2.41-4.36C15.33,20.92,16.19,17,16.45,15.73Z"/><path class="cls-4" d="M16.54,15.3a4,4,0,0,0-1.26.7c-1,2-3.39,6.62-5.46,9C9.29,26.29,9,27.22,9,27.22c1,.26,2.14-.93,3.24-2.65A55.57,55.57,0,0,0,16.54,15.3Z"/><path class="cls-3" d="M15.28,16c.28-.56.44-.9.44-.9a7.21,7.21,0,0,0-1.09.51A33.09,33.09,0,0,1,8.36,24a23.48,23.48,0,0,0-.8,2.26c.6.22,1.4-.35,2.26-1.31C11.89,22.62,14.31,18,15.28,16Z"/><path class="cls-3" d="M14.63,15.61c.33-.62.51-1,.51-1a63.79,63.79,0,0,1-7.66,7.09A44.13,44.13,0,0,0,5.12,26.1,11.16,11.16,0,0,0,8.36,24,33.09,33.09,0,0,0,14.63,15.61Z"/><path class="cls-4" d="M15.14,14.62A4.66,4.66,0,0,0,14,14.56a45.47,45.47,0,0,1-6.7,3.79A36.58,36.58,0,0,0,2.66,24c1.29,0,3-1,4.82-2.32A63.79,63.79,0,0,0,15.14,14.62Z"/><path class="cls-5" d="M14,14.56l.42-.29s-3.48.78-7,1.2A50.9,50.9,0,0,0,.9,19.08c1.4,1,3.92.35,6.42-.73A45.47,45.47,0,0,0,14,14.56Z"/><path class="cls-4" d="M7.4,15.47c3.56-.42,7-1.2,7-1.2a1.65,1.65,0,0,0-.31-.53,66.17,66.17,0,0,1-8.87-.29C2.4,14.07,0,14.87,0,14.87.74,16,4.11,15.87,7.4,15.47Z"/><path class="cls-3" d="M14.13,13.74l.53,0a2.18,2.18,0,0,0-.45-.78l-.71-.33a4.61,4.61,0,0,1,.46.77,64.94,64.94,0,0,1-7-2.16,48,48,0,0,0-6.61.53c.56.91,2.54,1.42,4.86,1.7A66.17,66.17,0,0,0,14.13,13.74Z"/><path class="cls-5" d="M14,13.38a4.61,4.61,0,0,0-.46-.77A53,53,0,0,1,6.78,8.82,31.71,31.71,0,0,0,2,7.86c.27,1.2,2.56,2.39,5.06,3.36A64.94,64.94,0,0,0,14,13.38Z"/><path class="cls-4" d="M13.5,12.61l.71.33.26.12A3.09,3.09,0,0,0,14.22,12,59.84,59.84,0,0,1,8,7.06,37.08,37.08,0,0,0,4.16,5.52c-.31.89.92,2.11,2.62,3.3A53,53,0,0,0,13.5,12.61Z"/><path class="cls-3" d="M14.22,12l.59.41a3.31,3.31,0,0,0-.13-.93A53.06,53.06,0,0,1,10.9,6.8,32.31,32.31,0,0,0,5.74,3.65C5.53,4.41,6.57,5.7,8,7.06A59.84,59.84,0,0,0,14.22,12Z"/><path class="cls-5" d="M14.68,11.43l.35.38S13.83,8.56,13,5.46A21.36,21.36,0,0,0,8.78,1.51c-.5,1.11.66,3.24,2.12,5.29A53.06,53.06,0,0,0,14.68,11.43Z"/><path class="cls-4" d="M15,11.81a3.83,3.83,0,0,0,.42-.73,47.49,47.49,0,0,1-1.09-7.62A25,25,0,0,0,12.27,0c-.57.41-.06,2.88.68,5.46C13.83,8.56,15,11.81,15,11.81Z"/><path class="cls-3" d="M15.45,11.08c.06.26.09.42.09.42a69.1,69.1,0,0,1,.77-9.22A16.63,16.63,0,0,0,15.37.14c-.82.16-1,1.56-1,3.32A47.49,47.49,0,0,0,15.45,11.08Z"/><path class="cls-4" d="M15.54,11.5a6.37,6.37,0,0,0,.73-.61A64.86,64.86,0,0,1,18.2,3.77,17.29,17.29,0,0,0,17.38.1c-.46,0-.81.87-1.07,2.18A69.1,69.1,0,0,0,15.54,11.5Z"/><path class="cls-3" d="M16.27,10.89c-.11.52-.17.83-.17.83a42.19,42.19,0,0,1,4-8A15,15,0,0,0,20.35.38c-.72,0-1.48,1.5-2.15,3.39A64.86,64.86,0,0,0,16.27,10.89Z"/><path class="cls-4" d="M16.1,11.72a5.07,5.07,0,0,0,1.66-1,33.57,33.57,0,0,1,4.33-6.33c.75-1.6,1.18-2.82,1.18-2.82-1-.26-2.09.73-3.13,2.17A42.19,42.19,0,0,0,16.1,11.72Z"/><path class="cls-5" d="M17.76,10.75c-.44.8-.7,1.33-.7,1.33a8.67,8.67,0,0,0,1.12-.5c3.31-1.77,5.46-5.49,6.4-7.43a13.37,13.37,0,0,0,.55-1.23c-.89-.31-2,.38-3,1.5A33.57,33.57,0,0,0,17.76,10.75Z"/><polygon class="cls-6" points="20.27 13.51 18.68 14.11 19.87 15.31 18.3 15 19.21 16.32 17.79 15.57 18.3 17.09 16.97 16.05 16.92 17.66 16.21 16.21 16.03 17.75 15.43 16.15 14.22 17.35 14.54 15.77 13.22 16.69 13.85 15.12 12.29 15.53 13.48 14.45 11.88 14.41 13.32 13.7 11.78 13.51 13.38 12.9 12.19 11.7 13.76 12.02 12.85 10.7 14.42 11.32 14.01 9.77 15.09 10.96 15.13 9.36 15.84 10.8 16.03 9.26 16.63 10.86 17.84 9.66 17.52 11.24 18.84 10.33 18.1 11.75 19.77 11.49 18.58 12.57 20.18 12.62 18.74 13.32 20.27 13.51"/><polygon class="cls-7" points="18.93 13.45 18.04 14.3 18.26 15.31 17.24 15.27 16.86 16.23 16.03 15.64 14.9 16.12 14.63 15.13 13.47 14.81 13.88 13.88 13.13 13.45 14.02 12.59 13.81 11.58 15.01 11.51 15.46 10.6 16.03 11.26 17.18 10.78 17.44 11.77 18.6 12.1 18.18 13.03 18.93 13.45"/></symbol></defs><title>background</title><g id="Layer_2" data-name="Layer 2"><g id="background"><rect class="cls-20" x="0.5" y="0.5" width="1601" height="547" rx="12" ry="12"/><use id="background-2" data-name="background" width="28.9" height="44.07" transform="translate(891 585) scale(0.66 0.68)" xlink:href="#Grass_1"/><use id="background-3" data-name="background" width="35" height="60.43" transform="translate(1188 583) scale(0.34 0.4)" xlink:href="#Grass_3"/><use id="background-4" data-name="background" width="35" height="60.43" transform="translate(1265 580) scale(0.34 0.4)" xlink:href="#Grass_3"/><use id="background-5" data-name="background" width="35" height="60.43" transform="translate(1381 587) scale(0.34 0.4)" xlink:href="#Grass_3"/><use id="background-6" data-name="background" width="35" height="60.43" transform="translate(37 591.99) scale(0.54 0.23)" xlink:href="#Grass_3"/><use id="background-7" data-name="background" width="35" height="60.43" transform="translate(62 592) scale(0.54 0.23)" xlink:href="#Grass_3"/><use id="background-8" data-name="background" width="35" height="60.43" transform="translate(71 600) scale(0.54 0.23)" xlink:href="#Grass_3"/><use id="background-9" data-name="background" width="35" height="60.43" transform="translate(51 599) scale(0.54 0.23)" xlink:href="#Grass_3"/><use id="background-10" data-name="background" width="47.36" height="47.37" transform="translate(1234 598) scale(0.3 0.15)" xlink:href="#Daisy"/><use id="background-11" data-name="background" width="47.36" height="47.37" transform="translate(96 600) scale(0.3 0.15)" xlink:href="#Daisy"/><use id="background-12" data-name="background" width="32.25" height="28.82" transform="translate(1397 600) scale(0.43 0.45)" xlink:href="#Aster"/><rect id="background-13" data-name="background" class="cls-21" x="1" y="598" width="1601" height="30" rx="12" ry="12"/><polygon class="cls-22" points="324.5 521.83 324.5 524.92 324.5 533.18 314.5 533.18 304.5 533.18 304.5 572.42 295.5 572.42 286.5 572.42 286.5 582.75 268.5 582.75 268.5 606.5 595.5 605.47 595.5 540.41 568.5 540.41 568.5 439.22 523.5 439.22 523.5 540.41 498.5 540.41 498.5 359.71 462.5 359.71 462.5 344.22 443.5 344.22 442.5 291.55 437.5 291.55 437.5 274 434.5 274 434.5 291.55 422.5 291.55 422.5 309.11 402.5 309.11 402.5 413.4 384.5 413.4 384.5 457.8 376.5 457.8 324.5 521.83"/><polygon class="cls-22" points="837.5 606.5 835.25 276.5 819.53 276.5 819.53 261.5 807.17 261.5 807.17 249.5 803.8 249.5 803.8 261.5 770.11 261.5 770.11 276.5 725.17 276.5 725.17 520.5 703.83 520.5 702.71 412.5 669.01 411.5 669.01 284.5 662.27 284.5 662.27 267.5 655.53 267.5 655.53 284.5 596 284.5 596 491.5 596 605.5 837.5 606.5"/><polygon class="cls-22" points="214.5 604.5 212.51 178.83 198.61 178.83 198.61 159.48 187.69 159.48 187.69 144 184.71 144 184.71 159.48 154.92 159.48 154.92 178.83 115.2 178.83 115.2 493.57 96.33 493.57 95.34 354.26 65.55 352.97 65.55 189.15 59.59 189.15 59.59 167.22 53.63 167.22 53.63 189.15 1 189.15 1 456.16 1 603.21 214.5 604.5"/><polygon class="cls-22" points="1602 604.5 1599.64 163.11 1583.13 163.11 1583.13 143.05 1570.16 143.05 1570.16 127 1566.63 127 1566.63 143.05 1531.26 143.05 1531.26 163.11 1484.09 163.11 1484.09 489.47 1461.69 489.47 1460.51 345.02 1425.14 343.68 1425.14 173.81 1418.07 173.81 1418.07 151.08 1410.99 151.08 1410.99 173.81 1348.5 173.81 1348.5 450.68 1348.5 603.16 1602 604.5"/><polygon class="cls-22" points="1012 607.5 1006.64 598.5 986.29 564.35 970.86 564.35 970.86 546.18 960.58 546.18 960.58 488.84 960.58 446.25 952.35 446.25 952.35 419 949.27 419 949.27 446.25 921.5 446.25 921.5 529.15 921.5 607.5 1012 607.5"/><polygon class="cls-22" points="1363 606 1330.9 541.9 1311.64 541.9 1311.64 514.92 1298.8 514.92 1298.8 429.74 1298.8 366.48 1288.52 366.48 1288.52 326 1284.67 326 1284.67 366.48 1250 366.48 1250 489.61 1250 606 1363 606"/><polygon class="cls-22" points="1092 558 1092 540 1076 540 1076 486 1056 486 1056 467 1040 467 1040 487 1013 487 1013 548 1013 607 1010 607 1092 607 1092 558"/><polygon class="cls-22" points="1109.5 556.5 1165.67 556.5 1165.67 606.5 1091.5 606.5 1091.5 605 1091.5 556.5 1109.5 556.5"/><polygon class="cls-22" points="1375.5 555.5 1431.67 555.5 1431.67 605.5 1357.5 605.5 1357.5 604 1357.5 555.5 1375.5 555.5"/><polygon class="cls-23" points="1431.5 390.36 1431.5 373.7 1483.05 373.7 1483.05 354 1498.91 354 1506.84 591.86 1536.58 591.86 1540.54 458.54 1602 458.54 1602 605.5 1431.5 605.5 1431.5 390.36"/><polygon class="cls-22" points="1164.5 428.07 1164.5 414.29 1190.5 414.29 1190.5 398 1198.5 398 1202.5 594.72 1217.5 594.72 1219.5 484.46 1250.5 484.46 1250.5 606 1164.5 606 1164.5 428.07"/><polygon class="cls-24" points="180.67 606.5 180.67 575.31 199.83 575.31 199.83 564.63 216.67 564.63 215.83 523.28 239.67 523.28 239.67 369.58 321.67 369.58 321.67 285.84 343.67 285.84 343.67 268.95 352.67 268.95 352.67 250 357.67 250 357.67 268.26 363 268.26 363 323.06 384.67 322.71 384.67 340.63 403.5 340.63 403.5 413.17 385.5 413.17 385.5 457.63 376 457.8 325.5 521.73 325.5 533.1 305.5 533.1 305.5 572.38 287.5 572.38 287.5 582.72 269.5 582.72 269.5 606.5 180.67 606.5"/><polygon class="cls-24" points="1165 401.55 1157.46 401.55 1132.31 380.45 1127.28 369.49 1127.28 384.1 1119.46 401.96 1108.84 401.96 1108.84 552.5 1108 560.01 1165 560.01 1165 401.55"/><polygon class="cls-24" points="1109.5 427.33 1105 427.33 1090 410 1087 401 1087 413 1082.33 427.67 1076 427.67 1076 551.33 1075.5 557.5 1109.5 557.5 1109.5 427.33"/><polyline class="cls-24" points="921.5 518.5 921.5 607.5 837.5 606.5 837.5 518.33 848.67 518.33 848.67 410.33 874 410.33 874 518.33 887.33 518.33 887.33 352.67 907.33 352.67 918.33 335.33 918.33 277.5 921.5 277.5 927 297 939 297 939 443.5 921.5 443.5 921.5 466.5"/><polygon class="cls-22" points="1004 595 1013 595 1013 607 1008.1 607 1004 595"/><rect class="cls-22" x="590" y="592" width="16" height="10"/><polygon class="cls-22" points="950 540 1026 540 1026 598 951.33 598 950 540"/><polygon class="cls-22" points="1198 544 1223 544 1222 598 1198.17 598.2 1198 544"/><polygon class="cls-22" points="1329 546 1353 546 1351 586 1329 546"/></g></g></svg>
