<svg xmlns="http://www.w3.org/2000/svg" viewBox="0 0 83.96 48.27"><defs><style>.cls-1{fill:#f9c;}.cls-1,.cls-4{stroke:#dd992a;stroke-miterlimit:10;}.cls-2,.cls-4{fill:#dd992a;}.cls-3{fill:#bc8028;}.cls-5{fill:#050502;}.cls-6{fill:#070706;}</style></defs><title>cat</title><g id="Layer_2" data-name="Layer 2"><g id="cat"><path class="cls-1" d="M61.46,16.92h7s-4-6-4-7S60.46,16.92,61.46,16.92Z"/><rect class="cls-2" x="23.96" y="16.42" width="60" height="25" rx="11.5" ry="11.5"/><rect class="cls-3" x="38.96" y="41.42" width="8" height="4" rx="2" ry="2" transform="translate(25.31 -15.05) rotate(27.9)"/><rect class="cls-4" x="60.96" y="42.42" width="8" height="4" rx="2" ry="2" transform="translate(46.94 -32.18) rotate(42.4)"/><rect class="cls-3" x="70.96" y="41.42" width="8" height="4" rx="2" ry="2" transform="translate(42.37 -36.84) rotate(37.82)"/><rect class="cls-4" x="29.96" y="41.42" width="8" height="4" rx="2" ry="2" transform="translate(26.26 -11.16) rotate(30)"/><path class="cls-2" d="M24.47,25.05a20.45,20.45,0,0,0-3.64-1.63,13.14,13.14,0,0,1-2-.66,6.07,6.07,0,0,1-1.54-1.18,6.21,6.21,0,0,1-1.5-2.13,14,14,0,0,1-.52-2.58,20.36,20.36,0,0,1-.68-3.68,21.79,21.79,0,0,1,.48-3,8,8,0,0,0-1.83-6.41A6.89,6.89,0,0,0,7.07,1.52,6.1,6.1,0,0,0,2.25,5.9,10.22,10.22,0,0,0,2,7.65c-.09,1.28-.13,2.57-.12,3.85a13.47,13.47,0,0,0,.33,3.41c.68,2.69,2.67,4.82,4.52,6.89a6.26,6.26,0,0,1,.72.91c.16.29.28.59.43.88a8.65,8.65,0,0,0,2.45,2.63,9.51,9.51,0,0,0,2.36,1.52,8.58,8.58,0,0,0,2.75.51c3,.17,6-.2,8.87.4"/><path class="cls-2" d="M25.23,23.75c-1.49-.77-3-1.26-4.5-1.92-2.79-1.21-3.47-3.19-4.13-6-.84-3.54.78-7-.64-10.49C13.77,0,6.36-2.09,2.35,2.6-2.07,7.77.4,16.65,4.3,21.28c2.09,2.48,3.55,5.35,6.42,7.08,3.93,2.36,8.87,1.1,13.21,1.74,1.88.27,2.7-2.62.79-2.9-2.8-.41-5.56-.17-8.37-.42-4.29-.4-5.48-2.11-7.82-5.13-1.76-2.26-4.09-4.27-4.86-7.14-.24-.92-.69-5.67-.15-6.86L9.39,3.1q3.46,1,3.84,4.13c.72,2.5-.29,4.84,0,7.39a21.1,21.1,0,0,0,1.25,5.59c1.81,4,5.72,4.33,9.21,6.13,1.71.89,3.23-1.7,1.51-2.59Z"/><path class="cls-1" d="M71.05,17.47l5.94.86S74.74,13,75.88,12.11,70.21,16.33,71.05,17.47Z"/><circle class="cls-5" cx="65.96" cy="22.42" r="1"/><circle class="cls-6" cx="75.96" cy="22.42" r="1"/><polygon class="cls-5" points="70.96 27.42 71.96 25.42 72.96 27.42 70.96 27.42"/></g></g></svg>
