<svg xmlns="http://www.w3.org/2000/svg" viewBox="0 0 1437.61 199.41"><defs><style>.cls-1{fill:#d37520;}.cls-2{fill:#efcdb1;}</style></defs><title>clouds</title><g id="Layer_2" data-name="Layer 2"><g id="clouds"><path class="cls-1" d="M9.14,48.41h107s26-29-19-31-54,15-54,15-25-37-34-15S-5.86,39.41,9.14,48.41Z"/><path class="cls-2" d="M7.62,63.41H96.9s21.7-23.66-15.85-25.3S36,50.36,36,50.36,15.13,20.16,7.62,38.11-4.89,56.07,7.62,63.41Z"/><path class="cls-1" d="M1323.14,38.41h107s26-29-19-31-54,15-54,15-25-37-34-15S1308.14,29.41,1323.14,38.41Z"/><path class="cls-2" d="M1321.62,53.41h89.28s21.7-23.66-15.85-25.3S1350,40.36,1350,40.36s-20.86-30.2-28.37-12.25S1309.11,46.07,1321.62,53.41Z"/><path class="cls-1" d="M252.64,134.41h58s30-27-9-28c0,0-2-33-24-13,0,0-9-13-20-3s-4,20-4,20S226.64,120.41,252.64,134.41Z"/><path class="cls-2" d="M227,158.41H276.7s25.7-22.32-7.71-23.14c0,0-1.71-27.28-20.56-10.75,0,0-7.71-10.75-17.13-2.48s-3.43,16.53-3.43,16.53S204.74,146.84,227,158.41Z"/><path class="cls-1" d="M1145.64,175.41h58s30-27-9-28c0,0-2-33-24-13,0,0-9-13-20-3s-4,20-4,20S1119.64,161.41,1145.64,175.41Z"/><path class="cls-2" d="M1120,199.41h49.68s25.7-22.32-7.71-23.14c0,0-1.71-27.28-20.56-10.75,0,0-7.71-10.75-17.13-2.48s-3.43,16.53-3.43,16.53S1097.74,187.84,1120,199.41Z"/><path class="cls-1" d="M1078.64,63.41h-54s-23-8-19-20,16-17,16-17,4-15,19,0c0,0,13-25,22-1,0,0,16-14,16,9,0,0,12-9,14,5S1087.64,63.41,1078.64,63.41Z"/><path class="cls-2" d="M1065.36,82.41H1021s-18.89-6.21-15.6-15.52,13.14-13.2,13.14-13.2,3.28-11.65,15.6,0c0,0,10.68-19.41,18.07-.78,0,0,13.15-10.87,13.15,7,0,0,9.85-7,11.49,3.88S1072.75,82.41,1065.36,82.41Z"/><path class="cls-1" d="M626.64,48.41h-54s-23-8-19-20,16-17,16-17,4-15,19,0c0,0,13-25,22-1,0,0,16-14,16,9,0,0,12-9,14,5S635.64,48.41,626.64,48.41Z"/><path class="cls-2" d="M613.36,67.41H569s-18.89-6.21-15.6-15.52,13.14-13.2,13.14-13.2,3.28-11.65,15.6,0c0,0,10.68-19.41,18.07-.78,0,0,13.15-10.87,13.15,7,0,0,9.85-7,11.49,3.88S620.75,67.41,613.36,67.41Z"/></g></g></svg>
