<svg xmlns="http://www.w3.org/2000/svg" viewBox="0 0 107 83"><defs><style>.cls-1{fill:#a27d31;}.cls-2{fill:#4f310c;}.cls-3{fill:#885c15;}.cls-4{fill:#83530c;}.cls-5{fill:#060a05;}</style></defs><title>dog</title><g id="Layer_2" data-name="Layer 2"><g id="dog"><g id="human"><path class="cls-1" d="M53,28H82S99,18,87,0c0,0,19,8,4,31h0s7,15,6,18,8,15,8,15l2,17H99s-3-2,2-4l-1-8-5-5s-3-1-6-10c0,0-7-5-14-3a119,119,0,0,1-17,3s-13,1-9,5L47,83H39s-1-2,4-4L41,64s-5-9-9-12-9-10-9-18L15,22S2,23,0,14V10H9l3-4h7s7,1,9,3,7,13,9,15c.61.61,2.31,1.21,4.4,1.76C46.2,27,53,28,53,28Z"/><path class="cls-2" d="M79.79,31S71,59.48,42.7,29.81C42.7,29.81,68,35.27,79.79,31Z"/><path class="cls-3" d="M75,50s7,12,10,12,3,11,3,11-5,1-4,4h8s2-5,2-15S79,48,75,50Z"/><path class="cls-3" d="M41,67l-.13.58L38,80s-8,1-7-2,4-1,4-3V55s7,6,6,12"/><path class="cls-4" d="M29,11S18,12,16,21s-5,16,7,12S28,13,29,11Z"/><path class="cls-5" d="M14,10a2.19,2.19,0,0,0-3-1C9,10,13,12,14,10Z"/><path d="M1,14V11S3,10,1,14Z"/></g></g></g></svg>
