<svg xmlns="http://www.w3.org/2000/svg" xmlns:xlink="http://www.w3.org/1999/xlink" viewBox="0 0 1601 287"><defs><style>.cls-1{fill:none;}.cls-2{fill:#ded8c1;}.cls-3{fill:#faf6e8;}.cls-4{fill:#fff;}.cls-5{fill:#c19955;}.cls-6{fill:#f8c46f;}.cls-7{fill:#69ae2b;}.cls-8{fill:#009635;}.cls-9{fill:#007d2b;}.cls-10{fill:#006a2c;}.cls-11{fill:#158b2f;}.cls-12{fill:#85bb25;}.cls-13{fill:#13a438;}.cls-14{fill:#148b1c;}.cls-15{fill:#3cd226;}.cls-16{fill:#724e1f;}</style><symbol id="Grass_1" data-name="Grass 1" viewBox="0 0 28.9 44.07"><path class="cls-7" d="M13.49,40.74S18.23,25.17,11.39,0C23.73,22.34,15.9,36,13.49,40.74Z"/><path class="cls-8" d="M11.13,37.63S12.47,26,0,17.15c10.77,11.43,9,21,10.32,26.92Z"/><path class="cls-9" d="M19.72,39.82s-2.42-11.58,5.65-17A81.72,81.72,0,0,0,19.72,39.82Z"/><path class="cls-10" d="M22.13,40.11s-.16-7.89,4.92-9.73C28.07,29.56,25.57,35,22.13,40.11Z"/><path class="cls-9" d="M10.72,29s3.83-7.92-7.07-21.66C6.38,13.39,9.63,21.24,10.72,29Z"/><path class="cls-8" d="M19.62,25.76S20.15,6.4,28.9,3.48C23.87,11.7,22.54,16.21,19.62,25.76Z"/></symbol><symbol id="Grass_3" data-name="Grass 3" viewBox="0 0 35 60.43"><path class="cls-1" d="M9.66,0c3.32,4.71,7.2,9.14,10,14.41,7.21,13,5.82,27.43,2.22,41.56"/><path class="cls-11" d="M9.65,0c2.86,4.05,5.28,8.13,7.88,12.36S22.53,21,23.44,26c1.82,9.84-1,22.74-3.52,32.29-.3,1.13,2.51-.82,2.78-2,.93-3.85,4.41-16.82,1.76-29.65C22.31,16.27,15.69,8.36,9.67,0c0,0,0,0,0,0Z"/><path class="cls-1" d="M14.12,55.54C19.39,31,.61,43.82.27,17.58"/><path class="cls-12" d="M15.29,55.65c1.44-7,1.65-13.72-4.21-18.55C8.9,35.3,6.42,34.27,4.6,32,1.39,28,.71,22.55.53,17.6.38,13.24,0,13.18,0,17.55s.46,8.94,2.38,13a25,25,0,0,0,5.26,6.63c1.79,1.79,4,3.11,5.15,5.42,2,3.84,1,8.86.17,12.86-.31,1.48.35,3.38,2.33.22Z"/><path class="cls-1" d="M10.74,56.86c-2.23-13.94-5.28-34.41.65-47.1"/><path class="cls-13" d="M11.34,55c-1.24-7.7-2.16-13.69-2.8-21.47s-.26-16.38,3-23.73c.07-.17-.19-.26-.26-.1C7.93,16.91,7.55,25,7.52,32.79,7.5,40.92,8.79,49,10.07,57c.14.87,2.11.74,2-.13Z"/><path class="cls-1" d="M28.08,56.17c-5.91-16.34,4.34-24,6.78-29.21"/><path class="cls-13" d="M28.69,55.87c-2.13-6.12-2.47-12.81.19-18.83,1.59-3.62,4.44-6.48,6.11-10,.07-.16-.19-.25-.26-.09-1.94,3.83-5.06,6.92-6.95,10.83a21.25,21.25,0,0,0-1,17.68c.29.83,2.17,1.27,1.88.44Z"/><path class="cls-1" d="M17,58.78c-2.19-13.71,8.43-18,1.39-41"/><path class="cls-13" d="M18.51,58.11c-.91-6.1.34-10.7,1.64-16.52,1.79-8.05.36-18.3-2.06-26.11a21.39,21.39,0,0,0,.12,2.3c2.36,8.22,3.05,16.19.45,24.4C16.93,47.67,16.1,52.45,17,58.25c.13.87.42,2.84.28,2Z"/></symbol><symbol id="Daisy" data-name="Daisy" viewBox="0 0 47.36 47.37"><rect class="cls-1" x="2.26" y="2.08" width="43.01" height="43.1"/><path class="cls-2" d="M46,20.88c-3.74-2.09-14.34,1-18.07,2.18a6,6,0,0,1,.07.74,5.56,5.56,0,0,1-.08.82c12.77,3.57,18,.22,18,.22C49.16,22.92,46,20.88,46,20.88Z"/><path class="cls-3" d="M44,21.26c-3.32-1.73-12.74.82-16.06,1.8a4.07,4.07,0,0,1,.06.61,3.73,3.73,0,0,1-.07.68c11.36,3,16,.19,16,.19C46.8,23,44,21.26,44,21.26Z"/><path class="cls-4" d="M43.3,22.48c-3.19-.86-12.23.4-15.41.89a1.07,1.07,0,0,1,.06.3,1,1,0,0,1-.07.34c10.89,1.46,15.37.09,15.37.09C46,23.31,43.3,22.48,43.3,22.48Z"/><path class="cls-2" d="M37.49,6C33.37,7.14,28,16.8,26.23,20.28a6.06,6.06,0,0,1,.56.47,5.29,5.29,0,0,1,.53.64C38.89,14.9,40.24,8.83,40.24,8.83,41.2,5.17,37.49,6,37.49,6Z"/><path class="cls-3" d="M36.34,7.66c-3.58,1.12-8.46,9.58-10.11,12.62a4.22,4.22,0,0,1,.47.39,3.69,3.69,0,0,1,.43.53C37.26,15.28,38.61,10,38.61,10,39.54,6.85,36.34,7.66,36.34,7.66Z"/><path class="cls-4" d="M36.73,9c-2.86,1.64-8.37,8.91-10.29,11.5a1.2,1.2,0,0,1,.26.18,1.07,1.07,0,0,1,.19.28c8.75-6.65,11-10.78,11-10.78C39.25,7.66,36.73,9,36.73,9Z"/><path class="cls-2" d="M21,1.39c-2.11,3.74.93,14.35,2.1,18.09a4.42,4.42,0,0,1,.74-.07,5.56,5.56,0,0,1,.82.08c3.62-12.76.3-18,.3-18C23-1.79,21,1.39,21,1.39Z"/><path class="cls-3" d="M21.34,3.4c-1.74,3.32.77,12.75,1.74,16.08a4.07,4.07,0,0,1,.61-.06,3.73,3.73,0,0,1,.68.07c3-11.34.25-16,.25-16C23,.57,21.34,3.4,21.34,3.4Z"/><path class="cls-4" d="M22.56,4.06c-.87,3.19.35,12.23.83,15.42a1.07,1.07,0,0,1,.3-.06,1,1,0,0,1,.34.07c1.51-10.89.15-15.37.15-15.37C23.41,1.34,22.56,4.06,22.56,4.06Z"/><path class="cls-2" d="M6,9.8c1.14,4.13,10.78,9.51,14.25,11.33a5.08,5.08,0,0,1,.47-.57A7.67,7.67,0,0,1,21.4,20C15,8.44,8.9,7.06,8.9,7.06,5.24,6.09,6,9.8,6,9.8Z"/><path class="cls-3" d="M7.72,11c1.1,3.59,9.54,8.5,12.57,10.17a4.31,4.31,0,0,1,.39-.48,5.13,5.13,0,0,1,.53-.42C15.34,10.07,10.09,8.7,10.09,8.7,6.92,7.76,7.72,11,7.72,11Z"/><path class="cls-4" d="M9,10.57c1.63,2.88,8.88,8.42,11.47,10.34a1.45,1.45,0,0,1,.17-.26,1,1,0,0,1,.29-.18c-6.62-8.78-10.74-11-10.74-11C7.72,8.05,9,10.57,9,10.57Z"/><path class="cls-2" d="M1.38,26.3c3.73,2.12,14.35-.87,18.1-2a4.63,4.63,0,0,1-.07-.74,5.56,5.56,0,0,1,.09-.82c-12.75-3.68-18-.37-18-.37C-1.79,24.23,1.38,26.3,1.38,26.3Z"/><path class="cls-3" d="M3.4,25.94c3.31,1.76,12.75-.72,16.08-1.67a4.07,4.07,0,0,1-.06-.61A3.72,3.72,0,0,1,19.5,23c-11.34-3.05-16-.32-16-.32C.57,24.23,3.4,25.94,3.4,25.94Z"/><path class="cls-4" d="M4.06,24.72c3.18.89,12.23-.3,15.42-.76a1.07,1.07,0,0,1-.06-.3,1,1,0,0,1,.07-.34C8.61,21.77,4.12,23.1,4.12,23.1,1.34,23.87,4.06,24.72,4.06,24.72Z"/><path class="cls-2" d="M9.73,41.27c4.14-1.12,9.55-10.74,11.39-14.21a4.18,4.18,0,0,1-.57-.47A6.32,6.32,0,0,1,20,26C8.41,32.34,7,38.4,7,38.4,6,42.05,9.73,41.27,9.73,41.27Z"/><path class="cls-3" d="M10.9,39.6c3.59-1.09,8.53-9.51,10.22-12.54a3,3,0,0,1-.47-.39,3.12,3.12,0,0,1-.43-.53C10,32,8.64,37.22,8.64,37.22,7.69,40.38,10.9,39.6,10.9,39.6Z"/><path class="cls-4" d="M10.52,38.27C13.39,36.65,19,29.42,20.9,26.85a.88.88,0,0,1-.25-.18.87.87,0,0,1-.19-.28c-8.81,6.57-11,10.68-11,10.68C8,39.58,10.52,38.27,10.52,38.27Z"/><path class="cls-2" d="M26.21,46c2.14-3.71-.81-14.35-2-18.1a5.83,5.83,0,0,1-.73.06,5.3,5.3,0,0,1-.82-.08c-3.73,12.72-.45,18-.45,18C24.13,49.16,26.21,46,26.21,46Z"/><path class="cls-3" d="M25.86,44c1.77-3.3-.66-12.76-1.61-16.09a4.07,4.07,0,0,1-.61.06,5.05,5.05,0,0,1-.68-.08c-3.1,11.32-.38,16-.38,16C24.13,46.8,25.86,44,25.86,44Z"/><path class="cls-4" d="M24.65,43.31c.89-3.18-.26-12.23-.71-15.42a1.07,1.07,0,0,1-.3.06,1.94,1.94,0,0,1-.33-.07C21.71,38.75,23,43.24,23,43.24,23.78,46,24.65,43.31,24.65,43.31Z"/><path class="cls-2" d="M41.22,37.71c-1.11-4.14-10.71-9.6-14.16-11.44a6.2,6.2,0,0,1-.48.56,4.56,4.56,0,0,1-.65.51C32.27,39,38.33,40.43,38.33,40.43,42,41.42,41.22,37.71,41.22,37.71Z"/><path class="cls-3" d="M39.55,36.53C38.47,32.94,30.08,28,27.06,26.27a4.4,4.4,0,0,1-.4.46,3.64,3.64,0,0,1-.54.43c5.8,10.21,11,11.62,11,11.62C40.32,39.75,39.55,36.53,39.55,36.53Z"/><path class="cls-4" d="M38.22,36.91C36.61,34,29.41,28.43,26.84,26.48a.88.88,0,0,1-.18.25,1,1,0,0,1-.29.19C32.91,35.75,37,38,37,38,39.52,39.45,38.22,36.91,38.22,36.91Z"/><path class="cls-2" d="M44.24,32.48c-2.17-3.7-12.87-6.4-16.69-7.26a5.72,5.72,0,0,1-.32.66,4.76,4.76,0,0,1-.48.67C36,36.1,42.19,35.86,42.19,35.86,46,35.85,44.24,32.48,44.24,32.48Z"/><path class="cls-3" d="M42.32,31.78c-2-3.17-11.41-5.74-14.77-6.56a4.55,4.55,0,0,1-.26.55,5.66,5.66,0,0,1-.4.56c8.3,8.29,13.73,8.26,13.73,8.26C43.92,34.68,42.32,31.78,42.32,31.78Z"/><path class="cls-4" d="M41.14,32.5c-2.32-2.35-10.75-5.83-13.74-7a1.45,1.45,0,0,1-.11.29,1.13,1.13,0,0,1-.23.26c8.66,6.77,13.22,7.85,13.22,7.85C43.07,34.61,41.14,32.5,41.14,32.5Z"/><path class="cls-4" d="M41.14,32.5c-2.32-2.35-10.75-5.83-13.74-7a1.45,1.45,0,0,1-.11.29,1.13,1.13,0,0,1-.23.26c8.66,6.77,13.22,7.85,13.22,7.85C43.07,34.61,41.14,32.5,41.14,32.5Z"/><path class="cls-2" d="M42.88,11.8c-4.28-.3-12.56,7-15.43,9.66a5.07,5.07,0,0,1,.37.64,4.45,4.45,0,0,1,.28.77c13.08-2.2,16.41-7.46,16.41-7.46C46.64,12.28,42.88,11.8,42.88,11.8Z"/><path class="cls-3" d="M41.22,13c-3.75-.15-11.19,6.17-13.77,8.47a4.6,4.6,0,0,1,.31.53,3.77,3.77,0,0,1,.23.64C39.53,20.48,42.57,16,42.57,16,44.51,13.31,41.22,13,41.22,13Z"/><path class="cls-4" d="M41.15,14.37c-3.25.58-10.9,5.57-13.57,7.37a.88.88,0,0,1,.18.25,1.15,1.15,0,0,1,.09.33C38.33,19,41.79,15.86,41.79,15.86,44,14,41.15,14.37,41.15,14.37Z"/><path class="cls-2" d="M25.06,1.15c-2.71,3.32-1.54,14.29-1,18.18a3.66,3.66,0,0,1,.73.06,4.82,4.82,0,0,1,.79.22C31.33,7.65,29,1.9,29,1.9,27.63-1.64,25.06,1.15,25.06,1.15Z"/><path class="cls-3" d="M25.08,3.19c-2.29,3-1.42,12.69-1,16.14a4.26,4.26,0,0,1,.61,0,4.45,4.45,0,0,1,.65.19c4.9-10.66,3-15.74,3-15.74C27.24.69,25.08,3.19,25.08,3.19Z"/><path class="cls-4" d="M26.17,4.05c-1.41,3-1.75,12.11-1.82,15.33a1.58,1.58,0,0,1,.31,0,1.08,1.08,0,0,1,.32.13C28.32,9,27.76,4.38,27.76,4.38,27.47,1.51,26.17,4.05,26.17,4.05Z"/><path class="cls-2" d="M11.24,5.22c-.16,4.28,7.43,12.31,10.2,15.08a3.84,3.84,0,0,1,.62-.39,4.49,4.49,0,0,1,.76-.31c-2.66-13-8-16.14-8-16.14C11.59,1.45,11.24,5.22,11.24,5.22Z"/><path class="cls-3" d="M12.49,6.83c0,3.75,6.55,11,9,13.47A3,3,0,0,1,22,20a3.86,3.86,0,0,1,.64-.25C20,8.27,15.43,5.38,15.43,5.38,12.69,3.53,12.49,6.83,12.49,6.83Z"/><path class="cls-4" d="M13.87,6.86c.69,3.23,6,10.69,7.84,13.3A1.12,1.12,0,0,1,22,20a1.15,1.15,0,0,1,.33-.1C18.6,9.52,15.34,6.16,15.34,6.16,13.37,4.05,13.87,6.86,13.87,6.86Z"/><path class="cls-2" d="M3.42,16.24c2.41,3.55,13.27,5.54,17.14,6.14a4.37,4.37,0,0,1,.27-.68,5.46,5.46,0,0,1,.43-.7c-9.82-8.92-16-8.27-16-8.27C1.48,13,3.42,16.24,3.42,16.24Z"/><path class="cls-3" d="M5.39,16.8c2.19,3,11.76,5,15.17,5.58a3.34,3.34,0,0,1,.22-.57,3.47,3.47,0,0,1,.37-.57C12.31,13.51,6.9,13.9,6.9,13.9,3.6,14,5.39,16.8,5.39,16.8Z"/><path class="cls-4" d="M6.52,16c2.46,2.2,11.11,5.11,14.17,6.1a1.14,1.14,0,0,1,.09-.3,1,1,0,0,1,.21-.27c-9.09-6.18-13.7-7-13.7-7C4.45,14,6.52,16,6.52,16Z"/><path class="cls-2" d="M5.45,35c4.27.45,12.8-6.54,15.77-9.11a4.48,4.48,0,0,1-.35-.65,4.42,4.42,0,0,1-.25-.78C7.46,26.2,4,31.34,4,31.34,1.72,34.39,5.45,35,5.45,35Z"/><path class="cls-3" d="M7.15,33.87c3.74.29,11.4-5.76,14.07-8a4.54,4.54,0,0,1-.3-.53,4.15,4.15,0,0,1-.2-.66C9.12,26.45,5.91,30.84,5.91,30.84,3.88,33.44,7.15,33.87,7.15,33.87Z"/><path class="cls-4" d="M7.28,32.49c3.27-.46,11.08-5.17,13.81-6.87a1.38,1.38,0,0,1-.17-.25,1.28,1.28,0,0,1-.07-.34C10.26,28,6.69,31,6.69,31,4.44,32.79,7.28,32.49,7.28,32.49Z"/><path class="cls-2" d="M36.18,41.65c.15-4.29-7.45-12.29-10.22-15.07a4.09,4.09,0,0,1-.62.4,4.59,4.59,0,0,1-.77.31c2.69,13,8.07,16.12,8.07,16.12C35.84,45.42,36.18,41.65,36.18,41.65Z"/><path class="cls-3" d="M34.93,40c0-3.74-6.57-11-9-13.45a3.89,3.89,0,0,1-.52.34,4.86,4.86,0,0,1-.63.25C27.39,38.62,32,41.49,32,41.49,34.73,43.33,34.93,40,34.93,40Z"/><path class="cls-4" d="M33.55,40c-.7-3.23-6-10.68-7.86-13.28a1.18,1.18,0,0,1-.25.19.9.9,0,0,1-.32.09c3.69,10.36,7,13.7,7,13.7C34.05,42.82,33.55,40,33.55,40Z"/><path class="cls-4" d="M36.73,8.7c-2.85,1.68-8.28,9-10.16,11.63a1,1,0,0,1,.26.17,1.42,1.42,0,0,1,.2.28C35.7,14,37.85,9.87,37.85,9.87,39.23,7.34,36.73,8.7,36.73,8.7Z"/><path class="cls-4" d="M8.83,11.79c1.94,2.68,9.76,7.38,12.54,9a1.15,1.15,0,0,1,.14-.27,1.13,1.13,0,0,1,.27-.22c-7.55-8-11.89-9.75-11.89-9.75C7.24,9.43,8.83,11.79,8.83,11.79Z"/><path class="cls-4" d="M5.32,26.88c3.3.25,11.94-2.67,15-3.75a1,1,0,0,1-.12-.28,1.37,1.37,0,0,1,0-.35c-11,.6-15.11,2.78-15.11,2.78C2.49,26.57,5.32,26.88,5.32,26.88Z"/><path class="cls-4" d="M12.27,37.82c2.67-2,7.36-9.77,9-12.56a1.15,1.15,0,0,1-.27-.14,1.09,1.09,0,0,1-.22-.26c-8,7.55-9.73,11.9-9.73,11.9C9.9,39.41,12.27,37.82,12.27,37.82Z"/><path class="cls-4" d="M26.08,42.74c.61-3.25-1.34-12.16-2.07-15.3a.84.84,0,0,1-.63,0c-.63,11,1.07,15.33,1.07,15.33C25.45,45.52,26.08,42.74,26.08,42.74Z"/><polygon class="cls-5" points="28.46 22.98 27.43 21.13 26.55 19.71 24.32 18.94 23.62 19.33 22.79 19.1 20.83 20.03 19.5 20.89 18.61 23.08 18.81 23.66 18.91 24.62 20.06 26.36 20.82 27.58 23.09 28.43 23.62 28.41 24.6 27.87 26.67 27.49 27.5 26.23 28.51 24.43 28.48 23.66 28.46 22.98"/><polygon class="cls-6" points="27.83 23.08 26.52 21.84 26.39 20.06 24.34 19.51 23.72 20.78 23.04 19.94 21.58 20.91 20.03 21.16 19.19 23.14 19.89 23.66 19.95 24.42 21.24 25.49 21.3 27.05 23.25 27.94 23.72 27.78 24.39 26.44 26.46 27.13 26.7 25.6 28 24.34 27.74 23.66 27.83 23.08"/><path class="cls-5" d="M25.92,25a.68.68,0,0,1-1.35,0,.68.68,0,0,1,1.35,0Z"/><path class="cls-5" d="M26.6,24.52a.68.68,0,1,1-.68-.64A.66.66,0,0,1,26.6,24.52Z"/><path class="cls-5" d="M26.6,23.24a.68.68,0,1,1-.68-.64A.65.65,0,0,1,26.6,23.24Z"/><path class="cls-5" d="M25.7,21.32a.68.68,0,1,1-.68-.64A.66.66,0,0,1,25.7,21.32Z"/><path class="cls-5" d="M24.34,22.39a.68.68,0,0,1-1.36,0,.68.68,0,0,1,1.36,0Z"/><path class="cls-5" d="M24.34,24.1a.68.68,0,0,1-1.36,0,.68.68,0,0,1,1.36,0Z"/><path class="cls-5" d="M23.66,26a.68.68,0,1,1-.68-.64A.66.66,0,0,1,23.66,26Z"/><path class="cls-5" d="M22.31,24.54a.68.68,0,1,1-.68-.64A.67.67,0,0,1,22.31,24.54Z"/><path class="cls-5" d="M21.73,23.2a.68.68,0,0,1-1.36,0,.68.68,0,0,1,1.36,0Z"/><path class="cls-5" d="M22.83,21a.68.68,0,0,1-1.36,0,.68.68,0,0,1,1.36,0Z"/></symbol></defs><title>foreground</title><g id="Layer_2" data-name="Layer 2"><g id="foreground"><rect id="foreground-2" data-name="foreground" class="cls-14" y="176.5" width="1601" height="100.5" rx="12" ry="12"/><use id="foreground-3" data-name="foreground" width="28.9" height="44.07" transform="translate(549 204) scale(1 1.02)" xlink:href="#Grass_1"/><use id="foreground-4" data-name="foreground" width="28.9" height="44.07" transform="translate(580 211) scale(0.97 1)" xlink:href="#Grass_1"/><use id="foreground-5" data-name="foreground" width="28.9" height="44.07" transform="translate(601 212) scale(0.97 1)" xlink:href="#Grass_1"/><use id="foreground-6" data-name="foreground" width="28.9" height="44.07" transform="translate(606 232) scale(0.97 1)" xlink:href="#Grass_1"/><use id="foreground-7" data-name="foreground" width="28.9" height="44.07" transform="translate(595 243) scale(0.97 1)" xlink:href="#Grass_1"/><use id="foreground-8" data-name="foreground" width="28.9" height="44.07" transform="translate(567 216) scale(0.97 1)" xlink:href="#Grass_1"/><use id="foreground-9" data-name="foreground" width="28.9" height="44.07" transform="translate(555 234) scale(0.97 1)" xlink:href="#Grass_1"/><use id="foreground-10" data-name="foreground" width="28.9" height="44.07" transform="translate(571 238) scale(0.97 1)" xlink:href="#Grass_1"/><use id="foreground-11" data-name="foreground" width="28.9" height="44.07" transform="translate(591 224) scale(0.97 1)" xlink:href="#Grass_1"/><use id="foreground-12" data-name="foreground" width="28.9" height="44.07" transform="translate(790 187) scale(0.97 1)" xlink:href="#Grass_1"/><use id="foreground-13" data-name="foreground" width="28.9" height="44.07" transform="translate(805 200) scale(0.97 1)" xlink:href="#Grass_1"/><use id="foreground-14" data-name="foreground" width="28.9" height="44.07" transform="translate(1120 162) scale(0.97 1)" xlink:href="#Grass_1"/><use id="foreground-15" data-name="foreground" width="28.9" height="44.07" transform="translate(1144 167) scale(0.97 1)" xlink:href="#Grass_1"/><use id="foreground-16" data-name="foreground" width="28.9" height="44.07" transform="translate(1120 183) scale(0.97 1)" xlink:href="#Grass_1"/><use id="foreground-17" data-name="foreground" width="28.9" height="44.07" transform="translate(1371 216) scale(0.97 1)" xlink:href="#Grass_1"/><use id="foreground-18" data-name="foreground" width="28.9" height="44.07" transform="translate(1386 222) scale(0.97 1)" xlink:href="#Grass_1"/><use id="foreground-19" data-name="foreground" width="28.9" height="44.07" transform="translate(1391 207) scale(0.97 1)" xlink:href="#Grass_1"/><use id="foreground-20" data-name="foreground" width="28.9" height="44.07" transform="translate(1538 163) scale(0.97 1)" xlink:href="#Grass_1"/><use id="foreground-21" data-name="foreground" width="28.9" height="44.07" transform="translate(1535 168) scale(0.97 1)" xlink:href="#Grass_1"/><use id="foreground-22" data-name="foreground" width="28.9" height="44.07" transform="translate(1552 161) scale(0.97 1)" xlink:href="#Grass_1"/><use id="foreground-23" data-name="foreground" width="28.9" height="44.07" transform="translate(1556 171) scale(0.97 1)" xlink:href="#Grass_1"/><use id="foreground-24" data-name="foreground" width="28.9" height="44.07" transform="translate(841 199) scale(0.97 1)" xlink:href="#Grass_1"/><use id="foreground-25" data-name="foreground" width="28.9" height="44.07" transform="translate(824 182) scale(0.97 1)" xlink:href="#Grass_1"/><use id="foreground-26" data-name="foreground" width="28.9" height="44.07" transform="translate(821 197) scale(0.97 1)" xlink:href="#Grass_1"/><use id="foreground-27" data-name="foreground" width="28.9" height="44.07" transform="translate(800 200) scale(0.97 1)" xlink:href="#Grass_1"/><use id="foreground-28" data-name="foreground" width="28.9" height="44.07" transform="translate(776 186) scale(0.97 1)" xlink:href="#Grass_1"/><use id="foreground-29" data-name="foreground" width="28.9" height="44.07" transform="translate(782 200) scale(0.97 1)" xlink:href="#Grass_1"/><use id="foreground-30" data-name="foreground" width="28.9" height="44.07" transform="translate(345 205) scale(0.97 1)" xlink:href="#Grass_1"/><use id="foreground-31" data-name="foreground" width="28.9" height="44.07" transform="translate(365 199) scale(0.97 1)" xlink:href="#Grass_1"/><use id="foreground-32" data-name="foreground" width="28.9" height="44.07" transform="translate(416 146) scale(0.97 1)" xlink:href="#Grass_1"/><use id="foreground-33" data-name="foreground" width="28.9" height="44.07" transform="translate(396 142) scale(0.97 1)" xlink:href="#Grass_1"/><use id="foreground-34" data-name="foreground" width="28.9" height="44.07" transform="translate(377 143) scale(0.97 1)" xlink:href="#Grass_1"/><use id="foreground-35" data-name="foreground" width="28.9" height="44.07" transform="translate(429 141) scale(0.97 1)" xlink:href="#Grass_1"/><use id="foreground-36" data-name="foreground" width="28.9" height="44.07" transform="translate(322 218) scale(0.97 1)" xlink:href="#Grass_1"/><use id="foreground-37" data-name="foreground" width="28.9" height="44.07" transform="translate(319 211) scale(0.97 1)" xlink:href="#Grass_1"/><use id="foreground-38" data-name="foreground" width="28.9" height="44.07" transform="translate(305 221) scale(0.97 1)" xlink:href="#Grass_1"/><use id="foreground-39" data-name="foreground" width="28.9" height="44.07" transform="translate(285 212) scale(0.97 1)" xlink:href="#Grass_1"/><use id="foreground-40" data-name="foreground" width="28.9" height="44.07" transform="translate(285 198) scale(0.97 1)" xlink:href="#Grass_1"/><use id="foreground-41" data-name="foreground" width="28.9" height="44.07" transform="translate(331 203) scale(0.97 1)" xlink:href="#Grass_1"/><use id="foreground-42" data-name="foreground" width="28.9" height="44.07" transform="translate(313 184) scale(0.97 1)" xlink:href="#Grass_1"/><use id="foreground-43" data-name="foreground" width="28.9" height="44.07" transform="translate(324 188) scale(0.97 1)" xlink:href="#Grass_1"/><use id="foreground-44" data-name="foreground" width="35" height="60.43" transform="translate(1368 212) scale(1 0.99)" xlink:href="#Grass_3"/><use id="foreground-45" data-name="foreground" width="35" height="60.43" transform="translate(1134 170) scale(1 0.99)" xlink:href="#Grass_3"/><use id="foreground-46" data-name="foreground" width="35" height="60.43" transform="translate(1521 156) scale(1 0.99)" xlink:href="#Grass_3"/><use id="foreground-47" data-name="foreground" width="35" height="60.43" transform="translate(1545 163) scale(1 0.99)" xlink:href="#Grass_3"/><use id="foreground-48" data-name="foreground" width="35" height="60.43" transform="translate(573 214) scale(1 0.99)" xlink:href="#Grass_3"/><use id="foreground-49" data-name="foreground" width="35" height="60.43" transform="translate(119 214) scale(1 0.99)" xlink:href="#Grass_3"/><use id="foreground-50" data-name="foreground" width="35" height="60.43" transform="translate(140 215) scale(1 0.99)" xlink:href="#Grass_3"/><use id="foreground-51" data-name="foreground" width="35" height="60.43" transform="translate(129 221) scale(1 0.99)" xlink:href="#Grass_3"/><use id="foreground-52" data-name="foreground" width="47.36" height="47.37" transform="translate(1274 241) scale(0.3 0.15)" xlink:href="#Daisy"/><use id="foreground-53" data-name="foreground" width="47.36" height="47.37" transform="translate(1228 265.86) scale(0.3 0.15)" xlink:href="#Daisy"/><use id="foreground-54" data-name="foreground" width="47.36" height="47.37" transform="translate(1190 236) scale(0.3 0.15)" xlink:href="#Daisy"/><use id="foreground-55" data-name="foreground" width="47.36" height="47.37" transform="translate(932 262) scale(0.3 0.15)" xlink:href="#Daisy"/><use id="foreground-56" data-name="foreground" width="47.36" height="47.37" transform="translate(814 234) scale(0.3 0.15)" xlink:href="#Daisy"/><use id="foreground-57" data-name="foreground" width="47.36" height="47.37" transform="translate(385 267) scale(0.3 0.15)" xlink:href="#Daisy"/><use id="foreground-58" data-name="foreground" width="47.36" height="47.37" transform="translate(398 261) scale(0.3 0.15)" xlink:href="#Daisy"/><use id="foreground-59" data-name="foreground" width="47.36" height="47.37" transform="translate(353 265) scale(0.3 0.15)" xlink:href="#Daisy"/><use id="foreground-60" data-name="foreground" width="47.36" height="47.37" transform="translate(52 202) scale(0.3 0.15)" xlink:href="#Daisy"/><use id="foreground-61" data-name="foreground" width="47.36" height="47.37" transform="translate(44 216) scale(0.3 0.15)" xlink:href="#Daisy"/><use id="foreground-62" data-name="foreground" width="47.36" height="47.37" transform="translate(934 245) scale(0.3 0.15)" xlink:href="#Daisy"/><use id="foreground-63" data-name="foreground" width="47.36" height="47.37" transform="translate(1328 231) scale(0.3 0.15)" xlink:href="#Daisy"/><use id="foreground-64" data-name="foreground" width="47.36" height="47.37" transform="translate(967 258) scale(0.3 0.15)" xlink:href="#Daisy"/><ellipse id="fore" class="cls-15" cx="1009" cy="223" rx="12" ry="14"/><ellipse id="fore-2" data-name="fore" class="cls-15" cx="1024" cy="150" rx="47" ry="46"/><polygon id="fore-3" data-name="fore" class="cls-16" points="1031 273 1026 273 1025 229 1009 222 1009 220 1024 226 1026 167 1010 144 1026 163 1027 147 1029 147 1028 181 1034 174 1029 185 1031 273"/><polygon id="middle" class="cls-16" points="1267 223 1264 223 1264 194 1262 190 1264 192 1264 189 1266 189 1266 197 1269 195 1266 198 1267 223"/><ellipse id="middleground" class="cls-15" cx="1265.5" cy="180.5" rx="12.5" ry="13.5"/><ellipse id="middle-2" data-name="middle" class="cls-15" cx="164" cy="59" rx="58" ry="59"/><polygon id="middle-3" data-name="middle" class="cls-16" points="166 199 159 199 160 104 145 90 159 101 160 54 163 54 163 88 185 80 185 81 163 91 166 199"/></g></g></svg>
