<svg xmlns="http://www.w3.org/2000/svg" xmlns:xlink="http://www.w3.org/1999/xlink" viewBox="0 0 1723 487"><defs><style>.cls-1{fill:none;}.cls-2{fill:#7eb329;}.cls-3{fill:#6a7ebc;}.cls-4{fill:#808ac3;}.cls-5{fill:#8396cc;}.cls-6{fill:#e9bd00;}.cls-7{fill:#fdd557;}.cls-8{fill:#8baba2;}.cls-9{fill:#5c907e;}.cls-10{fill:#618d7a;}.cls-11{fill:#e1ccd7;}.cls-12{fill:#dfb9cc;}.cls-13{fill:#c698aa;}.cls-14{fill:#ae7c8c;}.cls-15{fill:#986172;}.cls-16{fill:#82485a;}.cls-17{fill:#d6a354;}.cls-18{fill:#b27d49;}.cls-19{fill:#935b3d;}.cls-20{fill:#773d31;}.cls-21{fill:#5e2425;}.cls-22{fill:#f1e2ea;}.cls-23{fill:#69ae2b;}.cls-24{fill:#009635;}.cls-25{fill:#007d2b;}.cls-26{fill:#006a2c;}.cls-27{fill:#158b2f;}.cls-28{fill:#85bb25;}.cls-29{fill:#13a438;}.cls-30{fill:#13a538;}.cls-31{fill:#86bc25;}.cls-32{fill:#158c2f;}.cls-33{fill:#b2b484;}.cls-34{fill:#61b445;}.cls-35{fill:#724e1f;}.cls-36{fill:#3cd226;}.cls-37{fill:#1b8108;}.cls-38{fill:#7f6309;}.cls-39{fill:#927e42;}.cls-40{fill:#595857;}.cls-41{fill:#f3e640;}.cls-42{fill:#6d6d64;}.cls-43{fill:#494946;}.cls-44{fill:#f0f7f7;}.cls-45{fill:#ddb252;}.cls-46{fill:#d34444;}.cls-47{fill:#dbd153;}</style><symbol id="Grass_1" data-name="Grass 1" viewBox="0 0 28.9 44.07"><path class="cls-23" d="M13.49,40.74S18.23,25.17,11.39,0C23.73,22.34,15.9,36,13.49,40.74Z"/><path class="cls-24" d="M11.13,37.63S12.47,26,0,17.15c10.77,11.43,9,21,10.32,26.92Z"/><path class="cls-25" d="M19.72,39.82s-2.42-11.58,5.65-17A81.72,81.72,0,0,0,19.72,39.82Z"/><path class="cls-26" d="M22.13,40.11s-.16-7.89,4.92-9.73C28.07,29.56,25.57,35,22.13,40.11Z"/><path class="cls-25" d="M10.72,29s3.83-7.92-7.07-21.66C6.38,13.39,9.63,21.24,10.72,29Z"/><path class="cls-24" d="M19.62,25.76S20.15,6.4,28.9,3.48C23.87,11.7,22.54,16.21,19.62,25.76Z"/></symbol><symbol id="Grass_4" data-name="Grass 4" viewBox="0 0 44.77 23.83"><path class="cls-30" d="M30.51,17.44l1.52.93S31.68,3.63,32.62,0A49.46,49.46,0,0,0,30.51,17.44Z"/><path class="cls-30" d="M33.79,17.2,35,16.38s-.23-11.58.23-12.75C35.19,3.63,33.44,12.29,33.79,17.2Z"/><path class="cls-30" d="M23.52,22.54l-1.32-.82S22.46,10.13,21.94,9C21.94,9,23.91,17.63,23.52,22.54Z"/><path class="cls-31" d="M37.65,17.67l.82-.82.12-9.59S37.3,14.86,37.65,17.67Z"/><path class="cls-32" d="M28.76,17.67s0-9.59-1.06-11.94c0,0,0,9-.35,10.77Z"/><path class="cls-32" d="M44.77,21.55s0-9.59-1.06-11.93c0,0,0,9-.35,10.76Z"/><path class="cls-32" d="M35.54,19.19s1.06-6.9,3.87-8.66c0,0-3,6.09-2.7,9.6Z"/><path class="cls-32" d="M35.42,19.56s1.06-6.91,3.87-8.66c0,0-3,6.08-2.7,9.59Z"/><path class="cls-31" d="M33.67,17.34S33.79,9,31.33,7C31.33,7,33,15,32.5,19Z"/><path class="cls-30" d="M28.52,19.9s-.35-9.48,1.17-13.35c0,0-.58,12.76,0,15Z"/><path class="cls-31" d="M26.41,16s.12-6.55-.58-9.12c0,0-.12,9.94-.82,12.75Z"/><path class="cls-30" d="M27.24,19.78s-.59-6.44-3.75-9.25c0,0,3.28,8.31,2.81,11Z"/><path class="cls-30" d="M43.12,18.08s-.58-6.44-3.74-9.25c0,0,3.28,8.31,2.81,11Z"/><path class="cls-30" d="M39.06,19.08a7.29,7.29,0,0,1,1.4-4.92s-.82,5.74-.35,7.61Z"/><path class="cls-32" d="M38.33,20.54s0-7.52,2.07-10.31c0,0-1.58,9.58-1.09,13.22Z"/><path class="cls-31" d="M25.11,18.26S23.85,7.77,23.2,6.77c0,0,.83,10.93.31,13Z"/><path class="cls-31" d="M34.33,19.81S35.18,11,36.4,8.41c0,0-.49,7.16-.49,9.1Z"/><path class="cls-31" d="M40.52,20.29s.85-8.85,2.06-11.39c0,0-.49,7.15-.49,9.09Z"/><path class="cls-31" d="M29.6,17.75S30.94,7.44,30,4c0,0,1.94,10.19,1,15.53Z"/><path class="cls-30" d="M3.16,18l-1.52.76s.35-12-.59-15A33.66,33.66,0,0,1,3.16,18Z"/><path class="cls-30" d="M11.51,17.58l1.17-1S12.45,1.76,12.92.26C12.92.26,11.16,11.31,11.51,17.58Z"/><path class="cls-30" d="M10.16,22.92l1.31-.82s-.26-11.58.27-12.76C11.74,9.34,9.76,18,10.16,22.92Z"/><path class="cls-31" d="M15.37,18.05l.82-.82.12-9.6S15,15.24,15.37,18.05Z"/><path class="cls-32" d="M4.91,18.05S4.91,8.46,6,6.12c0,0,0,9,.35,10.76Z"/><path class="cls-32" d="M22.49,21.93s0-9.59-1-11.93c0,0,0,9-.35,10.76Z"/><path class="cls-32" d="M13.27,19.57s1.05-6.9,3.86-8.66c0,0-3,6.09-2.69,9.6Z"/><path class="cls-31" d="M0,17.72S-.11,9.41,2.34,7.42c0,0-1.64,8-1.17,11.94Z"/><path class="cls-30" d="M5.15,20.28S5.5,10.79,4,6.93c0,0,.58,12.76,0,15Z"/><path class="cls-31" d="M7.26,16.35s-.12-6.55.59-9.13c0,0,.11,10,.81,12.76Z"/><path class="cls-30" d="M20.85,18.46S20.26,12,17.1,9.21c0,0,3.28,8.31,2.81,11Z"/><path class="cls-30" d="M16.78,19.46a7.29,7.29,0,0,1,1.4-4.92s-.81,5.73-.35,7.61Z"/><path class="cls-32" d="M16.06,20.92s0-7.52,2.06-10.31c0,0-1.58,9.58-1.09,13.22Z"/><path class="cls-31" d="M8.56,18.64S9.82,8.15,10.48,7.15c0,0-.84,10.93-.32,13Z"/><path class="cls-31" d="M12.06,20.19s.85-8.86,2.06-11.4c0,0-.49,7.16-.49,9.09Z"/><path class="cls-31" d="M18.24,20.68s.85-8.86,2.07-11.41c0,0-.49,7.16-.49,9.1Z"/><path class="cls-31" d="M4.07,18.13S2.73,7.82,3.7,4.42c0,0-1.94,10.19-1,15.53Z"/><path class="cls-32" d="M10.12,19.94s-1-6.91-3.86-8.66c0,0,3.05,6.08,2.69,9.59Z"/><path class="cls-30" d="M16.83,20.16s-.58-6.44-3.74-9.25c0,0,3.28,8.31,2.81,11Z"/></symbol><symbol id="Deleted_Symbol_2" data-name="Deleted Symbol 2" viewBox="0 0 155.98 107.63"><rect class="cls-1" width="155.98" height="107.57"/><path class="cls-8" d="M145.39,58.5C131.91,48,130.27,24,129.61,13.8a55,55,0,0,1,.44-12.62c-7.75,17.05-2.63,41.37,1.86,48.12C136.51,56.2,147,60.8,147,60.8s5.26,1,2.63-.33c-1.85-.92-3.21-.88-4.31-2.14Z"/><path class="cls-9" d="M129.61,13.8c.66,10.19,2.3,34.18,15.78,44.7l0-.17a6.92,6.92,0,0,1-1.28-2.46c-1.31-3.94-8.21-25-11.17-33.52S130.6,0,130.6,0c-.2.39-.37.78-.55,1.18A55,55,0,0,0,129.61,13.8Z"/><path class="cls-10" d="M131.89,61.77c-11.93,1.14-105,3.65-105,3.65l-.3,4.06c4.84-.17,99.48-3.43,114.21-4.32-24,12.82-13.51,34.42-13.51,34.42C126.21,87.74,139,70.35,143.11,65c3.3-.15,5.61-.14,6.32.13C150.65,63.1,156,60,156,60S143.82,60.64,131.89,61.77Z"/><path class="cls-11" d="M23.34,71.75s9.82,3.85,12.4,4.31S45.8,75.6,47,75.15s-.47-2.27-.47-2.27,2.8-1.36-.24-2.49-10.76-3-16.37-2.49c-1.87-.23-5.85.45-6.32.9A3.1,3.1,0,0,0,23.34,71.75Z"/><path class="cls-11" d="M21.87,74.74s8.52,7.39,11,8.81S43.22,87,44.58,87.05s.38-2.3.38-2.3,3.37-.18.71-2.41-9.82-6.9-15.7-8.65c-1.81-.93-6.11-1.84-6.75-1.6A2.9,2.9,0,0,0,21.87,74.74Z"/><path class="cls-11" d="M24.06,68.37s11.33-1.51,14-2.39,9.46-5.42,10.36-6.41-1.55-1.76-1.55-1.76,2-2.6-1.44-2.09-11.79,2.78-17,6c-1.91.74-5.41,3.32-5.64,4A2.89,2.89,0,0,0,24.06,68.37Z"/><path class="cls-11" d="M23.33,65.16S33.47,60,35.7,58.31s7-8.2,7.51-9.42-2.08-1.15-2.08-1.15,1-3.11-2.08-1.49S28.92,52.73,25.17,57.44c-1.54,1.32-3.93,4.9-3.92,5.57A2.94,2.94,0,0,0,23.33,65.16Z"/><path class="cls-11" d="M23.11,75.6s-3.05,3.63-.71,6.8A59.73,59.73,0,0,0,29.89,91C32,92.83,40.18,98.27,42.52,98.5s2.11,0-.7-4.08S27.55,77.19,23.11,75.6Z"/><path class="cls-11" d="M27.08,87.62a27.36,27.36,0,0,0,3.28,5.21c1.64,1.82,7.72,10.88,7.72,12.25s-1.17.68-1.87,0l-.71-.69s1.41,3-.23,3.18a4.6,4.6,0,0,1-4.21-1.36s-3.51.22-4.45-.68-1.4-2.49-2.34-2.72-4,1.58-5.14-.91-6.08-15-6.79-17.68S9.53,60.55,9.53,55.56,10.71,42.5,13.05,38.2s5.61-10.43,7-11.79.71.45.71,1.36,1.63-.91,1.4,1.13S18.89,40,17.26,43.18a22.07,22.07,0,0,0-2.58,10.89C14.92,57.69,22.17,83.09,27.08,87.62Z"/><path class="cls-11" d="M22.4,61.09s-3,.46-2.57-1.58-.7-.91-1.64-2.5-2.1-2.26-1.87-2.94-2.8-.8-2.8-3.07,11-20.74,15.67-21.64-2.58,6.34-3,8.61,4-4.76,6.55-5.22S34.57,35,34.57,35s4.91-.45-.24,6.81c0,0,3.05,0,3.51.9s-4.68,8.16-7.72,11.11S21.47,59.51,22.4,61.09Z"/><path class="cls-12" d="M12.83,84.37s2.2,4.73,2.69,3.68,1.21-.26,2.19,0,1.95-.53,2.92,0,.73-.53,1.22-1.58.49-3.68,1.22-3.94-.73-2.63.73-3.42,2.16-1,1.45-2.37-.47-1.58.5-2.63.74-1.57.49-2.63-1.15-2.31,0-3.13.22-1.59-.28-2.65-1.95-1.84-1.71-2.89.49-2.89-.24-3.68A3.67,3.67,0,0,1,22.83,56c.24-1.31-.49-1.84-1.22-2.89s-1.95-2.89-1.95-2.89a2.07,2.07,0,0,1-1.46.52c-1,0-1.56-.26-1.76-1.05s-1.66-.78-1.66-.78H12.83c-.73,0-2.19,1.83-2.19,3.68S9.42,79.37,12.83,84.37Z"/><path class="cls-13" d="M13.13,83.51c0,.11.62,1.33,1.19,2.27.48.66,1,1.17,1.19.83.38-.58.83-.35,1.42-.1l.26.11.29.07a2.6,2.6,0,0,0,1,0,2.74,2.74,0,0,1,.6-.25,1.47,1.47,0,0,1,.9-.08c.77.23.63-.68,1.07-1.6s.38-3.27,1-3.64-.09-1.71.49-2.55a1,1,0,0,1,.34-.47c1.05-.82,1.65-1.17,1.18-2.29s-.2-1.4.61-2.27a3.13,3.13,0,0,0,.37-.62,2.84,2.84,0,0,0-.12-1.71c-.21-1-.89-2,0-2.77s.23-1.41-.09-2.29a1.12,1.12,0,0,1,0-.13,5,5,0,0,0-.53-.67c-.47-.52-1-1-.91-1.62.11-.88.22-2.37-.38-3.09a3.42,3.42,0,0,1-1-2.76,2.33,2.33,0,0,0,0-1,5.74,5.74,0,0,0-.82-1.53,10.44,10.44,0,0,1-1.62-2.89L19.21,52,19,51.6s-.07,0-.16.09a2.67,2.67,0,0,1-1.3.29c-.85,0-1.4-.26-1.64-.9s-1.39-.7-1.45-.75a1.87,1.87,0,0,0-.59-.1H12.73a1.08,1.08,0,0,0-.33.21c-.26.14-.57.79-.82,1.21A6.47,6.47,0,0,0,11,54.1c-.07,5.74-.59,24.52,1.88,29,0,.06.09.15.12.2A1.22,1.22,0,0,0,13.13,83.51ZM23,81a.56.56,0,0,0-.2.12A1,1,0,0,1,23,81Z"/><path class="cls-14" d="M13.41,82.66c.11.21.57,1.17,1,1.92.4.45.83.81,1.06.59s.76-.18,1.27,0l.23.09a1.45,1.45,0,0,1,.25,0,3.92,3.92,0,0,0,.89,0c.15-.14.31-.34.44-.36a1.5,1.5,0,0,1,.66-.32c.55,0,.53-.83.93-1.62.19-1.07.26-2.85.83-3.34s.18-1.46.74-2.13a1.05,1.05,0,0,1,.19-.49c.65-.84,1.15-1.28.93-2.22s.06-1.22.71-1.9a4.35,4.35,0,0,0,.21-.52,3.89,3.89,0,0,0-.2-1.51c-.19-.84-.64-1.76,0-2.41s.22-1.23.09-1.94a.36.36,0,0,1,0-.11,6.13,6.13,0,0,0-.45-.54c-.36-.4-.78-.8-.8-1.29a5,5,0,0,0-.52-2.5,3.19,3.19,0,0,1-.72-2.36,2.86,2.86,0,0,0,0-.87,4,4,0,0,0-.5-1.35,7,7,0,0,1-1.61-3.39c-.06-.09-.38-.49-.4-.53L18.24,53a.93.93,0,0,0-.19.07,3.9,3.9,0,0,1-1.26.16,1.72,1.72,0,0,1-1.52-.76c-.27-.49-1.14-.6-1.25-.72a1.66,1.66,0,0,0-.5-.19h-.9a1.82,1.82,0,0,0-.27.29c-.17.1-.4,1-.56,1.25a10.62,10.62,0,0,0-.41,2.53c-.16,9.68,0,23.39,1.8,26.62l.12.19Zm8.28-2.42A1.22,1.22,0,0,1,22.1,80,1.41,1.41,0,0,0,21.69,80.24Z"/><path class="cls-15" d="M13.7,81.81c.16.31.51,1,.85,1.58.33.22.68.44.94.34a1.55,1.55,0,0,1,1.12.17l.19.08A1.55,1.55,0,0,1,17,84a6.78,6.78,0,0,0,.83-.07c.1-.19.22-.45.28-.46a3.52,3.52,0,0,1,.41-.56c.33-.31.44-1,.79-1.65a6.16,6.16,0,0,1,.64-3c.36-.45.43-1.21,1-1.71A1.68,1.68,0,0,1,21,76a8.59,8.59,0,0,0,.67-2.14,2.26,2.26,0,0,1,.81-1.55,2.28,2.28,0,0,0,.05-.4,8.56,8.56,0,0,0-.26-1.32,2.75,2.75,0,0,1,0-2A3,3,0,0,0,22.49,67a.28.28,0,0,1,0-.09c-.09-.11-.31-.35-.37-.41a2.74,2.74,0,0,1-.69-1,9.51,9.51,0,0,0-.65-1.9,3.12,3.12,0,0,1-.47-2c0-.25,0-.49.05-.72a2.91,2.91,0,0,0-.18-1.17,5.85,5.85,0,0,1-1.59-3.87c-.05-.08-.48-.62-.5-.64l-.56-.78c-.08,0-.14,0-.24,0a4.83,4.83,0,0,1-1.21,0,2.15,2.15,0,0,1-1.41-.61c-.3-.34-.87-.5-1-.68a2.07,2.07,0,0,0-.41-.28h-.71a1.39,1.39,0,0,0-.23.37c-.08,0-.21,1.14-.29,1.28a21.13,21.13,0,0,0-.25,2.61c-.28,13.62.55,22.26,1.71,24.21l.14.2ZM21.16,79a1.78,1.78,0,0,0-.61.37A2.16,2.16,0,0,1,21.16,79Z"/><path class="cls-16" d="M13.75,80.56l.14.19L14,81c.2.41.44.84.67,1.24a4.82,4.82,0,0,1,1.78.4l.16.06.18,0c.19,0,.5-.06.77-.09l.12-.58a7.47,7.47,0,0,1,.81-2.46,4,4,0,0,1,1.66-4,3.83,3.83,0,0,1,1.23-3.78l-.11-.3a4.36,4.36,0,0,1,.08-4.1c-.06,0-.28-.28-.28-.28a4.27,4.27,0,0,1-1.49-4.09,4.28,4.28,0,0,0,.14-1,5.48,5.48,0,0,1-1.57-4.36l-.6-.75-.72-1a2.7,2.7,0,0,1-.28,0,4.2,4.2,0,0,1-3.62-1.59h-.52a1.19,1.19,0,0,0-.17.46l0,1.32C11.54,76,13.22,79.84,13.75,80.56ZM20.22,78a2.39,2.39,0,0,0-.82.49A3,3,0,0,1,20.22,78Z"/><path class="cls-17" d="M20.4,79.23l-.68,2-1.81-.68-.68,1.81L15,81.5,14.06,84l-2.5-1.81-2,1.13-.68-2L7,81.5,6.58,79H4.08l2-1.59L3,76.28.45,74.47l3.18-.23L1.36,72.88l1.81-.68L0,69.93l3.4.23L.91,67.89l2.72-.22-2.5-2.5L3,64.49s-2.5-2.26-1.82-2.26S3.4,60.41,3.4,60.41l.23-2,1.58.46L5.44,57l1.36.45L7.48,55l1.13,1.14.69-2.73,1.58,1.14,1.36-1.36,1.14,1.58,1.13-1.58,1.13,1.36L17,53.84l1.14,4.53L20,58.15l-.45,1.36,1.36,2-1.14.68,1.14,1.58-.91.68,1.81,1.59L20.4,67.21,22,68.57,20.4,69l1.14,1.58L20.4,71.75l1.14,1.13-.91.91,1.36,2H20.4l1.36,1.81-1.58-.23L20,79.23"/><path class="cls-18" d="M20.28,77.55l-.58,1.72-1.53-.57-.57,1.53-1.91-.77-.77,2.11L12.82,80,11.09,81l-.57-1.72L9,79.46l-.38-2.1H6.5L8.23,76l-2.68-1L3.44,73.53l2.68-.19L4.21,72.19l1.53-.57L3.06,69.71l2.87.19L3.82,68l2.3-.18L4,65.69l1.53-.57S3.44,63.21,4,63.21s1.91-1.54,1.91-1.54L6.12,60l1.34.38.19-1.53,1.15.39.57-2.11,1,1,.57-2.3,1.34,1,1.15-1.15,1,1.34,1-1.34,1,1.15,1.15-.57L18.36,60l1.53-.19-.38,1.15,1.15,1.72-1,.58,1,1.33-.77.58,1.53,1.34-1.14,1,1.34,1.15-1.34.38.95,1.34-.95,1,.95,1-.76.77,1.15,1.72H20.28l1.14,1.53L20.09,76l-.2,1.53"/><path class="cls-19" d="M20.15,75.87l-.47,1.4-1.24-.46L18,78.05l-1.56-.62-.62,1.72L14.07,77.9l-1.4.78-.47-1.41L11,77.43l-.31-1.72H8.93l1.4-1.08-2.18-.78L6.43,72.6l2.18-.16-1.55-.93L8.3,71,6.12,69.48l2.34.16L6.74,68.08l1.87-.16L6.9,66.21l1.25-.47S6.43,64.18,6.9,64.18s1.56-1.24,1.56-1.24l.15-1.41,1.1.31.15-1.24.94.31.46-1.72L12,60l.47-1.87,1.09.78.94-.93L15.32,59,16.1,58l.78.93.93-.47.78,3.12,1.25-.15-.31.93.93,1.4-.78.47.78,1.09-.62.47,1.24,1.09-.93.78,1.09.94-1.09.31L20.93,70l-.78.78.78.78-.62.62.93,1.4H20.15l.93,1.25L20,74.63l-.15,1.24"/><path class="cls-20" d="M20,74.19l-.36,1.09-1-.36-.36,1-1.21-.48-.48,1.32-1.33-1-1.08.6-.36-1.08-1,.12-.24-1.33H11.35l1.08-.84-1.68-.6-1.33-1,1.69-.11L9.9,70.82l1-.36L9.18,69.25l1.81.13L9.66,68.17l1.45-.12L9.78,66.73l1-.37s-1.33-1.2-1-1.2,1.21-1,1.21-1l.12-1.09.84.24.12-1,.72.24.37-1.33.6.61.36-1.45.84.6.73-.72.6.84.6-.84.6.72.72-.36.61,2.41,1-.12-.24.72.72,1.09-.6.36.6.84-.48.36,1,.85-.72.6.84.72-.84.24.61.85-.61.6.61.6-.49.48.72,1.09H20l.72,1-.84-.12-.12,1"/><path class="cls-21" d="M19.89,72.52l-.25.76L19,73l-.26.68-.85-.34-.34.93-.93-.68-.77.43-.25-.77-.68.09-.17-.94h-.94l.77-.59-1.19-.43-.94-.68,1.19-.08-.85-.52.68-.25L12.24,69l1.28.08-.94-.85,1-.08-.93-.93.68-.26s-.94-.85-.68-.85.85-.68.85-.68l.08-.77.6.17.08-.68.51.17.26-.93.42.42.26-1,.59.43.51-.51.43.59.42-.59.43.51.51-.26.42,1.7.68-.08-.17.51.51.76-.42.26.42.59-.34.26.68.59-.51.43.6.51-.6.17.43.6-.43.42.43.42-.34.35.51.76h-.6l.51.68-.59-.08-.09.68"/><path class="cls-22" d="M45.85,83.52s-7.37-5.73-11.62-6.71-4.42.16-2.62.82,7.53,3.93,5.56,3.43-8.51-1.3-6.54-.32S41.59,86,43.23,86,38,82.87,36.85,82.37s1.3-1.14,3.93-.16,0-1.31-2.13-2.45"/><path class="cls-22" d="M43.23,97.92S33.74,85,31,83.52s-2.46-1-.17,1.14,9.33,10.81,9.33,11.46-8.67-6.22-10.47-7.36,2.12,2.94,4.41,4.41"/><path class="cls-22" d="M31.12,75c2.13.33,14.4,0,14.73-.66s-2.29-1.14-2.46-1.63,4.59-.66,2.79-1.47-15.39-3-16.86-2.46,12.27,2.29,13.42,2.78-14.4-.32-12.6.49,12.11,1.31,13.42,1.8"/><path class="cls-22" d="M30.3,66.83s14.89-4.42,17-7.21-.49-.49-1.47-1,.65-2.12.65-2.12-7.85.65-12.27,3.27-.82,1.8,2.45.16,9.82-3.43,7-1.8-16.86,8-11,5.73,15.38-5.07,11.94-3.44"/><path class="cls-22" d="M28.91,30.27S17,42.79,16.6,47.71s.2.21,1.23-1.23S27.89,32.73,29.12,31.71"/><path class="cls-22" d="M32.61,34.17A15.88,15.88,0,0,0,26,39.51a98.13,98.13,0,0,0-5.75,11.08s.62.82,1.44-.82S31.79,36.22,33.22,35"/><path class="cls-22" d="M35.48,37.25S34.25,35.19,32,38.48,21.32,51,21.93,51.21s3.08-1,4.11-3.08,6.36-9,8-9.24"/><path class="cls-22" d="M40,46.89s-9.65,5.55-11.09,8.42.21,1.23,2.67-.62,8.83-6.15,7.39-3.9-.82,2.67,1.44.62S39.58,47.71,40,46.89Z"/><path class="cls-22" d="M24.81,54.28S33,43.61,34.66,42.79s2.87-.41,2.26.82S26.86,54.9,25.83,56.54s1.64-3.7,2.88-5.13S24.81,54.28,24.81,54.28Z"/><path class="cls-22" d="M25.63,88.35S36.92,102.72,37.33,105C37.33,105,26.45,94.51,25.63,88.35Z"/><path class="cls-22" d="M35.27,106.83s-2.46.41-3.28-.62S22.14,91.23,21.73,89c0,0,7.39,11.7,9.23,13.55S34,103.34,35.27,106.83Z"/><path class="cls-22" d="M28.91,105.8s-1.64.61-3.08-2.26-6.16-13.75-6.16-13.75,5.75,12.52,7.39,13.34S29.32,104.57,28.91,105.8Z"/><path class="cls-22" d="M14.75,89s4.72,13.34,5.75,13.54,2.66.42,1.64-.61S15.16,89.79,14.75,89Z"/><path class="cls-22" d="M10,50.79s1.23-7.38,2.67-9.64S19.82,26.2,20.29,27,17,33.55,18,33.76s-1.43,5.54-2.67,7-3.89,7.8-3.89,7.8"/></symbol><symbol id="Deleted_Symbol_7" data-name="Deleted Symbol 7" viewBox="0 0 107.63 155.98"><use width="155.98" height="107.63" transform="translate(107.63) rotate(90)" xlink:href="#Deleted_Symbol_2"/></symbol><symbol id="Purple_Coneflower" data-name="Purple Coneflower" viewBox="0 0 107.63 155.98"><use width="107.63" height="155.98" xlink:href="#Deleted_Symbol_7"/></symbol><symbol id="Grass_3" data-name="Grass 3" viewBox="0 0 35 60.43"><path class="cls-1" d="M9.66,0c3.32,4.71,7.2,9.14,10,14.41,7.21,13,5.82,27.43,2.22,41.56"/><path class="cls-27" d="M9.65,0c2.86,4.05,5.28,8.13,7.88,12.36S22.53,21,23.44,26c1.82,9.84-1,22.74-3.52,32.29-.3,1.13,2.51-.82,2.78-2,.93-3.85,4.41-16.82,1.76-29.65C22.31,16.27,15.69,8.36,9.67,0c0,0,0,0,0,0Z"/><path class="cls-1" d="M14.12,55.54C19.39,31,.61,43.82.27,17.58"/><path class="cls-28" d="M15.29,55.65c1.44-7,1.65-13.72-4.21-18.55C8.9,35.3,6.42,34.27,4.6,32,1.39,28,.71,22.55.53,17.6.38,13.24,0,13.18,0,17.55s.46,8.94,2.38,13a25,25,0,0,0,5.26,6.63c1.79,1.79,4,3.11,5.15,5.42,2,3.84,1,8.86.17,12.86-.31,1.48.35,3.38,2.33.22Z"/><path class="cls-1" d="M10.74,56.86c-2.23-13.94-5.28-34.41.65-47.1"/><path class="cls-29" d="M11.34,55c-1.24-7.7-2.16-13.69-2.8-21.47s-.26-16.38,3-23.73c.07-.17-.19-.26-.26-.1C7.93,16.91,7.55,25,7.52,32.79,7.5,40.92,8.79,49,10.07,57c.14.87,2.11.74,2-.13Z"/><path class="cls-1" d="M28.08,56.17c-5.91-16.34,4.34-24,6.78-29.21"/><path class="cls-29" d="M28.69,55.87c-2.13-6.12-2.47-12.81.19-18.83,1.59-3.62,4.44-6.48,6.11-10,.07-.16-.19-.25-.26-.09-1.94,3.83-5.06,6.92-6.95,10.83a21.25,21.25,0,0,0-1,17.68c.29.83,2.17,1.27,1.88.44Z"/><path class="cls-1" d="M17,58.78c-2.19-13.71,8.43-18,1.39-41"/><path class="cls-29" d="M18.51,58.11c-.91-6.1.34-10.7,1.64-16.52,1.79-8.05.36-18.3-2.06-26.11a21.39,21.39,0,0,0,.12,2.3c2.36,8.22,3.05,16.19.45,24.4C16.93,47.67,16.1,52.45,17,58.25c.13.87.42,2.84.28,2Z"/></symbol><symbol id="Aster" data-name="Aster" viewBox="0 0 32.25 28.82"><rect class="cls-1" width="32.25" height="28.82"/><path class="cls-2" d="M17.29,15.42l.05-.05a2.8,2.8,0,0,1,0-.4S17.3,15.13,17.29,15.42Z"/><path class="cls-3" d="M18.18,11.58c-.35.58-.54.94-.54.94a55.44,55.44,0,0,1,7.1-5.71,33.74,33.74,0,0,0,2.39-4.09,11.88,11.88,0,0,0-2.55,1.43C23.64,6.09,21.49,9.81,18.18,11.58Z"/><path class="cls-4" d="M17.64,12.52a32,32,0,0,1,7.92-3.28,29.14,29.14,0,0,0,4-4.45,10.72,10.72,0,0,0-4.85,2A55.44,55.44,0,0,0,17.64,12.52Z"/><path class="cls-5" d="M17.64,12.52a3,3,0,0,0,.61.23c.61-.05,2.67-.2,5.05-.24a47.47,47.47,0,0,0,8.05-2.77c-1.48-1-3.63-1-5.79-.5A32,32,0,0,0,17.64,12.52Z"/><path class="cls-3" d="M18.25,12.75h-.19a2,2,0,0,0,.72,1,68.83,68.83,0,0,1,7.45,1,54,54,0,0,0,6-.79c-.87-1.29-5.27-1.5-8.95-1.44C20.92,12.55,18.86,12.7,18.25,12.75Z"/><path class="cls-4" d="M18.78,13.72l-.39,0a2.39,2.39,0,0,0,.39.74c1,.36,3.35,1.24,5.67,2.32a42.41,42.41,0,0,0,7.4.32c-.64-1.05-3-1.8-5.62-2.33A68.83,68.83,0,0,0,18.78,13.72Z"/><path class="cls-3" d="M18.78,14.43l-.49-.18.16.32a65.06,65.06,0,0,1,6.49,4.51A45.35,45.35,0,0,0,30.3,21c-.3-1.32-3.05-2.91-5.85-4.21C22.13,15.67,19.78,14.79,18.78,14.43Z"/><path class="cls-5" d="M18.45,14.57l-.52-.33a3.11,3.11,0,0,0,.17.94c.12.19.35.53.64,1,1.33,1.14,3.34,2.93,5,4.66a41.41,41.41,0,0,0,4.36,2.46c.34-1-1.19-2.61-3.15-4.21A65.06,65.06,0,0,0,18.45,14.57Z"/><path class="cls-4" d="M17.92,15.71c0-.08,0-.15,0-.23l-.09-.08C17.86,15.48,17.88,15.58,17.92,15.71Z"/><path class="cls-4" d="M17.34,15.37l.08-.09s0,.12,0,.32l.21-.35L17.31,15A2.8,2.8,0,0,0,17.34,15.37Z"/><path class="cls-3" d="M18.74,16.17A63.74,63.74,0,0,1,22,21.79a40.54,40.54,0,0,0,4.53,3.38c.24-.84-1.08-2.56-2.78-4.34S20.07,17.31,18.74,16.17Z"/><path class="cls-4" d="M18.74,16.17c-.29-.46-.52-.8-.64-1L18,15c0,.15-.05.3-.07.45s0,.15,0,.23c.26,1,.82,3.17,1.32,5.46a28.66,28.66,0,0,0,4.23,6.14c.46-1-.36-3.24-1.49-5.52A63.74,63.74,0,0,0,18.74,16.17Z"/><path class="cls-4" d="M17.92,15.71c0-.13-.06-.23-.08-.31a2.74,2.74,0,0,1-.08-.3,1.3,1.3,0,0,0-.1.15l-.21.35a59.5,59.5,0,0,1,.37,8.14A33.8,33.8,0,0,0,20,28.82c.66-.48,0-4.2-.74-7.65C18.74,18.88,18.18,16.72,17.92,15.71Z"/><path class="cls-3" d="M17.45,15.6c0-.2,0-.32,0-.32l-.08.09-.05.05A93.4,93.4,0,0,1,16,26.23c.24,1,.46,1.61.46,1.61.87-.18,1.23-1.94,1.33-4.1A59.5,59.5,0,0,0,17.45,15.6Z"/><path class="cls-5" d="M17.29,15.42c0-.29,0-.45,0-.45a5.15,5.15,0,0,0-.86.76c-.26,1.27-1.12,5.19-2.14,8.35a28.12,28.12,0,0,0,.57,4.64c.44,0,.82-1,1.15-2.49A93.4,93.4,0,0,0,17.29,15.42Z"/><path class="cls-4" d="M16.45,15.73c.06-.27.09-.43.09-.43a55.57,55.57,0,0,1-4.32,9.27,23.34,23.34,0,0,0-.32,3.87c.77,0,1.64-2,2.41-4.36C15.33,20.92,16.19,17,16.45,15.73Z"/><path class="cls-4" d="M16.54,15.3a4,4,0,0,0-1.26.7c-1,2-3.39,6.62-5.46,9C9.29,26.29,9,27.22,9,27.22c1,.26,2.14-.93,3.24-2.65A55.57,55.57,0,0,0,16.54,15.3Z"/><path class="cls-3" d="M15.28,16c.28-.56.44-.9.44-.9a7.21,7.21,0,0,0-1.09.51A33.09,33.09,0,0,1,8.36,24a23.48,23.48,0,0,0-.8,2.26c.6.22,1.4-.35,2.26-1.31C11.89,22.62,14.31,18,15.28,16Z"/><path class="cls-3" d="M14.63,15.61c.33-.62.51-1,.51-1a63.79,63.79,0,0,1-7.66,7.09A44.13,44.13,0,0,0,5.12,26.1,11.16,11.16,0,0,0,8.36,24,33.09,33.09,0,0,0,14.63,15.61Z"/><path class="cls-4" d="M15.14,14.62A4.66,4.66,0,0,0,14,14.56a45.47,45.47,0,0,1-6.7,3.79A36.58,36.58,0,0,0,2.66,24c1.29,0,3-1,4.82-2.32A63.79,63.79,0,0,0,15.14,14.62Z"/><path class="cls-5" d="M14,14.56l.42-.29s-3.48.78-7,1.2A50.9,50.9,0,0,0,.9,19.08c1.4,1,3.92.35,6.42-.73A45.47,45.47,0,0,0,14,14.56Z"/><path class="cls-4" d="M7.4,15.47c3.56-.42,7-1.2,7-1.2a1.65,1.65,0,0,0-.31-.53,66.17,66.17,0,0,1-8.87-.29C2.4,14.07,0,14.87,0,14.87.74,16,4.11,15.87,7.4,15.47Z"/><path class="cls-3" d="M14.13,13.74l.53,0a2.18,2.18,0,0,0-.45-.78l-.71-.33a4.61,4.61,0,0,1,.46.77,64.94,64.94,0,0,1-7-2.16,48,48,0,0,0-6.61.53c.56.91,2.54,1.42,4.86,1.7A66.17,66.17,0,0,0,14.13,13.74Z"/><path class="cls-5" d="M14,13.38a4.61,4.61,0,0,0-.46-.77A53,53,0,0,1,6.78,8.82,31.71,31.71,0,0,0,2,7.86c.27,1.2,2.56,2.39,5.06,3.36A64.94,64.94,0,0,0,14,13.38Z"/><path class="cls-4" d="M13.5,12.61l.71.33.26.12A3.09,3.09,0,0,0,14.22,12,59.84,59.84,0,0,1,8,7.06,37.08,37.08,0,0,0,4.16,5.52c-.31.89.92,2.11,2.62,3.3A53,53,0,0,0,13.5,12.61Z"/><path class="cls-3" d="M14.22,12l.59.41a3.31,3.31,0,0,0-.13-.93A53.06,53.06,0,0,1,10.9,6.8,32.31,32.31,0,0,0,5.74,3.65C5.53,4.41,6.57,5.7,8,7.06A59.84,59.84,0,0,0,14.22,12Z"/><path class="cls-5" d="M14.68,11.43l.35.38S13.83,8.56,13,5.46A21.36,21.36,0,0,0,8.78,1.51c-.5,1.11.66,3.24,2.12,5.29A53.06,53.06,0,0,0,14.68,11.43Z"/><path class="cls-4" d="M15,11.81a3.83,3.83,0,0,0,.42-.73,47.49,47.49,0,0,1-1.09-7.62A25,25,0,0,0,12.27,0c-.57.41-.06,2.88.68,5.46C13.83,8.56,15,11.81,15,11.81Z"/><path class="cls-3" d="M15.45,11.08c.06.26.09.42.09.42a69.1,69.1,0,0,1,.77-9.22A16.63,16.63,0,0,0,15.37.14c-.82.16-1,1.56-1,3.32A47.49,47.49,0,0,0,15.45,11.08Z"/><path class="cls-4" d="M15.54,11.5a6.37,6.37,0,0,0,.73-.61A64.86,64.86,0,0,1,18.2,3.77,17.29,17.29,0,0,0,17.38.1c-.46,0-.81.87-1.07,2.18A69.1,69.1,0,0,0,15.54,11.5Z"/><path class="cls-3" d="M16.27,10.89c-.11.52-.17.83-.17.83a42.19,42.19,0,0,1,4-8A15,15,0,0,0,20.35.38c-.72,0-1.48,1.5-2.15,3.39A64.86,64.86,0,0,0,16.27,10.89Z"/><path class="cls-4" d="M16.1,11.72a5.07,5.07,0,0,0,1.66-1,33.57,33.57,0,0,1,4.33-6.33c.75-1.6,1.18-2.82,1.18-2.82-1-.26-2.09.73-3.13,2.17A42.19,42.19,0,0,0,16.1,11.72Z"/><path class="cls-5" d="M17.76,10.75c-.44.8-.7,1.33-.7,1.33a8.67,8.67,0,0,0,1.12-.5c3.31-1.77,5.46-5.49,6.4-7.43a13.37,13.37,0,0,0,.55-1.23c-.89-.31-2,.38-3,1.5A33.57,33.57,0,0,0,17.76,10.75Z"/><polygon class="cls-6" points="20.27 13.51 18.68 14.11 19.87 15.31 18.3 15 19.21 16.32 17.79 15.57 18.3 17.09 16.97 16.05 16.92 17.66 16.21 16.21 16.03 17.75 15.43 16.15 14.22 17.35 14.54 15.77 13.22 16.69 13.85 15.12 12.29 15.53 13.48 14.45 11.88 14.41 13.32 13.7 11.78 13.51 13.38 12.9 12.19 11.7 13.76 12.02 12.85 10.7 14.42 11.32 14.01 9.77 15.09 10.96 15.13 9.36 15.84 10.8 16.03 9.26 16.63 10.86 17.84 9.66 17.52 11.24 18.84 10.33 18.1 11.75 19.77 11.49 18.58 12.57 20.18 12.62 18.74 13.32 20.27 13.51"/><polygon class="cls-7" points="18.93 13.45 18.04 14.3 18.26 15.31 17.24 15.27 16.86 16.23 16.03 15.64 14.9 16.12 14.63 15.13 13.47 14.81 13.88 13.88 13.13 13.45 14.02 12.59 13.81 11.58 15.01 11.51 15.46 10.6 16.03 11.26 17.18 10.78 17.44 11.77 18.6 12.1 18.18 13.03 18.93 13.45"/></symbol></defs><title>middleground</title><g id="Layer_2" data-name="Layer 2"><g id="middleground"><rect id="gravel" class="cls-33" x="38" y="264" width="1619" height="86" rx="12" ry="12"/><rect id="light_green" data-name="light green" class="cls-34" y="350" width="1723" height="99" rx="12" ry="12"/><use id="lamp" width="28.9" height="44.07" transform="translate(679 242) scale(0.48 0.66)" xlink:href="#Grass_1"/><use id="bench" width="44.77" height="23.83" transform="translate(496 253) scale(0.78 0.76)" xlink:href="#Grass_4"/><use id="bench-2" data-name="bench" width="44.77" height="23.83" transform="translate(532 255) scale(0.78 0.76)" xlink:href="#Grass_4"/><use id="bench-3" data-name="bench" width="107.63" height="155.98" transform="translate(553 252) scale(0.07 0.12)" xlink:href="#Purple_Coneflower"/><use id="bench-4" data-name="bench" width="107.63" height="155.98" transform="translate(541 253) scale(0.05 0.11)" xlink:href="#Purple_Coneflower"/><use id="bench-5" data-name="bench" width="107.63" height="155.98" transform="translate(516 250) scale(0.07 0.11)" xlink:href="#Purple_Coneflower"/><use id="middleground-2" data-name="middleground" width="35" height="60.43" transform="translate(51 305) scale(1 0.99)" xlink:href="#Grass_3"/><use id="middlground" width="35" height="60.43" transform="translate(76 304) scale(1 0.99)" xlink:href="#Grass_3"/><use id="middleground-3" data-name="middleground" width="35" height="60.43" transform="translate(321 246) scale(0.54 0.23)" xlink:href="#Grass_3"/><use id="middleground-4" data-name="middleground" width="35" height="60.43" transform="translate(299 247) scale(0.54 0.23)" xlink:href="#Grass_3"/><use id="middleground-5" data-name="middleground" width="35" height="60.43" transform="translate(308 246) scale(0.54 0.23)" xlink:href="#Grass_3"/><use id="middleground-6" data-name="middleground" width="35" height="60.43" transform="translate(312 247) scale(0.54 0.23)" xlink:href="#Grass_3"/><use id="middleground-7" data-name="middleground" width="35" height="60.43" transform="translate(326 248) scale(0.54 0.23)" xlink:href="#Grass_3"/><use id="middleground-8" data-name="middleground" width="32.25" height="28.82" transform="translate(247 396) scale(0.43 0.45)" xlink:href="#Aster"/><use id="middleground-9" data-name="middleground" width="32.25" height="28.82" transform="translate(505 349) scale(0.43 0.45)" xlink:href="#Aster"/><use id="middleground-10" data-name="middleground" width="32.25" height="28.82" transform="translate(519 367) scale(0.43 0.45)" xlink:href="#Aster"/><use id="middleground-11" data-name="middleground" width="32.25" height="28.82" transform="translate(1238 342) scale(0.43 0.45)" xlink:href="#Aster"/><use id="middleground-12" data-name="middleground" width="32.25" height="28.82" transform="translate(1465 359) scale(0.43 0.45)" xlink:href="#Aster"/><use id="middleground-13" data-name="middleground" width="32.25" height="28.82" transform="translate(1465 368) scale(0.43 0.45)" xlink:href="#Aster"/><use id="middleground-14" data-name="middleground" width="32.25" height="28.82" transform="translate(1113 412) scale(0.43 0.45)" xlink:href="#Aster"/><use id="middleground-15" data-name="middleground" width="32.25" height="28.82" transform="translate(148 373) scale(0.43 0.45)" xlink:href="#Aster"/><use id="middleground-16" data-name="middleground" width="32.25" height="28.82" transform="translate(180 405) scale(0.43 0.45)" xlink:href="#Aster"/><rect id="middle" class="cls-35" x="1591" y="460" width="8" height="2"/><rect id="middle-2" data-name="middle" class="cls-35" x="343.5" y="473.5" width="13" height="5"/><ellipse id="middle-3" data-name="middle" class="cls-36" cx="386" cy="197.5" rx="23" ry="25.5"/><ellipse id="middle-4" data-name="middle" class="cls-36" cx="205" cy="323" rx="58" ry="59"/><ellipse id="middle-5" data-name="middle" class="cls-36" cx="795.5" cy="209.5" rx="11.5" ry="10.5"/><ellipse id="middle-6" data-name="middle" class="cls-36" cx="841.5" cy="224.5" rx="18.5" ry="16.5"/><circle id="middle-7" data-name="middle" class="cls-36" cx="818.5" cy="169.5" r="37.5"/><ellipse id="middle-8" data-name="middle" class="cls-36" cx="1090" cy="211" rx="12" ry="14"/><ellipse id="middle-9" data-name="middle" class="cls-36" cx="1114" cy="134" rx="47" ry="46"/><polygon id="middle-10" data-name="middle" class="cls-35" points="1116 270 1111 270 1110 226 1094 219 1094 217 1109 223 1111 164 1095 141 1111 160 1112 144 1114 144 1113 178 1119 171 1114 182 1116 270"/><polygon id="middle-11" data-name="middle" class="cls-35" points="822 264 816 264 816 225 792 209 792 206 816 221 819 161 820 161 820 176 830 165 821 178 820 232 834 227 836 218 836 226 844 224 836 229 820 235 822 264"/><polygon id="middle-12" data-name="middle" class="cls-35" points="207 463 200 463 201 368 186 354 200 365 201 318 204 318 204 352 226 344 226 345 204 355 207 463"/><polygon id="middle-13" data-name="middle" class="cls-35" points="1198 267 1195 267 1195 211 1193.91 209.78 1186 201 1195 208 1195 192 1198 240 1204 239 1197 243 1198 267"/><polygon id="middle-14" data-name="middle" class="cls-35" points="1308 487 1305 487 1305 458 1303 454 1305 456 1305 453 1307 453 1307 461 1310 459 1307 462 1308 487"/><ellipse id="middleground-17" data-name="middleground" class="cls-36" cx="1306.5" cy="444.5" rx="12.5" ry="13.5"/><ellipse id="middleground-18" data-name="middleground" class="cls-36" cx="1194.5" cy="187.5" rx="28.5" ry="29.5"/><circle id="back" class="cls-36" cx="350.5" cy="75.5" r="75.5"/><ellipse id="back-2" data-name="back" class="cls-36" cx="107" cy="162" rx="48" ry="42"/><polygon id="back-3" data-name="back" class="cls-35" points="347 273 358 273 356 215 385 198 385 197 355 209 354 154 385 129 356 147 354 110 363 102 354 107 353 87 351 90 351 129 319 108 350 132 347 273"/><polygon id="back-4" data-name="back" class="cls-35" points="105 269 104.17 269 100 269 100 238 90 232 100 236 99 202 89 192 100 199 101 168 103 182 117 165 105 184 105 269"/><ellipse id="middleground-19" data-name="middleground" class="cls-37" cx="1579" cy="393" rx="28" ry="26"/><g id="trees"><rect class="cls-38" x="610.99" y="249.63" width="5.73" height="31.37"/><polygon class="cls-38" points="607.17 275.3 604.3 275.3 603.35 249.63 607.17 249.63 607.17 275.3"/><rect class="cls-38" x="610.99" y="198.31" width="6.69" height="8.55"/><rect class="cls-38" x="610.99" y="185" width="6.69" height="3.8"/><rect class="cls-38" x="457.23" y="249.63" width="5.73" height="31.37"/><rect class="cls-38" x="465.83" y="249.63" width="5.73" height="26.61"/><rect class="cls-38" x="457.23" y="232.52" width="6.69" height="6.65"/><rect class="cls-38" x="457.23" y="215.42" width="6.69" height="7.6"/><rect class="cls-38" x="456.28" y="199.26" width="6.69" height="6.65"/><polygon class="cls-39" points="444.82 249.63 441 239.18 632 239.18 627.23 248.68 444.82 249.63"/><path class="cls-39" d="M456.28,232.52s-22.92,1-9.55-8.55L625.32,223s12.41,4.75,0,9.5Z"/><path class="cls-39" d="M456.28,215.42s-20,2.85-11.46-7.61c0,0,.95-.95,9.55-.95h171.9s5.73,0,4.78,6.65c0,0-1,3.81-5.73,1.91Z"/><path class="cls-39" d="M456.28,198.31s-14.33,2.85-13.37-2.85,2.86-5.71,4.78-5.71H623.4s9.55,0,7.65,5.71-7.65,3.8-7.65,3.8Z"/><rect class="cls-38" x="611" y="232" width="7" height="7"/><rect class="cls-38" x="611" y="215" width="7" height="8"/><rect class="cls-39" x="457" y="185" width="7" height="4"/></g><g id="lamp_and_trash" data-name="lamp and trash"><path class="cls-40" d="M668.26,104.45l-5.75,5.47h-8.2l-6.57-3.9V99s6.57,6.25,20.52.78"/><polygon class="cls-40" points="670.72 270 646.1 270 651.03 249.7 651.03 209.87 649.38 209.87 648.56 203.63 653.49 203.63 654.31 110.7 661.69 110.7 663.33 203.63 667.44 204.41 667.44 210.65 664.15 210.65 664.15 248.13 670.72 270"/><ellipse class="cls-41" cx="658" cy="87.67" rx="16" ry="13.67"/><path class="cls-42" d="M429,223H395.07a63.2,63.2,0,0,1-5.07,6v61l44,1V228Z"/><ellipse class="cls-43" cx="412" cy="234" rx="13" ry="6"/><ellipse class="cls-43" cx="412" cy="248.5" rx="14" ry="1.5"/><ellipse class="cls-43" cx="412" cy="264.5" rx="14" ry="1.5"/><ellipse class="cls-43" cx="412" cy="278.5" rx="13" ry="1.5"/><g id="trash"><polygon class="cls-44" points="404 234 404 236 403 237 401 236 398 235 398 232 400 229 402 231 405 229 406 230 407 233 404 234"/><polygon class="cls-44" points="422 232 422 234 421 235 419 234 416 233 416 230 418 227 420 229 423 227 424 228 425 231 422 232"/><polygon class="cls-44" points="440 280 440 282 439 283 437 282 434 281 434 278 436 275 438 277 441 275 442 276 443 279 440 280"/><polygon class="cls-44" points="439 276 439 278 438 279 436 278 433 277 433 274 435 271 437 273 440 271 441 272 442 275 439 276"/><polygon class="cls-44" points="413 229 413 226 409 226 406 229 408 231 408 233 409 234 411 233 413 234 415 232 416 230 413 229"/><polygon class="cls-44" points="416 233 416 230 412 230 409 233 411 235 411 237 412 238 414 237 416 238 418 236 419 234 416 233"/><polygon class="cls-44" points="446 281 446 278 442 278 439 281 441 283 441 285 442 286 444 285 446 286 448 284 449 282 446 281"/><polygon class="cls-44" points="424 233 424 230 420 230 417 233 419 235 419 237 420 238 422 237 424 238 426 236 427 234 424 233"/><polygon class="cls-44" points="409 234 409 231 405 231 402 234 404 236 404 238 405 239 407 238 409 239 411 237 412 235 409 234"/></g></g><g id="hotdog"><path class="cls-45" d="M445.68,292.43l-10.63-5.56s-3.08-2.74,1-4l11.52,6S450.15,292.52,445.68,292.43Z"/><path class="cls-46" d="M434.67,283.28s-2-2.72,1.39-2.65l13.29,6.95s2.85,3.19-.51,3.12"/><path class="cls-45" d="M436.06,280.63a3.74,3.74,0,0,1,2.35.1l11.34,5.94a1,1,0,0,1,.48,1.38"/><path class="cls-47" d="M436.48,282s4.47.09,1.77.93,2.66,1.39,2.66,1.39,5.36.55,2.66,1.4,2.66,1.39,2.66,1.39,5.35.54,2.65,1.39"/></g></g></g></svg>
