<svg xmlns="http://www.w3.org/2000/svg" viewBox="0 0 276 197.2"><defs><style>.cls-1{fill:#a27d31;}.cls-2{fill:#4f310c;}.cls-3{fill:#885c15;}.cls-4{fill:#83530c;}.cls-5{fill:#060a05;}.cls-6{fill:#8d97d3;}.cls-7{fill:#d6d18e;}.cls-8{fill:#873e0e;}.cls-9{fill:#e5bd7f;}.cls-10{fill:#b28488;}.cls-11{fill:#0d2fbc;}.cls-12{fill:#060607;}</style></defs><title>owner</title><g id="Layer_2" data-name="Layer 2"><g id="dog_and_owner" data-name="dog and owner"><g id="hund"><path class="cls-1" d="M53,130.2H82s17-10,5-28c0,0,19,8,4,31h0s7,15,6,18,8,15,8,15l2,17H99s-3-2,2-4l-1-8-5-5s-3-1-6-10c0,0-7-5-14-3a119,119,0,0,1-17,3s-13,1-9,5l-2,24H39s-1-2,4-4l-2-15s-5-9-9-12-9-10-9-18l-8-12s-13,1-15-8v-4H9l3-4h7s7,1,9,3,7,13,9,15c.61.61,2.31,1.22,4.4,1.77C46.2,129.23,53,130.2,53,130.2Z"/><path class="cls-2" d="M79.79,133.21S71,161.68,42.7,132C42.7,132,68,137.47,79.79,133.21Z"/><path class="cls-3" d="M75,152.2s7,12,10,12,3,11,3,11-5,1-4,4h8s2-5,2-15S79,150.2,75,152.2Z"/><path class="cls-3" d="M41,169.2l-.13.58L38,182.2s-8,1-7-2,4-1,4-3v-20s7,6,6,12"/><path class="cls-4" d="M29,113.2s-11,1-13,10-5,16,7,12S28,115.2,29,113.2Z"/><path class="cls-5" d="M14,112.2a2.19,2.19,0,0,0-3-1C9,112.2,13,114.2,14,112.2Z"/><path d="M1,116.2v-3S3,112.2,1,116.2Z"/></g><g id="human"><path id="dress" class="cls-6" d="M272,125.2l2,5s-6,5-10,4-9,2-9,2-3,1-7-2c-2.76.29-6.63,1.33-7,0,0,0-1-29,0-31s5-13,5-14,3-6-2-19,1-16,2-21h2v11s6,6,11-4l3-7h4c.79,0-1,25-3,29-1.84,3.69,3,14,4,16s3,17,3,17S271,125.2,272,125.2Z"/><path id="palm" class="cls-7" d="M249.18,106.51l-1.46-.68c-1.2-.56-1.77-1.64-1.27-2.39h0c.5-.75,1.9-.9,3.1-.34l1.46.68a2.52,2.52,0,0,1,1.41,1.44,1.11,1.11,0,0,1-.14.94h0C251.78,106.91,250.38,107.07,249.18,106.51Z"/><path id="finger" class="cls-7" d="M251.47,107.79l-.71-.92a.46.46,0,0,1,.2-.72h0a.77.77,0,0,1,.91.2l.71.93a.46.46,0,0,1-.21.72h0A.76.76,0,0,1,251.47,107.79Z"/><path id="finger-2" data-name="finger" class="cls-7" d="M248.4,108.53h0a.71.71,0,0,0,.88-.18l1.22-1.82a.5.5,0,0,0-.27-.73h0a.73.73,0,0,0-.89.18l-1.22,1.82A.5.5,0,0,0,248.4,108.53Z"/><path id="finger-3" data-name="finger" class="cls-7" d="M246.62,108.9h0a.73.73,0,0,0,.89-.19l1.83-2.73a.49.49,0,0,0-.28-.72h0a.73.73,0,0,0-.89.18l-1.83,2.73A.5.5,0,0,0,246.62,108.9Z"/><path id="finger-4" data-name="finger" class="cls-7" d="M246.06,107.44h0a.73.73,0,0,0,.89-.18l1.22-1.82a.5.5,0,0,0-.28-.73h0a.71.71,0,0,0-.88.19l-1.22,1.82A.49.49,0,0,0,246.06,107.44Z"/><path id="finger-5" data-name="finger" class="cls-7" d="M245.29,105.87h0a.79.79,0,0,0,.93,0L247,105a.46.46,0,0,0-.1-.75h0a.76.76,0,0,0-.92,0l-.83.79A.48.48,0,0,0,245.29,105.87Z"/><path id="palm-2" data-name="palm" class="cls-7" d="M226.18,105.51l-1.46-.68c-1.2-.56-1.77-1.64-1.27-2.39h0c.5-.75,1.9-.9,3.1-.34l1.46.68a2.52,2.52,0,0,1,1.41,1.44,1.11,1.11,0,0,1-.14.94h0C228.78,105.91,227.38,106.07,226.18,105.51Z"/><path id="finger-6" data-name="finger" class="cls-7" d="M228.47,106.79l-.71-.92a.46.46,0,0,1,.2-.72h0a.77.77,0,0,1,.91.2l.71.93a.46.46,0,0,1-.21.72h0A.76.76,0,0,1,228.47,106.79Z"/><path id="hair" class="cls-8" d="M261,22.52,238,21.46S238,1.28,250,.22s18,2.12,18,2.12,9,15.93,8,22.31,0,26.55,0,26.55l-14-1.06Z"/><path id="leg" class="cls-9" d="M267,193.2h-1l-10,2s-6,0,0-3,5-2,5-2l-1-56h8Z"/><path id="shoes" class="cls-10" d="M267.74,191.39v5.81L264,196v-1.16h-3V196c0,1.6-17.34,1.05-3.77-3.49S267.74,191.39,267.74,191.39Z"/><path id="leg-2" data-name="leg" class="cls-9" d="M250,193.2h-1l-10,2s-6,0,0-3,5-2,5-2l-1-56h8Z"/><path id="shoes-2" data-name="shoes" class="cls-10" d="M251.08,191.39v5.81L247.23,196v-1.16h-3.08V196c0,1.6-17.71,1.05-3.85-3.49S251.08,191.39,251.08,191.39Z"/><path id="face" class="cls-9" d="M260,40.2s-9,13-16-3-3.49-16.06,15.26-14Z"/><path id="neck" class="cls-9" d="M249,46.2v5h11v-8S253.13,48.2,249,46.2Z"/><path id="arm" class="cls-9" d="M225.5,100.7l4,2,13-21,4-28s-3-10-6,0-2,25-2,25Z"/><path id="arm-2" data-name="arm" class="cls-9" d="M248.5,101.7l4,2,13-21,4-28s-3-10-6,0-2,25-2,25Z"/><path class="cls-9" d="M259.5,52.2c-9,20-11,0-11,0Z"/><rect class="cls-11" x="221" y="104.2" width="9" height="6" rx="3" ry="3" transform="translate(83.81 -98.39) rotate(30)"/><polyline class="cls-12" points="24 137.2 38 126.2 24 136.2"/><polygon class="cls-12" points="33.36 127.07 225 108.2 223 107.2 33.36 127.07"/></g></g></g></svg>
