<svg xmlns="http://www.w3.org/2000/svg" viewBox="0 0 1495 94.12"><defs><style>.cls-1{fill:#885c15;}.cls-2{fill:#a27d31;}.cls-3{fill:#4f310c;}.cls-4{fill:#83530c;}.cls-5{fill:#060a05;}</style></defs><title>sprite</title><g id="Layer_2" data-name="Layer 2"><g id="sprite"><g id="yellow_copy" data-name="yellow copy"><path class="cls-1" d="M80.08,49.62S88.84,60.4,91.8,59.94s4.66,10.41,4.66,10.41-4.79,1.75-3.34,4.56l7.9-1.22s1.21-5.25-.32-15.13S83.72,47,80.08,49.62Z"/><path class="cls-2" d="M73.77,48.9s5.41,12.79,8.39,13.17,1.57,11.3,1.57,11.3-5.09.35-4.48,3.45l7.94,1s2.62-4.7,3.89-14.62S78,47.42,73.77,48.9Z"/><path class="cls-1" d="M38,61.75l-.22.55L33.13,74.16s-8.06-.2-6.63-3,4.11-.4,4.41-2.37l3-19.78s6,7,4.14,12.76"/><path class="cls-2" d="M48.82,60.15l0,.59-.67,12.73s-7.71,2.37-7.25-.76S44.64,71,44.3,69.06l-3.46-19.7s7.93,4.7,8,10.79"/><path class="cls-2" d="M53,28H82S99,18,87,0c0,0,19,8,4,31h0s7,15,6,18-15,0-22,2a119,119,0,0,1-17,3s-7.46.57-9.34,2.59C48.06,57.24,36,55,32,52s-9-10-9-18L15,22S2,23,0,14V10H9l3-4h7s7,1,9,3,7,13,9,15c.61.61,2.31,1.21,4.4,1.76C46.2,27,53,28,53,28Z"/><path class="cls-3" d="M79.79,31S71,59.48,42.7,29.81C42.7,29.81,68,35.27,79.79,31Z"/><path class="cls-4" d="M29,11S18,12,16,21s-5,16,7,12S28,13,29,11Z"/></g><g id="dark_blue_copy" data-name="dark blue copy"><g id="white"><path class="cls-1" d="M411.14,50.7s5.08,12.93,8.05,13.39,1.28,11.33,1.28,11.33-5.1.22-4.57,3.34L423.81,80s2.74-4.63,4.27-14.51S415.4,49.34,411.14,50.7Z"/><path class="cls-2" d="M420.82,52.87s9,10.59,11.95,10.06,4.89,10.3,4.89,10.3-4.75,1.87-3.24,4.64l7.88-1.4s1.09-5.27-.67-15.12S424.41,50.2,420.82,52.87Z"/><path class="cls-1" d="M387.68,63.74l0,.59.42,12.74s-7.48,3-7.28-.13,3.61-2,3.1-3.93l-5.13-19.33s8.3,4,8.87,10.06"/><path class="cls-2" d="M378,64.58l-.2.56-4.28,12s-8.06.07-6.72-2.8,4.09-.53,4.32-2.52L373.46,52s6.26,6.77,4.57,12.61"/><path class="cls-2" d="M391,31h29s17-10,5-28c0,0,19,8,4,31h0s7,15,6,18-15,0-22,2a119,119,0,0,1-17,3s-7.46.57-9.34,2.59C386.06,60.24,374,58,370,55s-9-10-9-18l-8-12s-13,1-15-8V13h9l3-4h7s7,1,9,3,7,13,9,15c.61.61,2.31,1.21,4.4,1.76C384.2,30,391,31,391,31Z"/><path class="cls-3" d="M417.79,34S409,62.48,380.7,32.81C380.7,32.81,406,38.27,417.79,34Z"/><path class="cls-4" d="M367,14s-11,1-13,10-5,16,7,12S366,16,367,14Z"/><path class="cls-5" d="M352,13a2.19,2.19,0,0,0-3-1C347,13,351,15,352,13Z"/><path d="M339,17V14S341,13,339,17Z"/></g></g><g id="orange_copy" data-name="orange copy"><g id="white-2" data-name="white"><path class="cls-1" d="M778.33,59.37s8.53,11,11.5,10.57,4.43,10.51,4.43,10.51-4.82,1.65-3.44,4.5l7.93-1.06s1.32-5.22,0-15.14S782,56.86,778.33,59.37Z"/><path class="cls-2" d="M772.38,57.11s5.76,12.65,8.74,13S783,81.3,783,81.3s-5.07.49-4.38,3.58l8,.8s2.49-4.77,3.5-14.72S776.56,55.52,772.38,57.11Z"/><path class="cls-1" d="M738,71.62l-.2.56-4.37,12s-8.06,0-6.7-2.84,4.09-.51,4.34-2.49L733.55,59s6.21,6.82,4.48,12.65"/><path class="cls-2" d="M745.9,70.45l-.06.59L744.37,83.7s-7.84,1.89-7.18-1.21,3.87-1.44,3.64-3.42l-2.22-19.88s7.62,5.18,7.29,11.26"/><path class="cls-2" d="M753,38h29s17-10,5-28c0,0,19,8,4,31h0s7,15,6,18-15,0-22,2a119,119,0,0,1-17,3s-7.46.57-9.34,2.59C748.06,67.24,736,65,732,62s-9-10-9-18l-8-12s-13,1-15-8V20h9l3-4h7s7,1,9,3,7,13,9,15c.61.61,2.31,1.21,4.4,1.76C746.2,37,753,38,753,38Z"/><path class="cls-3" d="M779.79,41S771,69.48,742.7,39.81C742.7,39.81,768,45.27,779.79,41Z"/><path class="cls-4" d="M729,21s-11,1-13,10-5,16,7,12S728,23,729,21Z"/><path class="cls-5" d="M714,20a2.19,2.19,0,0,0-3-1C709,20,713,22,714,20Z"/><path d="M701,24V21S703,20,701,24Z"/></g></g><g id="light_blue_copy" data-name="light blue copy"><path class="cls-1" d="M1118.53,64.51s4.74,13.06,7.69,13.6,1,11.36,1,11.36-5.1.09-4.65,3.22l7.87,1.43s2.86-4.56,4.66-14.39S1122.83,63.26,1118.53,64.51Z"/><path class="cls-2" d="M1136.11,66.69s7.81,11.49,10.8,11.28,3.76,10.76,3.76,10.76-4.92,1.35-3.72,4.27l8-.55s1.65-5.13,1-15.1S1140,64.42,1136.11,66.69Z"/><path class="cls-1" d="M1098.88,78.35l-.06.59-1.21,12.69s-7.79,2-7.2-1.06,3.84-1.52,3.57-3.5l-2.62-19.83s7.72,5,7.52,11.11"/><path class="cls-2" d="M1086,79.51l-.19.56-4.11,12.07s-8.06.18-6.76-2.7,4.08-.59,4.28-2.58l2-19.9s6.36,6.68,4.75,12.55"/><path class="cls-2" d="M1104,46h29s17-10,5-28c0,0,19,8,4,31h0s7,15,6,18-15,0-22,2a119,119,0,0,1-17,3s-7.46.57-9.34,2.59c-.6.65-12.66-1.59-16.66-4.59s-9-10-9-18l-8-12s-13,1-15-8V28h9l3-4h7s7,1,9,3,7,13,9,15c.61.61,2.31,1.21,4.4,1.76C1097.2,45,1104,46,1104,46Z"/><path class="cls-3" d="M1130.79,49s-8.77,28.47-37.09-1.2C1093.7,47.81,1119,53.27,1130.79,49Z"/><path class="cls-4" d="M1080,29s-11,1-13,10-5,16,7,12S1079,31,1080,29Z"/><path class="cls-5" d="M1065,28a2.19,2.19,0,0,0-3-1C1060,28,1064,30,1065,28Z"/><path d="M1052,32V29S1054,28,1052,32Z"/></g><g id="purple_copy" data-name="purple copy"><g id="white-3" data-name="white"><path class="cls-1" d="M1462,60s7,12,10,12,3,11,3,11-5,1-4,4h8s2-5,2-15S1466,58,1462,60Z"/><path class="cls-2" d="M1476,60s7,12,10,12,3,11,3,11-5,1-4,4h8s2-5,2-15S1480,58,1476,60Z"/><path class="cls-1" d="M1427,71l-.13.58L1424,84s-8,1-7-2,4-1,4-3V59s7,6,6,12"/><path class="cls-2" d="M1439,73l-.13.58L1436,86s-8,1-7-2,4-1,4-3V61s7,6,6,12"/><path class="cls-2" d="M1443,40h29s17-10,5-28c0,0,19,8,4,31h0s7,15,6,18-15,0-22,2a119,119,0,0,1-17,3s-7.46.57-9.34,2.59c-.6.65-.63,1.44.34,2.41,0,0-13-4-17-7s-9-10-9-18l-8-12s-13,1-15-8V22h9l3-4h7s7,1,9,3,7,13,9,15c.61.61,2.31,1.21,4.4,1.76C1436.2,39,1443,40,1443,40Z"/><path class="cls-3" d="M1469.79,43s-8.77,28.47-37.09-1.2C1432.7,41.81,1458,47.27,1469.79,43Z"/><path class="cls-4" d="M1419,23s-11,1-13,10-5,16,7,12S1418,25,1419,23Z"/><path class="cls-5" d="M1404,22a2.19,2.19,0,0,0-3-1C1399,22,1403,24,1404,22Z"/><path d="M1391,26V23S1393,22,1391,26Z"/></g></g></g></g></svg>
