<svg xmlns="http://www.w3.org/2000/svg" viewBox="0 0 2547.96 64.65"><defs><style>.cls-1{fill:#f9c;}.cls-1,.cls-4{stroke:#dd992a;stroke-miterlimit:10;}.cls-2,.cls-4{fill:#dd992a;}.cls-3{fill:#bc8028;}.cls-5{fill:#050502;}.cls-6{fill:#070706;}</style></defs><title>backgrounds (2)</title><g id="Layer_2" data-name="Layer 2"><g id="backgrounds"><g id="_8_copy" data-name="8 copy"><path class="cls-1" d="M2525.46,28.92h7s-4-6-4-7S2524.46,28.92,2525.46,28.92Z"/><rect class="cls-2" x="2487.96" y="28.42" width="60" height="25" rx="11.5" ry="11.5"/><rect class="cls-3" x="2494.96" y="54.42" width="8" height="4" rx="2" ry="2" transform="matrix(-0.35, 0.94, -0.94, -0.35, 3423.65, -2265.85)"/><rect class="cls-4" x="2523.96" y="54.42" width="8" height="4" rx="2" ry="2" transform="translate(3840.81 -2104.64) rotate(120)"/><rect class="cls-3" x="2529.96" y="54.42" width="8" height="4" rx="2" ry="2" transform="translate(857.78 -1844.78) rotate(47.32)"/><rect class="cls-4" x="2500.96" y="54.42" width="8" height="4" rx="2" ry="2" transform="translate(965.08 -1920.13) rotate(50.79)"/><path class="cls-2" d="M2488.47,37.05a20.45,20.45,0,0,0-3.64-1.63,13.14,13.14,0,0,1-2-.66,6.07,6.07,0,0,1-1.54-1.18,6.21,6.21,0,0,1-1.5-2.13,14,14,0,0,1-.52-2.58,20.36,20.36,0,0,1-.68-3.68,21.79,21.79,0,0,1,.48-3,8,8,0,0,0-1.83-6.41,6.89,6.89,0,0,0-6.19-2.26,6.1,6.1,0,0,0-4.82,4.38,10.22,10.22,0,0,0-.23,1.75c-.09,1.28-.13,2.57-.12,3.85a13.47,13.47,0,0,0,.33,3.41c.68,2.69,2.67,4.82,4.52,6.89a6.26,6.26,0,0,1,.72.91c.16.29.28.59.43.88a8.65,8.65,0,0,0,2.45,2.63,9.51,9.51,0,0,0,2.36,1.52,8.58,8.58,0,0,0,2.75.51c3,.17,6-.2,8.87.4"/><path class="cls-2" d="M2489.23,35.75c-1.49-.77-3-1.26-4.5-1.92-2.79-1.21-3.47-3.19-4.13-6-.84-3.54.78-7-.64-10.49-2.19-5.36-9.6-7.46-13.61-2.77-4.42,5.17-1.95,14.05,2,18.68,2.09,2.48,3.55,5.35,6.42,7.08,3.93,2.36,8.87,1.1,13.21,1.74,1.88.27,2.7-2.62.79-2.9-2.8-.41-5.56-.17-8.37-.42-4.29-.4-5.48-2.11-7.82-5.13-1.76-2.26-4.09-4.27-4.86-7.14-.24-.92-.69-5.67-.15-6.86l5.87-4.55q3.46,1,3.84,4.13c.72,2.5-.29,4.84,0,7.39a21.1,21.1,0,0,0,1.25,5.59c1.81,4,5.72,4.33,9.21,6.13,1.71.89,3.23-1.7,1.51-2.59Z"/><path class="cls-1" d="M2535.05,29.47l5.94.86s-2.25-5.38-1.11-6.22S2534.21,28.33,2535.05,29.47Z"/><circle class="cls-5" cx="2529.96" cy="34.42" r="1"/><circle class="cls-6" cx="2539.96" cy="34.42" r="1"/><polygon class="cls-5" points="2534.96 39.42 2535.96 37.42 2536.96 39.42 2534.96 39.42"/></g><g id="_7_copy" data-name="7 copy"><path class="cls-1" d="M2182.79,24.48h7s-4-6-4-7S2181.79,24.48,2182.79,24.48Z"/><rect class="cls-2" x="2145.29" y="23.98" width="60" height="25" rx="11.5" ry="11.5"/><rect class="cls-3" x="2152.29" y="49.98" width="8" height="4" rx="2" ry="2" transform="translate(2957.28 -1950.7) rotate(110.42)"/><rect class="cls-4" x="2181.29" y="49.98" width="8" height="4" rx="2" ry="2" transform="translate(3322.96 -1814.55) rotate(120)"/><rect class="cls-3" x="2187.29" y="49.98" width="8" height="4" rx="2" ry="2" transform="translate(744.13 -1594.28) rotate(47.32)"/><rect class="cls-4" x="2158.29" y="49.98" width="8" height="4" rx="2" ry="2" transform="translate(835.6 -1656.26) rotate(50.79)"/><path class="cls-2" d="M2145.81,32.6a22.09,22.09,0,0,0-3.65-1.63,12.73,12.73,0,0,1-2-.65,6.07,6.07,0,0,1-1.54-1.18,6.21,6.21,0,0,1-1.5-2.13,14,14,0,0,1-.51-2.59,18.62,18.62,0,0,1-.68-3.68,20.45,20.45,0,0,1,.48-3,8,8,0,0,0-1.83-6.41,6.92,6.92,0,0,0-6.2-2.26,6.1,6.1,0,0,0-4.82,4.37,10.47,10.47,0,0,0-.23,1.76c-.08,1.28-.12,2.56-.12,3.85a14.45,14.45,0,0,0,.33,3.41c.68,2.69,2.67,4.82,4.53,6.89a6.34,6.34,0,0,1,.71.91c.17.28.28.59.43.88a8.77,8.77,0,0,0,2.45,2.63A10.12,10.12,0,0,0,2134,35.3a8.59,8.59,0,0,0,2.76.51c2.95.17,6-.2,8.86.4"/><path class="cls-2" d="M2146.57,31.31c-1.49-.77-3-1.27-4.51-1.93-2.78-1.2-3.47-3.18-4.12-6-.84-3.53.77-7-.65-10.48-2.19-5.37-9.6-7.46-13.6-2.77-4.42,5.17-2,14.05,1.95,18.68,2.08,2.48,3.54,5.35,6.41,7.08,3.93,2.36,8.87,1.1,13.21,1.73,1.89.28,2.7-2.61.8-2.89-2.81-.41-5.57-.17-8.37-.43-4.3-.39-5.48-2.1-7.83-5.12-1.76-2.26-4.09-4.27-4.85-7.14-.25-.92-.69-5.67-.16-6.86l5.87-4.55c2.31.67,3.59,2,3.84,4.13.73,2.5-.28,4.84,0,7.39a21.59,21.59,0,0,0,1.25,5.59c1.81,4,5.72,4.33,9.21,6.13,1.71.88,3.23-1.7,1.52-2.59Z"/><path class="cls-1" d="M2192.38,25l5.94.87s-2.24-5.38-1.11-6.22S2191.54,23.89,2192.38,25Z"/><circle class="cls-5" cx="2187.29" cy="29.98" r="1"/><circle class="cls-6" cx="2197.29" cy="29.98" r="1"/><polygon class="cls-5" points="2192.3 34.98 2193.3 32.98 2194.3 34.98 2192.3 34.98"/></g><g id="_6_copy" data-name="6 copy"><path class="cls-1" d="M1823.46,32.92h7s-4-6-4-7S1822.46,32.92,1823.46,32.92Z"/><rect class="cls-2" x="1785.96" y="32.42" width="60" height="25" rx="11.5" ry="11.5"/><rect class="cls-3" x="1792.96" y="58.42" width="8" height="4" rx="2" ry="2" transform="translate(2480.5 -1602.56) rotate(110.42)"/><rect class="cls-4" x="1821.96" y="58.42" width="8" height="4" rx="2" ry="2" transform="translate(2791.27 -1490.69) rotate(120)"/><rect class="cls-3" x="1827.96" y="58.42" width="8" height="4" rx="2" ry="2" transform="translate(634.58 -1327.38) rotate(47.32)"/><rect class="cls-4" x="1798.96" y="58.42" width="8" height="4" rx="2" ry="2" transform="translate(709.97 -1374.74) rotate(50.79)"/><path class="cls-2" d="M1786.47,41.05a20.45,20.45,0,0,0-3.64-1.63,13.14,13.14,0,0,1-2-.66,6.07,6.07,0,0,1-1.54-1.18,6.21,6.21,0,0,1-1.5-2.13,14,14,0,0,1-.52-2.58,20.36,20.36,0,0,1-.68-3.68,21.79,21.79,0,0,1,.48-3,8,8,0,0,0-1.83-6.41,6.89,6.89,0,0,0-6.19-2.26,6.1,6.1,0,0,0-4.82,4.38,10.22,10.22,0,0,0-.23,1.75c-.09,1.28-.13,2.57-.12,3.85a13.47,13.47,0,0,0,.33,3.41c.68,2.69,2.67,4.82,4.52,6.89a6.26,6.26,0,0,1,.72.91c.16.29.28.59.43.88a8.65,8.65,0,0,0,2.45,2.63,9.51,9.51,0,0,0,2.36,1.52,8.58,8.58,0,0,0,2.75.51c3,.17,6-.2,8.87.4"/><path class="cls-2" d="M1787.23,39.75c-1.49-.77-3-1.26-4.5-1.92-2.79-1.21-3.47-3.19-4.13-6-.84-3.54.78-7-.64-10.49-2.19-5.36-9.6-7.46-13.61-2.77-4.42,5.17-1.95,14,2,18.68,2.09,2.48,3.55,5.35,6.42,7.08,3.93,2.36,8.87,1.1,13.21,1.74,1.88.27,2.7-2.62.79-2.9-2.8-.41-5.56-.17-8.37-.42-4.29-.4-5.48-2.11-7.82-5.13-1.76-2.26-4.09-4.27-4.86-7.14-.24-.92-.69-5.67-.15-6.86l5.87-4.55q3.46,1,3.84,4.13c.72,2.5-.29,4.84,0,7.39a21.1,21.1,0,0,0,1.25,5.59c1.81,4,5.72,4.33,9.21,6.13,1.71.89,3.23-1.7,1.51-2.59Z"/><path class="cls-1" d="M1833.05,33.47l5.94.86s-2.25-5.38-1.11-6.22S1832.21,32.33,1833.05,33.47Z"/><circle class="cls-5" cx="1827.96" cy="38.42" r="1"/><circle class="cls-6" cx="1837.96" cy="38.42" r="1"/><polygon class="cls-5" points="1832.96 43.42 1833.96 41.42 1834.96 43.42 1832.96 43.42"/></g><g id="_5_copy" data-name="5 copy"><path class="cls-1" d="M1480.46,23.92h7s-4-6-4-7S1479.46,23.92,1480.46,23.92Z"/><rect class="cls-2" x="1442.96" y="23.42" width="60" height="25" rx="11.5" ry="11.5"/><rect class="cls-3" x="1449.96" y="49.42" width="8" height="4" rx="2" ry="2" transform="translate(2009.4 -1293.25) rotate(110.42)"/><rect class="cls-4" x="1478.96" y="49.42" width="8" height="4" rx="2" ry="2" transform="matrix(-0.5, 0.87, -0.87, -0.5, 2268.98, -1207.15)"/><rect class="cls-3" x="1484.96" y="49.42" width="8" height="4" rx="2" ry="2" transform="translate(517.47 -1078.11) rotate(47.32)"/><rect class="cls-4" x="1455.96" y="49.42" width="8" height="4" rx="2" ry="2" transform="translate(576.84 -1112.29) rotate(50.79)"/><path class="cls-2" d="M1443.47,32.05a20.45,20.45,0,0,0-3.64-1.63,13.14,13.14,0,0,1-2-.66,6.07,6.07,0,0,1-1.54-1.18,6.21,6.21,0,0,1-1.5-2.13,14,14,0,0,1-.52-2.58,20.36,20.36,0,0,1-.68-3.68,21.79,21.79,0,0,1,.48-3,8,8,0,0,0-1.83-6.41,6.89,6.89,0,0,0-6.19-2.26,6.1,6.1,0,0,0-4.82,4.38,10.22,10.22,0,0,0-.23,1.75c-.09,1.28-.13,2.57-.12,3.85a13.47,13.47,0,0,0,.33,3.41c.68,2.69,2.67,4.82,4.52,6.89a6.26,6.26,0,0,1,.72.91c.16.29.28.59.43.88a8.65,8.65,0,0,0,2.45,2.63,9.51,9.51,0,0,0,2.36,1.52,8.58,8.58,0,0,0,2.75.51c3,.17,6-.2,8.87.4"/><path class="cls-2" d="M1444.23,30.75c-1.49-.77-3-1.26-4.5-1.92-2.79-1.21-3.47-3.19-4.13-6-.84-3.54.78-7-.64-10.49-2.19-5.36-9.6-7.46-13.61-2.77-4.42,5.17-1.95,14.05,2,18.68,2.09,2.48,3.55,5.35,6.42,7.08,3.93,2.36,8.87,1.1,13.21,1.74,1.88.27,2.7-2.62.79-2.9-2.8-.41-5.56-.17-8.37-.42-4.29-.4-5.48-2.11-7.82-5.13-1.76-2.26-4.09-4.27-4.86-7.14-.24-.92-.69-5.67-.15-6.86l5.87-4.55q3.46,1,3.84,4.13c.72,2.5-.29,4.84,0,7.39a21.1,21.1,0,0,0,1.25,5.59c1.81,4,5.72,4.33,9.21,6.13,1.71.89,3.23-1.7,1.51-2.59Z"/><path class="cls-1" d="M1490.05,24.47l5.94.86s-2.25-5.38-1.11-6.22S1489.21,23.33,1490.05,24.47Z"/><circle class="cls-5" cx="1484.96" cy="29.42" r="1"/><circle class="cls-6" cx="1494.96" cy="29.42" r="1"/><polygon class="cls-5" points="1489.96 34.42 1490.96 32.42 1491.96 34.42 1489.96 34.42"/></g><g id="_4_copy" data-name="4 copy"><path class="cls-1" d="M1123.46,22.92h7s-4-6-4-7S1122.46,22.92,1123.46,22.92Z"/><rect class="cls-2" x="1085.96" y="22.42" width="60" height="25" rx="11.5" ry="11.5"/><rect class="cls-3" x="1092.96" y="48.42" width="8" height="4" rx="2" ry="2" transform="translate(1526.91 -960.03) rotate(110.42)"/><rect class="cls-4" x="1121.96" y="48.42" width="8" height="4" rx="2" ry="2" transform="translate(1732.61 -899.48) rotate(120)"/><rect class="cls-3" x="1127.96" y="48.42" width="8" height="4" rx="2" ry="2" transform="translate(401.72 -815.97) rotate(47.32)"/><rect class="cls-4" x="1098.96" y="48.42" width="8" height="4" rx="2" ry="2" transform="translate(444.75 -836.05) rotate(50.79)"/><path class="cls-2" d="M1086.47,31.05a20.45,20.45,0,0,0-3.64-1.63,13.14,13.14,0,0,1-2-.66,6.07,6.07,0,0,1-1.54-1.18,6.21,6.21,0,0,1-1.5-2.13,14,14,0,0,1-.52-2.58,20.36,20.36,0,0,1-.68-3.68,21.79,21.79,0,0,1,.48-3,8,8,0,0,0-1.83-6.41,6.89,6.89,0,0,0-6.19-2.26,6.1,6.1,0,0,0-4.82,4.38,10.22,10.22,0,0,0-.23,1.75c-.09,1.28-.13,2.57-.12,3.85a13.47,13.47,0,0,0,.33,3.41c.68,2.69,2.67,4.82,4.52,6.89a6.26,6.26,0,0,1,.72.91c.16.29.28.59.43.88a8.65,8.65,0,0,0,2.45,2.63,9.51,9.51,0,0,0,2.36,1.52,8.58,8.58,0,0,0,2.75.51c3,.17,6-.2,8.87.4"/><path class="cls-2" d="M1087.23,29.75c-1.49-.77-3-1.26-4.5-1.92-2.79-1.21-3.47-3.19-4.13-6-.84-3.54.78-7-.64-10.49-2.19-5.36-9.6-7.46-13.61-2.77-4.42,5.17-1.95,14.05,2,18.68,2.09,2.48,3.55,5.35,6.42,7.08,3.93,2.36,8.87,1.1,13.21,1.74,1.88.27,2.7-2.62.79-2.9-2.8-.41-5.56-.17-8.37-.42-4.29-.4-5.48-2.11-7.82-5.13-1.76-2.26-4.09-4.27-4.86-7.14-.24-.92-.69-5.67-.15-6.86l5.87-4.55q3.46,1,3.84,4.13c.72,2.5-.29,4.84,0,7.39a21.1,21.1,0,0,0,1.25,5.59c1.81,4,5.72,4.33,9.21,6.13,1.71.89,3.23-1.7,1.51-2.59Z"/><path class="cls-1" d="M1133.05,23.47l5.94.86s-2.25-5.38-1.11-6.22S1132.21,22.33,1133.05,23.47Z"/><circle class="cls-5" cx="1127.96" cy="28.42" r="1"/><circle class="cls-6" cx="1137.96" cy="28.42" r="1"/><polygon class="cls-5" points="1132.96 33.42 1133.96 31.42 1134.96 33.42 1132.96 33.42"/></g><g id="_3_copy" data-name="3 copy"><path class="cls-1" d="M783.46,19.92h7s-4-6-4-7S782.46,19.92,783.46,19.92Z"/><rect class="cls-2" x="745.96" y="19.42" width="60" height="25" rx="11.5" ry="11.5"/><rect class="cls-3" x="752.96" y="45.42" width="8" height="4" rx="2" ry="2" transform="translate(1065.49 -645.43) rotate(110.42)"/><rect class="cls-4" x="781.96" y="45.42" width="8" height="4" rx="2" ry="2" transform="translate(1220.01 -609.53) rotate(120)"/><rect class="cls-3" x="787.96" y="45.42" width="8" height="4" rx="2" ry="2" transform="translate(289.99 -566.97) rotate(47.32)"/><rect class="cls-4" x="758.96" y="45.42" width="8" height="4" rx="2" ry="2" transform="translate(317.37 -573.71) rotate(50.79)"/><path class="cls-2" d="M746.47,28.05a20.45,20.45,0,0,0-3.64-1.63,13.14,13.14,0,0,1-2-.66,6.07,6.07,0,0,1-1.54-1.18,6.21,6.21,0,0,1-1.5-2.13,14,14,0,0,1-.52-2.58,20.36,20.36,0,0,1-.68-3.68,21.79,21.79,0,0,1,.48-3,8,8,0,0,0-1.83-6.41,6.89,6.89,0,0,0-6.19-2.26,6.1,6.1,0,0,0-4.82,4.38,10.22,10.22,0,0,0-.23,1.75c-.09,1.28-.13,2.57-.12,3.85a13.47,13.47,0,0,0,.33,3.41c.68,2.69,2.67,4.82,4.52,6.89a6.26,6.26,0,0,1,.72.91c.16.29.28.59.43.88a8.65,8.65,0,0,0,2.45,2.63,9.51,9.51,0,0,0,2.36,1.52,8.58,8.58,0,0,0,2.75.51c3,.17,6-.2,8.87.4"/><path class="cls-2" d="M747.23,26.75c-1.49-.77-3-1.26-4.5-1.92-2.79-1.21-3.47-3.19-4.13-6-.84-3.54.78-7-.64-10.49C735.77,3,728.36.91,724.35,5.6c-4.42,5.17-2,14.05,1.95,18.68,2.09,2.48,3.55,5.35,6.42,7.08,3.93,2.36,8.87,1.1,13.21,1.74,1.88.27,2.7-2.62.79-2.9-2.8-.41-5.56-.17-8.37-.42-4.29-.4-5.48-2.11-7.82-5.13-1.76-2.26-4.09-4.27-4.86-7.14-.24-.92-.69-5.67-.15-6.86l5.87-4.55q3.47,1,3.84,4.13c.72,2.5-.29,4.84,0,7.39a21.1,21.1,0,0,0,1.25,5.59c1.81,4,5.72,4.33,9.21,6.13,1.71.89,3.23-1.7,1.51-2.59Z"/><path class="cls-1" d="M793.05,20.47l5.94.86s-2.25-5.38-1.11-6.22S792.21,19.33,793.05,20.47Z"/><circle class="cls-5" cx="787.96" cy="25.42" r="1"/><circle class="cls-6" cx="797.96" cy="25.42" r="1"/><polygon class="cls-5" points="792.96 30.42 793.96 28.42 794.96 30.42 792.96 30.42"/></g><g id="_2_copy" data-name="2 copy"><path class="cls-1" d="M419.46,16.92h7s-4-6-4-7S418.46,16.92,419.46,16.92Z"/><rect class="cls-2" x="381.96" y="16.42" width="60" height="25" rx="11.5" ry="11.5"/><rect class="cls-3" x="388.96" y="42.42" width="8" height="4" rx="2" ry="2" transform="translate(571.69 -308.35) rotate(110.42)"/><rect class="cls-4" x="417.96" y="42.42" width="8" height="4" rx="2" ry="2" transform="translate(671.41 -298.79) rotate(120)"/><rect class="cls-3" x="423.96" y="42.42" width="8" height="4" rx="2" ry="2" transform="translate(170.52 -300.32) rotate(47.32)"/><rect class="cls-4" x="394.96" y="42.42" width="8" height="4" rx="2" ry="2" transform="matrix(0.63, 0.77, -0.77, 0.63, 181.16, -292.78)"/><path class="cls-2" d="M382.47,25.05a20.45,20.45,0,0,0-3.64-1.63,13.14,13.14,0,0,1-2-.66,6.07,6.07,0,0,1-1.54-1.18,6.21,6.21,0,0,1-1.5-2.13,14,14,0,0,1-.52-2.58,20.36,20.36,0,0,1-.68-3.68,21.79,21.79,0,0,1,.48-3,8,8,0,0,0-1.83-6.41,6.89,6.89,0,0,0-6.19-2.26,6.1,6.1,0,0,0-4.82,4.38A10.22,10.22,0,0,0,360,7.65c-.09,1.28-.13,2.57-.12,3.85a13.47,13.47,0,0,0,.33,3.41c.68,2.69,2.67,4.82,4.52,6.89a6.26,6.26,0,0,1,.72.91c.16.29.28.59.43.88a8.65,8.65,0,0,0,2.45,2.63,9.51,9.51,0,0,0,2.36,1.52,8.58,8.58,0,0,0,2.75.51c3,.17,6-.2,8.87.4"/><path class="cls-2" d="M383.23,23.75c-1.49-.77-3-1.26-4.5-1.92-2.79-1.21-3.47-3.19-4.13-6-.84-3.54.78-7-.64-10.49-2.19-5.36-9.6-7.46-13.61-2.77-4.42,5.17-2,14.05,1.95,18.68,2.09,2.48,3.55,5.35,6.42,7.08,3.93,2.36,8.87,1.1,13.21,1.74,1.88.27,2.7-2.62.79-2.9-2.8-.41-5.56-.17-8.37-.42-4.29-.4-5.48-2.11-7.82-5.13-1.76-2.26-4.09-4.27-4.86-7.14-.24-.92-.69-5.67-.15-6.86l5.87-4.55q3.47,1,3.84,4.13c.72,2.5-.29,4.84,0,7.39a21.1,21.1,0,0,0,1.25,5.59c1.81,4,5.72,4.33,9.21,6.13,1.71.89,3.23-1.7,1.51-2.59Z"/><path class="cls-1" d="M429.05,17.47l5.94.86s-2.25-5.38-1.11-6.22S428.21,16.33,429.05,17.47Z"/><circle class="cls-5" cx="423.96" cy="22.42" r="1"/><circle class="cls-6" cx="433.96" cy="22.42" r="1"/><polygon class="cls-5" points="428.96 27.42 429.96 25.42 430.96 27.42 428.96 27.42"/></g><g id="_1from_left_copy" data-name="1from left copy"><g id="_1_from_left" data-name="1 from left"><path class="cls-1" d="M61.46,17.92h7s-4-6-4-7S60.46,17.92,61.46,17.92Z"/><rect class="cls-2" x="23.96" y="17.42" width="60" height="25" rx="11.5" ry="11.5"/><rect class="cls-3" x="30.96" y="43.42" width="8" height="4" rx="2" ry="2" transform="translate(89.73 28.51) rotate(110.42)"/><rect class="cls-4" x="59.96" y="43.42" width="8" height="4" rx="2" ry="2" transform="translate(135.28 12.74) rotate(120)"/><rect class="cls-3" x="65.96" y="43.42" width="8" height="4" rx="2" ry="2" transform="translate(55.93 -36.8) rotate(47.32)"/><rect class="cls-4" x="36.96" y="43.42" width="8" height="4" rx="2" ry="2" transform="translate(50.26 -15.03) rotate(50.79)"/><path class="cls-2" d="M24.47,26.05a20.45,20.45,0,0,0-3.64-1.63,13.14,13.14,0,0,1-2-.66,6.07,6.07,0,0,1-1.54-1.18,6.21,6.21,0,0,1-1.5-2.13,14,14,0,0,1-.52-2.58,20.36,20.36,0,0,1-.68-3.68,21.79,21.79,0,0,1,.48-3,8,8,0,0,0-1.83-6.41A6.89,6.89,0,0,0,7.07,2.52,6.1,6.1,0,0,0,2.25,6.9,10.22,10.22,0,0,0,2,8.65c-.09,1.28-.13,2.57-.12,3.85a13.47,13.47,0,0,0,.33,3.41c.68,2.69,2.67,4.82,4.52,6.89a6.26,6.26,0,0,1,.72.91c.16.29.28.59.43.88a8.65,8.65,0,0,0,2.45,2.63,9.51,9.51,0,0,0,2.36,1.52,8.58,8.58,0,0,0,2.75.51c3,.17,6-.2,8.87.4"/><path class="cls-2" d="M25.23,24.75c-1.49-.77-3-1.26-4.5-1.92-2.79-1.21-3.47-3.19-4.13-6-.84-3.54.78-7-.64-10.49C13.77,1,6.36-1.09,2.35,3.6-2.07,8.77.4,17.65,4.3,22.28c2.09,2.48,3.55,5.35,6.42,7.08,3.93,2.36,8.87,1.1,13.21,1.74,1.88.27,2.7-2.62.79-2.9-2.8-.41-5.56-.17-8.37-.42-4.29-.4-5.48-2.11-7.82-5.13-1.76-2.26-4.09-4.27-4.86-7.14-.24-.92-.69-5.67-.15-6.86L9.39,4.1q3.46,1,3.84,4.13c.72,2.5-.29,4.84,0,7.39a21.1,21.1,0,0,0,1.25,5.59c1.81,4,5.72,4.33,9.21,6.13,1.71.89,3.23-1.7,1.51-2.59Z"/><path class="cls-1" d="M71.05,18.47l5.94.86S74.74,14,75.88,13.11,70.21,17.33,71.05,18.47Z"/><circle class="cls-5" cx="65.96" cy="23.42" r="1"/><circle class="cls-6" cx="75.96" cy="23.42" r="1"/><polygon class="cls-5" points="70.96 28.42 71.96 26.42 72.96 28.42 70.96 28.42"/></g></g></g></g></svg>
